SplineFontDB: 3.0
FontName: OxygenSans-Regular
FullName: OxygenSans Regular
FamilyName: OxygenSans
Weight: Regular
Copyright: Copyright (c) 2011-12 by vernon adams. All rights reserved.
Version: Release 0.2.3
ItalicAngle: 0
UnderlinePosition: -22
UnderlineWidth: 0
Ascent: 1638
Descent: 410
UFOAscent: 2035
UFODescent: -672
LayerCount: 2
Layer: 0 0 "Back"  1
Layer: 1 0 "Fore"  0
FSType: 1
OS2Version: 0
OS2_WeightWidthSlopeOnly: 0
OS2_UseTypoMetrics: 0
CreationTime: 1353012877
ModificationTime: 1353013088
PfmFamily: 0
TTFWeight: 400
TTFWidth: 5
LineGap: 0
VLineGap: 0
Panose: 2 0 5 3 0 0 0 0 0 0
OS2TypoAscent: 2035
OS2TypoAOffset: 0
OS2TypoDescent: -672
OS2TypoDOffset: 0
OS2TypoLinegap: 0
OS2WinAscent: 2035
OS2WinAOffset: 0
OS2WinDescent: 672
OS2WinDOffset: 0
HheadAscent: 2035
HheadAOffset: 0
HheadDescent: -672
HheadDOffset: 0
OS2SubXSize: 1331
OS2SubYSize: 1433
OS2SubXOff: 0
OS2SubYOff: 286
OS2SupXSize: 1331
OS2SupYSize: 1433
OS2SupXOff: 0
OS2SupYOff: 983
OS2StrikeYSize: 102
OS2StrikeYPos: 530
OS2Vendor: 'newt'
OS2CodePages: 0000009f.00000001
OS2UnicodeRanges: 000004ff.0000404f.00000002.00000000
MarkAttachClasses: 1
DEI: 91125
LangName: 1033 "" "" "" "vernon adams : OxygenSans Regular : 5-11-2012" "" "Version Release 0.2.3" "" "Oxygen Sans is a trademark of vernon adams." "vernon adams" "vernon adams" "Copyright (c) 2011-12 by vernon adams. All rights reserved." "newtypography.co.uk" "newtypography.co.uk" "Copyright (c) 2011-12, Vernon Adams (vern@newtypography.co.uk),+AAoA-with Reserved Font Name Oxygen+AAoA-This Font Software is licensed under the SIL Open Font License, Version 1.1.+AAoA-This license is copied below, and is also available with a FAQ at:+AAoA-http://scripts.sil.org/OFL" "http://scripts.sil.org/OFL" 
PickledData: "(dp1
S'com.typemytype.robofont.compileSettings.autohint'
p2
I0
sS'com.typemytype.robofont.compileSettings.decompose'
p3
I0
sS'public.glyphOrder'
p4
(S'.notdef'
S'space'
S'exclam'
S'quotedbl'
S'numbersign'
S'dollar'
S'percent'
S'ampersand'

StartChar: .notdef
Encoding: 65536 -1 0
Width: 931
VWidth: 0
Flags: W
PickledData: "(dp1
S'com.typemytype.robofont.layerData'
p2
(dp3
s."
LayerCount: 2
Fore
SplineSet
186 93 m 1
 186 901 l 1
 746 901 l 1
 746 93 l 1
 186 93 l 1
93 0 m 1
 839 0 l 1
 839 994 l 1
 93 994 l 1
 93 0 l 1
EndSplineSet
EndChar

StartChar: A
Encoding: 65 65 1
Width: 1379
VWidth: 0
GlyphClass: 2
Flags: W
PickledData: "(dp1
S'com.typemytype.robofont.layerData'
p2
(dp3
s."
LayerCount: 2
Fore
SplineSet
85 0 m 1
 263 0 l 1
 423 430 l 1
 967 430 l 1
 1126 0 l 1
 1294 0 l 1
 791 1390 l 1
 589 1390 l 1
 85 0 l 1
474 561 m 1
 689 1223 l 1
 918 561 l 1
 474 561 l 1
EndSplineSet
EndChar

StartChar: AE
Encoding: 198 198 2
Width: 1918
VWidth: 0
GlyphClass: 2
Flags: W
PickledData: "(dp1
S'com.typemytype.robofont.layerData'
p2
(dp3
s."
LayerCount: 2
Fore
SplineSet
1035 536 m 1
 536 536 l 1
 979 1282 l 1
 1035 536 l 1
1136 1282 m 1
 1777 1282 l 1
 1777 1427 l 1
 917 1427 l 1
 84 0 l 1
 241 0 l 1
 460 389 l 1
 1055 389 l 1
 1083 0 l 1
 1795 0 l 1
 1795 144 l 1
 1228 144 l 1
 1189 659 l 1
 1745 659 l 1
 1745 803 l 1
 1171 803 l 1
 1136 1282 l 1
EndSplineSet
EndChar

StartChar: Alpha
Encoding: 913 913 9
Width: 1344
VWidth: 0
GlyphClass: 2
Flags: W
PickledData: "(dp1
S'com.typemytype.robofont.layerData'
p2
(dp3
s."
LayerCount: 2
Fore
SplineSet
1090 0 m 1
 1255 0 l 1
 772 1346 l 1
 574 1346 l 1
 90 0 l 1
 264 0 l 1
 421 430 l 1
 935 430 l 1
 1090 0 l 1
474 561 m 1
 474 561 654 1126 672 1186 c 1
 692 1117 885 561 885 561 c 1
 474 561 l 1
EndSplineSet
EndChar

StartChar: Alphatonos
Encoding: 902 902 10
Width: 451
VWidth: 0
GlyphClass: 2
Flags: W
PickledData: "(dp1
S'com.typemytype.robofont.layerData'
p2
(dp3
s."
LayerCount: 2
Fore
SplineSet
223 484 m 0
 304 484 344 544 344 604 c 0
 344 664 304 724 223 724 c 0
 143 724 102 664 102 604 c 0
 102 544 143 484 223 484 c 0
EndSplineSet
EndChar

StartChar: B
Encoding: 66 66 16
Width: 1295
VWidth: 0
GlyphClass: 2
Flags: W
PickledData: "(dp1
S'com.typemytype.robofont.layerData'
p2
(dp3
s."
LayerCount: 2
Fore
SplineSet
375 797 m 1
 375 1257 l 1
 599 1257 l 2
 831 1257 959 1208 959 1031 c 0
 959 854 845 797 668 797 c 2
 375 797 l 1
375 129 m 1
 375 671 l 1
 623 671 l 2
 878 671 1010 611 1010 419 c 0
 1010 239 892 129 661 129 c 2
 375 129 l 1
214 0 m 1
 693 0 l 2
 1020 0 1178 175 1178 413 c 0
 1178 574 1088 708 897 743 c 1
 1110 809 1127 989 1127 1055 c 0
 1127 1289 955 1390 607 1390 c 2
 214 1390 l 1
 214 0 l 1
EndSplineSet
EndChar

StartChar: Beta
Encoding: 914 914 17
Width: 1201
VWidth: 0
GlyphClass: 2
Flags: W
PickledData: "(dp1
S'com.typemytype.robofont.layerData'
p2
(dp3
s."
LayerCount: 2
Fore
SplineSet
294 1213 m 1
 514 1213 l 2
 741 1213 867 1168 867 991 c 0
 867 814 756 767 582 767 c 2
 294 767 l 1
 294 1213 l 1
294 641 m 1
 537 641 l 2
 787 641 917 581 917 389 c 0
 917 209 801 129 575 129 c 2
 294 129 l 1
 294 641 l 1
136 0 m 1
 606 0 l 2
 927 0 1082 145 1082 383 c 0
 1082 544 993 678 806 713 c 1
 1015 779 1032 949 1032 1015 c 0
 1032 1249 863 1346 522 1346 c 2
 136 1346 l 1
 136 0 l 1
EndSplineSet
EndChar

StartChar: C
Encoding: 67 67 18
Width: 1306
VWidth: 0
GlyphClass: 2
Flags: W
PickledData: "(dp1
S'com.typemytype.robofont.layerData'
p2
(dp3
s."
LayerCount: 2
Fore
SplineSet
777 -18 m 0
 948 -25 1100 28 1165 68 c 1
 1139 196 l 1
 1040 149 930 117 813 120 c 0
 448 129 309 401 309 719 c 0
 309 1038 480 1275 797 1275 c 0
 919 1275 1040 1243 1131 1189 c 1
 1185 1313 l 1
 1084 1377 957 1413 795 1413 c 0
 383 1413 137 1130 137 725 c 0
 137 310 361 -2 777 -18 c 0
EndSplineSet
EndChar

StartChar: Chi
Encoding: 935 935 24
Width: 1279
VWidth: 0
GlyphClass: 2
Flags: W
PickledData: "(dp1
S'com.typemytype.robofont.layerData'
p2
(dp3
s."
LayerCount: 2
Fore
SplineSet
733 679 m 1
 1181 1346 l 1
 999 1346 l 1
 642 816 l 1
 286 1346 l 1
 104 1346 l 1
 551 679 l 1
 104 0 l 1
 286 0 l 1
 642 542 l 1
 999 0 l 1
 1181 0 l 1
 733 679 l 1
EndSplineSet
EndChar

StartChar: D
Encoding: 68 68 25
Width: 1480
VWidth: 0
GlyphClass: 2
Flags: W
PickledData: "(dp1
S'com.typemytype.robofont.layerData'
p2
(dp3
s."
LayerCount: 2
Fore
SplineSet
214 0 m 1
 622 0 l 2
 1070 0 1343 253 1343 698 c 0
 1343 1166 1044 1390 594 1390 c 2
 214 1390 l 1
 214 0 l 1
392 1252 m 1
 590 1252 l 2
 955 1252 1165 1082 1165 694 c 0
 1165 340 975 137 617 137 c 2
 392 137 l 1
 392 1252 l 1
EndSplineSet
EndChar

StartChar: Dcroat
Encoding: 272 272 27
Width: 1490
VWidth: 0
GlyphClass: 2
Flags: W
PickledData: "(dp1
S'com.typemytype.robofont.layerData'
p2
(dp3
s."
LayerCount: 2
Fore
SplineSet
223 757 m 1
 116 757 l 1
 116 634 l 1
 223 634 l 1
 223 0 l 1
 654 0 l 2
 1084 0 1374 219 1374 672 c 0
 1374 1197 1031 1361 561 1361 c 2
 223 1361 l 1
 223 757 l 1
384 634 m 1
 604 634 l 1
 604 757 l 1
 384 757 l 1
 384 1220 l 1
 581 1220 l 2
 953 1220 1202 1097 1202 668 c 0
 1202 316 1004 141 671 141 c 2
 384 141 l 1
 384 634 l 1
EndSplineSet
EndChar

StartChar: Delta
Encoding: 916 916 28
Width: 1347
VWidth: 0
GlyphClass: 2
Flags: W
PickledData: "(dp1
S'com.typemytype.robofont.layerData'
p2
(dp3
s."
LayerCount: 2
Fore
SplineSet
1044 141 m 1
 309 141 l 1
 674 1188 l 1
 1044 141 l 1
90 0 m 1
 1259 0 l 1
 758 1361 l 1
 590 1361 l 1
 90 0 l 1
EndSplineSet
EndChar

StartChar: E
Encoding: 69 69 29
Width: 1192
VWidth: 0
GlyphClass: 2
Flags: W
PickledData: "(dp1
S'com.typemytype.robofont.layerData'
p2
(dp3
s."
LayerCount: 2
Fore
SplineSet
392 1251 m 1
 1030 1251 l 1
 1037 1390 l 1
 214 1390 l 1
 214 0 l 1
 1050 0 l 1
 1058 139 l 1
 392 139 l 1
 392 653 l 1
 982 653 l 1
 982 790 l 1
 392 790 l 1
 392 1251 l 1
EndSplineSet
EndChar

StartChar: Eng
Encoding: 330 330 38
Width: 1292
VWidth: 0
GlyphClass: 2
Flags: W
PickledData: "(dp1
S'com.typemytype.robofont.layerData'
p2
(dp3
s."
LayerCount: 2
Fore
SplineSet
769 -298 m 0
 1098 -298 1160 -130 1160 150 c 2
 1160 918 l 2
 1160 1220 1032 1383 785 1383 c 0
 627 1383 463 1346 298 1168 c 1
 282 1361 l 1
 136 1361 l 1
 138 0 l 1
 298 0 l 1
 298 991 l 1
 384 1121 539 1236 737 1236 c 0
 934 1236 1001 1155 1001 913 c 2
 1001 156 l 2
 1001 -92 980 -159 728 -159 c 0
 709 -159 690 -158 566 -151 c 1
 587 -286 l 1
 698 -297 744 -298 769 -298 c 0
EndSplineSet
EndChar

StartChar: Epsilon
Encoding: 917 917 40
Width: 1074
VWidth: 0
GlyphClass: 2
Flags: W
PickledData: "(dp1
S'com.typemytype.robofont.layerData'
p2
(dp3
s."
LayerCount: 2
Fore
SplineSet
311 1207 m 1
 945 1207 l 1
 952 1346 l 1
 136 1346 l 1
 136 0 l 1
 945 0 l 1
 952 139 l 1
 311 139 l 1
 311 629 l 1
 894 629 l 1
 894 766 l 1
 311 766 l 1
 311 1207 l 1
EndSplineSet
EndChar

StartChar: Epsilontonos
Encoding: 904 904 41
Width: 451
VWidth: 0
GlyphClass: 2
Flags: W
PickledData: "(dp1
S'com.typemytype.robofont.layerData'
p2
(dp3
s."
LayerCount: 2
Fore
SplineSet
223 484 m 0
 304 484 344 544 344 604 c 0
 344 664 304 724 223 724 c 0
 143 724 102 664 102 604 c 0
 102 544 143 484 223 484 c 0
EndSplineSet
EndChar

StartChar: Eta
Encoding: 919 919 42
Width: 1320
VWidth: 0
GlyphClass: 2
Flags: W
PickledData: "(dp1
S'com.typemytype.robofont.layerData'
p2
(dp3
s."
LayerCount: 2
Fore
SplineSet
1010 768 m 1
 311 768 l 1
 311 1346 l 1
 136 1346 l 1
 136 0 l 1
 311 0 l 1
 311 630 l 1
 1010 630 l 1
 1010 0 l 1
 1185 0 l 1
 1185 1346 l 1
 1010 1346 l 1
 1010 768 l 1
EndSplineSet
EndChar

StartChar: Etatonos
Encoding: 905 905 43
Width: 451
VWidth: 0
GlyphClass: 2
Flags: W
PickledData: "(dp1
S'com.typemytype.robofont.layerData'
p2
(dp3
s."
LayerCount: 2
Fore
SplineSet
223 484 m 0
 304 484 344 544 344 604 c 0
 344 664 304 724 223 724 c 0
 143 724 102 664 102 604 c 0
 102 544 143 484 223 484 c 0
EndSplineSet
EndChar

StartChar: Eth
Encoding: 208 208 44
Width: 1490
VWidth: 0
GlyphClass: 2
Flags: W
PickledData: "(dp1
S'com.typemytype.robofont.layerData'
p2
(dp3
s."
LayerCount: 2
Fore
SplineSet
223 757 m 1
 116 757 l 1
 116 634 l 1
 223 634 l 1
 223 0 l 1
 654 0 l 2
 1084 0 1374 219 1374 672 c 0
 1374 1197 1031 1361 561 1361 c 2
 223 1361 l 1
 223 757 l 1
384 634 m 1
 604 634 l 1
 604 757 l 1
 384 757 l 1
 384 1220 l 1
 581 1220 l 2
 953 1220 1202 1097 1202 668 c 0
 1202 316 1004 141 671 141 c 2
 384 141 l 1
 384 634 l 1
EndSplineSet
EndChar

StartChar: Euro
Encoding: 8364 8364 45
Width: 1125
VWidth: 0
GlyphClass: 2
Flags: W
PickledData: "(dp1
S'com.typemytype.robofont.layerData'
p2
(dp3
s."
LayerCount: 2
Fore
SplineSet
725 -20 m 0
 833 -20 924 5 1004 63 c 1
 1005 222 l 1
 918 154 830 123 743 123 c 0
 528 123 421 314 396 528 c 1
 871 528 l 1
 880 622 l 1
 380 622 l 1
 382 623 380 724 385 769 c 1
 894 769 l 1
 909 871 l 1
 401 871 l 1
 438 1095 552 1246 759 1246 c 0
 858 1246 943 1203 1004 1137 c 1
 1005 1300 l 1
 936 1359 852 1387 739 1387 c 0
 441 1387 274 1172 228 871 c 1
 127 871 l 1
 110 769 l 1
 213 769 l 1
 211 735 208 700 208 665 c 0
 208 650 209 637 210 622 c 1
 126 622 l 1
 111 528 l 1
 221 528 l 1
 260 261 408 -20 725 -20 c 0
EndSplineSet
EndChar

StartChar: F
Encoding: 70 70 46
Width: 1088
VWidth: 0
GlyphClass: 2
Flags: W
PickledData: "(dp1
S'com.typemytype.robofont.layerData'
p2
(dp3
s."
LayerCount: 2
Fore
SplineSet
393 1251 m 1
 979 1251 l 1
 990 1390 l 1
 214 1390 l 1
 214 0 l 1
 393 0 l 1
 393 657 l 1
 934 657 l 1
 934 790 l 1
 393 790 l 1
 393 1251 l 1
EndSplineSet
EndChar

StartChar: G
Encoding: 71 71 47
Width: 1476
VWidth: 0
GlyphClass: 2
Flags: W
PickledData: "(dp1
S'com.typemytype.robofont.layerData'
p2
(dp3
s."
LayerCount: 2
Fore
SplineSet
802 -18 m 0
 990 -18 1164 4 1307 59 c 1
 1307 716 l 1
 808 716 l 1
 800 579 l 1
 1129 579 l 1
 1129 147 l 1
 1071 131 917 120 812 120 c 0
 462 120 315 361 315 692 c 0
 315 1011 459 1275 834 1275 c 0
 1055 1275 1182 1208 1226 1185 c 1
 1276 1307 l 1
 1163 1380 995 1413 834 1413 c 0
 353 1413 137 1098 137 692 c 0
 137 291 342 -18 802 -18 c 0
EndSplineSet
EndChar

StartChar: Gamma
Encoding: 915 915 48
Width: 1005
VWidth: 0
GlyphClass: 2
Flags: W
PickledData: "(dp1
S'com.typemytype.robofont.layerData'
p2
(dp3
s."
LayerCount: 2
Fore
SplineSet
298 1220 m 1
 916 1220 l 1
 930 1361 l 1
 136 1361 l 1
 136 0 l 1
 298 0 l 1
 298 1220 l 1
EndSplineSet
EndChar

StartChar: H
Encoding: 72 72 54
Width: 1507
VWidth: 0
GlyphClass: 2
Flags: W
PickledData: "(dp1
S'com.typemytype.robofont.layerData'
p2
(dp3
s."
LayerCount: 2
Fore
SplineSet
392 766 m 1
 392 1390 l 1
 214 1390 l 1
 214 0 l 1
 392 0 l 1
 392 634 l 1
 1115 634 l 1
 1115 0 l 1
 1293 0 l 1
 1293 1390 l 1
 1115 1390 l 1
 1115 766 l 1
 392 766 l 1
EndSplineSet
EndChar

StartChar: Hbar
Encoding: 294 294 55
Width: 1458
VWidth: 0
GlyphClass: 2
Flags: W
PickledData: "(dp1
S'com.typemytype.robofont.layerData'
p2
(dp3
s."
LayerCount: 2
Fore
SplineSet
357 772 m 1
 357 1043 l 1
 1100 1043 l 1
 1100 772 l 1
 357 772 l 1
196 1138 m 1
 114 1138 l 1
 114 1043 l 1
 196 1043 l 1
 196 0 l 1
 357 0 l 1
 357 633 l 1
 1100 633 l 1
 1100 0 l 1
 1261 0 l 1
 1261 1043 l 1
 1343 1043 l 1
 1343 1138 l 1
 1261 1138 l 1
 1261 1361 l 1
 1100 1361 l 1
 1100 1138 l 1
 357 1138 l 1
 357 1361 l 1
 196 1361 l 1
 196 1138 l 1
EndSplineSet
EndChar

StartChar: I
Encoding: 73 73 57
Width: 607
VWidth: 0
GlyphClass: 2
Flags: W
PickledData: "(dp1
S'com.typemytype.robofont.layerData'
p2
(dp3
s."
LayerCount: 2
Fore
SplineSet
214 0 m 1
 393 0 l 1
 393 1390 l 1
 214 1390 l 1
 214 0 l 1
EndSplineSet
EndChar

StartChar: IJ
Encoding: 306 306 58
Width: 1174
VWidth: 0
GlyphClass: 2
Flags: W
PickledData: "(dp1
S'com.typemytype.robofont.layerData'
p2
(dp3
s."
LayerCount: 2
Fore
SplineSet
627 -192 m 1
 986 -192 1033 -61 1033 219 c 2
 1033 1408 l 1
 855 1408 l 1
 855 186 l 2
 855 51 851 -45 613 -45 c 1
 627 -192 l 1
196 0 m 1
 375 0 l 1
 375 1390 l 1
 196 1390 l 1
 196 0 l 1
627 -192 m 1
 986 -192 1033 -61 1033 219 c 2
 1033 1408 l 1
 855 1408 l 1
 855 186 l 2
 855 51 851 -45 613 -45 c 1
 627 -192 l 1
196 0 m 1
 375 0 l 1
 375 1390 l 1
 196 1390 l 1
 196 0 l 1
EndSplineSet
EndChar

StartChar: Iota
Encoding: 921 921 67
Width: 446
VWidth: 0
GlyphClass: 2
Flags: W
PickledData: "(dp1
S'com.typemytype.robofont.layerData'
p2
(dp3
s."
LayerCount: 2
Fore
SplineSet
136 0 m 1
 311 0 l 1
 311 1346 l 1
 136 1346 l 1
 136 0 l 1
EndSplineSet
EndChar

StartChar: Iotadieresis
Encoding: 938 938 68
Width: 446
VWidth: 0
GlyphClass: 2
Flags: W
PickledData: "(dp1
S'com.typemytype.robofont.layerData'
p2
(dp3
s."
LayerCount: 2
Fore
SplineSet
330.5 1576 m 1
 471.5 1576 l 1
 471.5 1769 l 1
 330.5 1769 l 1
 330.5 1576 l 1
-24.5 1576 m 1
 116.5 1576 l 1
 116.5 1769 l 1
 -24.5 1769 l 1
 -24.5 1576 l 1
136 0 m 1
 311 0 l 1
 311 1346 l 1
 136 1346 l 1
 136 0 l 1
EndSplineSet
EndChar

StartChar: Iotatonos
Encoding: 906 906 69
Width: 451
VWidth: 0
GlyphClass: 2
Flags: W
PickledData: "(dp1
S'com.typemytype.robofont.layerData'
p2
(dp3
s."
LayerCount: 2
Fore
SplineSet
223 484 m 0
 304 484 344 544 344 604 c 0
 344 664 304 724 223 724 c 0
 143 724 102 664 102 604 c 0
 102 544 143 484 223 484 c 0
EndSplineSet
EndChar

StartChar: J
Encoding: 74 74 71
Width: 741
VWidth: 0
GlyphClass: 2
Flags: W
PickledData: "(dp1
S'com.typemytype.robofont.layerData'
p2
(dp3
s."
LayerCount: 2
Fore
SplineSet
121 -192 m 1
 480 -192 527 -61 527 219 c 2
 527 1408 l 1
 349 1408 l 1
 349 186 l 2
 349 51 345 -45 107 -45 c 1
 121 -192 l 1
EndSplineSet
EndChar

StartChar: K
Encoding: 75 75 73
Width: 1302
VWidth: 0
GlyphClass: 2
Flags: W
PickledData: "(dp1
S'com.typemytype.robofont.layerData'
p2
(dp3
s."
LayerCount: 2
Fore
SplineSet
993 1389 m 1
 392 746 l 1
 392 1389 l 1
 214 1389 l 1
 214 0 l 1
 392 0 l 1
 392 585 l 1
 509 689 l 1
 1055 0 l 1
 1264 0 l 1
 639 763 l 1
 1217 1389 l 1
 993 1389 l 1
EndSplineSet
EndChar

StartChar: Kappa
Encoding: 922 922 74
Width: 1220
VWidth: 0
GlyphClass: 2
Flags: W
PickledData: "(dp1
S'com.typemytype.robofont.layerData'
p2
(dp3
s."
LayerCount: 2
Fore
SplineSet
878 1346 m 1
 311 732 l 1
 311 1346 l 1
 136 1346 l 1
 136 0 l 1
 311 0 l 1
 311 543 l 1
 415 646 l 1
 908 0 l 1
 1127 0 l 1
 553 743 l 1
 1098 1346 l 1
 878 1346 l 1
EndSplineSet
EndChar

StartChar: L
Encoding: 76 76 76
Width: 1055
VWidth: 0
GlyphClass: 2
Flags: W
PickledData: "(dp1
S'com.typemytype.robofont.layerData'
p2
(dp3
s."
LayerCount: 2
Fore
SplineSet
981 140 m 1
 393 140 l 1
 393 1390 l 1
 214 1390 l 1
 214 0 l 1
 974 0 l 1
 981 140 l 1
EndSplineSet
EndChar

StartChar: Lambda
Encoding: 923 923 78
Width: 1347
VWidth: 0
GlyphClass: 2
Flags: W
PickledData: "(dp1
S'com.typemytype.robofont.layerData'
p2
(dp3
s."
LayerCount: 2
Fore
SplineSet
1094 0 m 1
 1259 0 l 1
 758 1361 l 1
 590 1361 l 1
 90 0 l 1
 260 0 l 1
 674 1188 l 1
 1094 0 l 1
EndSplineSet
EndChar

StartChar: Lslash
Encoding: 321 321 82
Width: 1096
VWidth: 0
GlyphClass: 2
Flags: W
PickledData: "(dp1
S'com.typemytype.robofont.layerData'
p2
(dp3
s."
LayerCount: 2
Fore
SplineSet
246 688 m 1
 111 614 l 1
 111 480 l 1
 246 551 l 1
 246 0 l 1
 994 0 l 1
 1005 141 l 1
 407 141 l 1
 407 638 l 1
 725 809 l 1
 725 951 l 1
 407 776 l 1
 407 1361 l 1
 246 1361 l 1
 246 688 l 1
EndSplineSet
EndChar

StartChar: M
Encoding: 77 77 83
Width: 1735
VWidth: 0
GlyphClass: 2
Flags: W
PickledData: "(dp1
S'com.typemytype.robofont.layerData'
p2
(dp3
s."
LayerCount: 2
Fore
SplineSet
1314 1390 m 1
 868 305 l 1
 427 1390 l 1
 214 1390 l 1
 214 0 l 1
 369 0 l 1
 369 839 l 1
 358 1167 l 1
 789 108 l 1
 947 108 l 1
 1373 1163 l 1
 1366 843 l 1
 1366 0 l 1
 1521 0 l 1
 1521 1390 l 1
 1314 1390 l 1
EndSplineSet
EndChar

StartChar: Mu
Encoding: 924 924 84
Width: 1611
VWidth: 0
GlyphClass: 2
Flags: W
PickledData: "(dp1
S'com.typemytype.robofont.layerData'
p2
(dp3
s."
LayerCount: 2
Fore
SplineSet
1278 1346 m 1
 807 274 l 1
 340 1346 l 1
 136 1346 l 1
 136 0 l 1
 289 0 l 1
 289 806 l 1
 278 1136 l 1
 312 1044 l 1
 731 83 l 1
 885 83 l 1
 1296 1040 l 1
 1330 1132 l 1
 1323 810 l 1
 1323 0 l 1
 1476 0 l 1
 1476 1346 l 1
 1278 1346 l 1
EndSplineSet
EndChar

StartChar: N
Encoding: 78 78 85
Width: 1557
VWidth: 0
GlyphClass: 2
Flags: W
PickledData: "(dp1
S'com.typemytype.robofont.layerData'
p2
(dp3
s."
LayerCount: 2
Fore
SplineSet
1192 208 m 1
 393 1390 l 1
 214 1390 l 1
 214 0 l 1
 370 0 l 1
 370 830 l 1
 365 1181 l 1
 1160 0 l 1
 1343 0 l 1
 1343 1390 l 1
 1187 1390 l 1
 1187 555 l 1
 1192 208 l 1
EndSplineSet
EndChar

StartChar: Nu
Encoding: 925 925 90
Width: 1378
VWidth: 0
GlyphClass: 2
Flags: W
PickledData: "(dp1
S'com.typemytype.robofont.layerData'
p2
(dp3
s."
LayerCount: 2
Fore
SplineSet
1096 219 m 1
 838 598 572 970 312 1346 c 1
 136 1346 l 1
 136 0 l 1
 289 0 l 1
 289 786 l 2
 289 894 284 1127 284 1127 c 1
 540 747 806 377 1065 0 c 1
 1243 0 l 1
 1243 1346 l 1
 1090 1346 l 1
 1090 555 l 2
 1090 509 1096 219 1096 219 c 1
EndSplineSet
EndChar

StartChar: O
Encoding: 79 79 91
Width: 1581
VWidth: 0
GlyphClass: 2
Flags: W
PickledData: "(dp1
S'com.typemytype.robofont.layerData'
p2
(dp3
s."
LayerCount: 2
Fore
SplineSet
791 120 m 0
 467 120 316 379 316 697 c 0
 316 1028 475 1275 792 1275 c 0
 1109 1275 1265 1027 1265 697 c 0
 1265 379 1115 120 791 120 c 0
1444 697 m 0
 1444 1122 1201 1413 792 1413 c 0
 376 1413 137 1125 137 698 c 0
 137 281 368 -18 791 -18 c 0
 1209 -18 1444 287 1444 697 c 0
EndSplineSet
EndChar

StartChar: OE
Encoding: 338 338 92
Width: 1866
VWidth: 0
GlyphClass: 2
Flags: W
PickledData: "(dp1
S'com.typemytype.robofont.layerData'
p2
(dp3
s."
LayerCount: 2
Fore
SplineSet
771 117 m 1
 415 121 286 380 286 703 c 1
 293 1020 468 1249 763 1249 c 0
 890 1249 996 1203 1066 1146 c 1
 1066 202 l 1
 1022 176 888 117 771 117 c 1
770 -21 m 0
 876 -21 1027 33 1066 75 c 1
 1066 0 l 1
 1734 0 l 1
 1748 142 l 1
 1227 142 l 1
 1227 630 l 1
 1678 630 l 1
 1678 769 l 1
 1227 769 l 1
 1227 1220 l 1
 1711 1220 l 1
 1726 1360 l 1
 1066 1360 l 1
 1066 1286 l 1
 998 1345 884 1387 749 1387 c 0
 383 1387 122 1099 113 702 c 1
 113 272 338 -21 770 -21 c 0
EndSplineSet
EndChar

StartChar: Ohorn
Encoding: 416 416 98
Width: 1507
VWidth: 0
GlyphClass: 2
Flags: W
PickledData: "(dp1
S'com.typemytype.robofont.layerData'
p2
(dp3
s."
LayerCount: 2
Fore
SplineSet
1542 1099 m 0
 1634 1099 1680 1180 1680 1276 c 0
 1680 1321 1670 1368 1651 1413 c 1
 1545 1413 l 1
 1559 1376 1572 1324 1572 1279 c 0
 1572 1229 1556 1188 1503 1188 c 0
 1488 1188 1472 1190 1458 1190 c 1
 1458 1104 l 1
 1486 1101 1516 1099 1542 1099 c 0
757 120 m 0
 433 120 282 379 282 697 c 0
 282 1028 441 1275 758 1275 c 0
 1075 1275 1231 1027 1231 697 c 0
 1231 379 1081 120 757 120 c 0
1410 697 m 0
 1410 1122 1167 1413 758 1413 c 0
 342 1413 103 1125 103 698 c 0
 103 281 334 -18 757 -18 c 0
 1175 -18 1410 287 1410 697 c 0
1541 1099 m 0
 1633 1099 1679 1180 1679 1276 c 0
 1679 1321 1669 1368 1650 1413 c 1
 1544 1413 l 1
 1558 1376 1571 1324 1571 1279 c 0
 1571 1229 1555 1188 1502 1188 c 0
 1487 1188 1471 1190 1457 1190 c 1
 1457 1104 l 1
 1485 1101 1515 1099 1541 1099 c 0
757 120 m 0
 433 120 282 379 282 697 c 0
 282 1028 441 1275 758 1275 c 0
 1075 1275 1231 1027 1231 697 c 0
 1231 379 1081 120 757 120 c 0
1410 697 m 0
 1410 1122 1167 1413 758 1413 c 0
 342 1413 103 1125 103 698 c 0
 103 281 334 -18 757 -18 c 0
 1175 -18 1410 287 1410 697 c 0
1540 1099 m 0
 1632 1099 1678 1180 1678 1276 c 0
 1678 1321 1668 1368 1649 1413 c 1
 1543 1413 l 1
 1557 1376 1570 1324 1570 1279 c 0
 1570 1229 1554 1188 1501 1188 c 0
 1486 1188 1470 1190 1456 1190 c 1
 1456 1104 l 1
 1484 1101 1514 1099 1540 1099 c 0
757 120 m 0
 433 120 282 379 282 697 c 0
 282 1028 441 1275 758 1275 c 0
 1075 1275 1231 1027 1231 697 c 0
 1231 379 1081 120 757 120 c 0
1410 697 m 0
 1410 1122 1167 1413 758 1413 c 0
 342 1413 103 1125 103 698 c 0
 103 281 334 -18 757 -18 c 0
 1175 -18 1410 287 1410 697 c 0
1541 1099 m 0
 1633 1099 1679 1180 1679 1276 c 0
 1679 1321 1669 1368 1650 1413 c 1
 1544 1413 l 1
 1558 1376 1571 1324 1571 1279 c 0
 1571 1229 1555 1188 1502 1188 c 0
 1487 1188 1471 1190 1457 1190 c 1
 1457 1104 l 1
 1485 1101 1515 1099 1541 1099 c 0
757 120 m 0
 433 120 282 379 282 697 c 0
 282 1028 441 1275 758 1275 c 0
 1075 1275 1231 1027 1231 697 c 0
 1231 379 1081 120 757 120 c 0
1410 697 m 0
 1410 1122 1167 1413 758 1413 c 0
 342 1413 103 1125 103 698 c 0
 103 281 334 -18 757 -18 c 0
 1175 -18 1410 287 1410 697 c 0
1542 1099 m 0
 1634 1099 1680 1180 1680 1276 c 0
 1680 1321 1670 1368 1651 1413 c 1
 1545 1413 l 1
 1559 1376 1572 1324 1572 1279 c 0
 1572 1229 1556 1188 1503 1188 c 0
 1488 1188 1472 1190 1458 1190 c 1
 1458 1104 l 1
 1486 1101 1516 1099 1542 1099 c 0
757 120 m 0
 433 120 282 379 282 697 c 0
 282 1028 441 1275 758 1275 c 0
 1075 1275 1231 1027 1231 697 c 0
 1231 379 1081 120 757 120 c 0
1410 697 m 0
 1410 1122 1167 1413 758 1413 c 0
 342 1413 103 1125 103 698 c 0
 103 281 334 -18 757 -18 c 0
 1175 -18 1410 287 1410 697 c 0
1543 1099 m 0
 1635 1099 1681 1180 1681 1276 c 0
 1681 1321 1671 1368 1652 1413 c 1
 1546 1413 l 1
 1560 1376 1573 1324 1573 1279 c 0
 1573 1229 1557 1188 1504 1188 c 0
 1489 1188 1473 1190 1459 1190 c 1
 1459 1104 l 1
 1487 1101 1517 1099 1543 1099 c 0
757 120 m 0
 433 120 282 379 282 697 c 0
 282 1028 441 1275 758 1275 c 0
 1075 1275 1231 1027 1231 697 c 0
 1231 379 1081 120 757 120 c 0
1410 697 m 0
 1410 1122 1167 1413 758 1413 c 0
 342 1413 103 1125 103 698 c 0
 103 281 334 -18 757 -18 c 0
 1175 -18 1410 287 1410 697 c 0
1544 1099 m 0
 1636 1099 1682 1180 1682 1276 c 0
 1682 1321 1672 1368 1653 1413 c 1
 1547 1413 l 1
 1561 1376 1574 1324 1574 1279 c 0
 1574 1229 1558 1188 1505 1188 c 0
 1490 1188 1474 1190 1460 1190 c 1
 1460 1104 l 1
 1488 1101 1518 1099 1544 1099 c 0
757 120 m 0
 433 120 282 379 282 697 c 0
 282 1028 441 1275 758 1275 c 0
 1075 1275 1231 1027 1231 697 c 0
 1231 379 1081 120 757 120 c 0
1410 697 m 0
 1410 1122 1167 1413 758 1413 c 0
 342 1413 103 1125 103 698 c 0
 103 281 334 -18 757 -18 c 0
 1175 -18 1410 287 1410 697 c 0
1545 1099 m 0
 1637 1099 1683 1180 1683 1276 c 0
 1683 1321 1673 1368 1654 1413 c 1
 1548 1413 l 1
 1562 1376 1575 1324 1575 1279 c 0
 1575 1229 1559 1188 1506 1188 c 0
 1491 1188 1475 1190 1461 1190 c 1
 1461 1104 l 1
 1489 1101 1519 1099 1545 1099 c 0
757 120 m 0
 433 120 282 379 282 697 c 0
 282 1028 441 1275 758 1275 c 0
 1075 1275 1231 1027 1231 697 c 0
 1231 379 1081 120 757 120 c 0
1410 697 m 0
 1410 1122 1167 1413 758 1413 c 0
 342 1413 103 1125 103 698 c 0
 103 281 334 -18 757 -18 c 0
 1175 -18 1410 287 1410 697 c 0
1546 1099 m 0
 1638 1099 1684 1180 1684 1276 c 0
 1684 1321 1674 1368 1655 1413 c 1
 1549 1413 l 1
 1563 1376 1576 1324 1576 1279 c 0
 1576 1229 1560 1188 1507 1188 c 0
 1492 1188 1476 1190 1462 1190 c 1
 1462 1104 l 1
 1490 1101 1520 1099 1546 1099 c 0
757 120 m 0
 433 120 282 379 282 697 c 0
 282 1028 441 1275 758 1275 c 0
 1075 1275 1231 1027 1231 697 c 0
 1231 379 1081 120 757 120 c 0
1410 697 m 0
 1410 1122 1167 1413 758 1413 c 0
 342 1413 103 1125 103 698 c 0
 103 281 334 -18 757 -18 c 0
 1175 -18 1410 287 1410 697 c 0
1547 1099 m 0
 1639 1099 1685 1180 1685 1276 c 0
 1685 1321 1675 1368 1656 1413 c 1
 1550 1413 l 1
 1564 1376 1577 1324 1577 1279 c 0
 1577 1229 1561 1188 1508 1188 c 0
 1493 1188 1477 1190 1463 1190 c 1
 1463 1104 l 1
 1491 1101 1521 1099 1547 1099 c 0
757 120 m 0
 433 120 282 379 282 697 c 0
 282 1028 441 1275 758 1275 c 0
 1075 1275 1231 1027 1231 697 c 0
 1231 379 1081 120 757 120 c 0
1410 697 m 0
 1410 1122 1167 1413 758 1413 c 0
 342 1413 103 1125 103 698 c 0
 103 281 334 -18 757 -18 c 0
 1175 -18 1410 287 1410 697 c 0
1537 1099 m 0
 1629 1099 1675 1180 1675 1276 c 0
 1675 1321 1665 1368 1646 1413 c 1
 1540 1413 l 1
 1554 1376 1567 1324 1567 1279 c 0
 1567 1229 1551 1188 1498 1188 c 0
 1483 1188 1467 1190 1453 1190 c 1
 1453 1104 l 1
 1481 1101 1511 1099 1537 1099 c 0
757 120 m 0
 433 120 282 379 282 697 c 0
 282 1028 441 1275 758 1275 c 0
 1075 1275 1231 1027 1231 697 c 0
 1231 379 1081 120 757 120 c 0
1410 697 m 0
 1410 1122 1167 1413 758 1413 c 0
 342 1413 103 1125 103 698 c 0
 103 281 334 -18 757 -18 c 0
 1175 -18 1410 287 1410 697 c 0
1527 1099 m 0
 1619 1099 1665 1180 1665 1276 c 0
 1665 1321 1655 1368 1636 1413 c 1
 1530 1413 l 1
 1544 1376 1557 1324 1557 1279 c 0
 1557 1229 1541 1188 1488 1188 c 0
 1473 1188 1457 1190 1443 1190 c 1
 1443 1104 l 1
 1471 1101 1501 1099 1527 1099 c 0
757 120 m 0
 433 120 282 379 282 697 c 0
 282 1028 441 1275 758 1275 c 0
 1075 1275 1231 1027 1231 697 c 0
 1231 379 1081 120 757 120 c 0
1410 697 m 0
 1410 1122 1167 1413 758 1413 c 0
 342 1413 103 1125 103 698 c 0
 103 281 334 -18 757 -18 c 0
 1175 -18 1410 287 1410 697 c 0
1542 1099 m 0
 1634 1099 1680 1180 1680 1276 c 0
 1680 1321 1670 1368 1651 1413 c 1
 1545 1413 l 1
 1559 1376 1572 1324 1572 1279 c 0
 1572 1229 1556 1188 1503 1188 c 0
 1488 1188 1472 1190 1458 1190 c 1
 1458 1104 l 1
 1486 1101 1516 1099 1542 1099 c 0
757 120 m 0
 433 120 282 379 282 697 c 0
 282 1028 441 1275 758 1275 c 0
 1075 1275 1231 1027 1231 697 c 0
 1231 379 1081 120 757 120 c 0
1410 697 m 0
 1410 1122 1167 1413 758 1413 c 0
 342 1413 103 1125 103 698 c 0
 103 281 334 -18 757 -18 c 0
 1175 -18 1410 287 1410 697 c 0
EndSplineSet
EndChar

StartChar: Omega
Encoding: 937 937 101
Width: 1511
VWidth: 0
GlyphClass: 2
Flags: W
PickledData: "(dp1
S'com.typemytype.robofont.layerData'
p2
(dp3
s."
LayerCount: 2
Fore
SplineSet
754 118 m 0
 436 118 288 349 288 667 c 0
 288 998 444 1228 755 1228 c 0
 1066 1228 1220 997 1220 667 c 0
 1220 349 1072 118 754 118 c 0
754 -20 m 0
 1164 -20 1395 257 1395 667 c 0
 1395 1092 1156 1366 755 1366 c 0
 347 1366 114 1095 114 668 c 0
 114 251 339 -20 754 -20 c 0
EndSplineSet
EndChar

StartChar: Omegatonos
Encoding: 911 911 102
Width: 451
VWidth: 0
GlyphClass: 2
Flags: W
PickledData: "(dp1
S'com.typemytype.robofont.layerData'
p2
(dp3
s."
LayerCount: 2
Fore
SplineSet
223 484 m 0
 304 484 344 544 344 604 c 0
 344 664 304 724 223 724 c 0
 143 724 102 664 102 604 c 0
 102 544 143 484 223 484 c 0
EndSplineSet
EndChar

StartChar: Omicron
Encoding: 927 927 103
Width: 1511
VWidth: 0
GlyphClass: 2
Flags: W
PickledData: "(dp1
S'com.typemytype.robofont.layerData'
p2
(dp3
s."
LayerCount: 2
Fore
SplineSet
754 118 m 0
 436 118 288 349 288 667 c 0
 288 998 444 1228 755 1228 c 0
 1066 1228 1220 997 1220 667 c 0
 1220 349 1072 118 754 118 c 0
754 -20 m 0
 1164 -20 1395 257 1395 667 c 0
 1395 1092 1156 1366 755 1366 c 0
 347 1366 114 1095 114 668 c 0
 114 251 339 -20 754 -20 c 0
EndSplineSet
EndChar

StartChar: Omicrontonos
Encoding: 908 908 104
Width: 451
VWidth: 0
GlyphClass: 2
Flags: W
PickledData: "(dp1
S'com.typemytype.robofont.layerData'
p2
(dp3
s."
LayerCount: 2
Fore
SplineSet
223 484 m 0
 304 484 344 544 344 604 c 0
 344 664 304 724 223 724 c 0
 143 724 102 664 102 604 c 0
 102 544 143 484 223 484 c 0
EndSplineSet
EndChar

StartChar: Oslash
Encoding: 216 216 105
Width: 1560
VWidth: 0
GlyphClass: 2
Flags: W
PickledData: "(dp1
S'com.typemytype.robofont.layerData'
p2
(dp3
s."
LayerCount: 2
Fore
SplineSet
779 138 m 0
 724 138 676 144 631 157 c 1
 1056 1203 l 1
 1199 1104 1269 923 1269 714 c 0
 1269 390 1110 138 779 138 c 0
520 207 m 1
 364 302 288 491 288 714 c 0
 288 1031 450 1282 779 1282 c 0
 840 1282 895 1274 944 1258 c 1
 520 207 l 1
500 -164 m 5
 568 5 l 5
 632 -13 702 -23 779 -23 c 4
 1216 -23 1443 283 1443 708 c 4
 1443 1017 1329 1246 1121 1362 c 5
 1196 1546 l 5
 1077 1588 l 5
 1006 1411 l 5
 937 1432 861 1443 779 1443 c 4
 358 1443 115 1156 115 708 c 4
 115 406 231 162 456 48 c 5
 386 -125 l 5
 500 -164 l 5
EndSplineSet
EndChar

StartChar: P
Encoding: 80 80 108
Width: 1238
VWidth: 0
GlyphClass: 2
Flags: W
PickledData: "(dp1
S'com.typemytype.robofont.layerData'
p2
(dp3
s."
LayerCount: 2
Fore
SplineSet
651 744 m 0
 588 744 393 746 393 746 c 1
 393 1253 l 1
 660 1253 l 2
 831 1253 943 1182 943 1020 c 0
 943 840 875 744 651 744 c 0
214 0 m 1
 393 0 l 1
 393 616 l 1
 463 612 570 613 643 613 c 0
 987 613 1122 770 1122 1023 c 0
 1122 1268 927 1390 664 1390 c 2
 214 1390 l 1
 214 0 l 1
EndSplineSet
EndChar

StartChar: Phi
Encoding: 934 934 109
Width: 1547
VWidth: 0
GlyphClass: 2
Flags: W
PickledData: "(dp1
S'com.typemytype.robofont.layerData'
p2
(dp3
s."
LayerCount: 2
Fore
SplineSet
851 1097 m 1
 1128 1073 1264 920 1264 703 c 0
 1264 492 1138 320 851 294 c 1
 851 1097 l 1
690 294 m 1
 406 321 280 493 280 703 c 0
 280 921 418 1072 690 1097 c 1
 690 294 l 1
851 0 m 1
 851 155 l 1
 1236 181 1436 409 1436 703 c 0
 1436 1002 1224 1211 851 1236 c 1
 851 1361 l 1
 690 1361 l 1
 690 1236 l 1
 320 1210 108 1001 108 703 c 0
 108 410 308 183 690 155 c 1
 690 0 l 1
 851 0 l 1
EndSplineSet
EndChar

StartChar: Pi
Encoding: 928 928 110
Width: 1337
VWidth: 0
GlyphClass: 2
Flags: W
PickledData: "(dp1
S'com.typemytype.robofont.layerData'
p2
(dp3
s."
LayerCount: 2
Fore
SplineSet
1041 0 m 1
 1202 0 l 1
 1202 1361 l 1
 136 1361 l 1
 136 0 l 1
 298 0 l 1
 298 1223 l 1
 1041 1223 l 1
 1041 0 l 1
EndSplineSet
EndChar

StartChar: Psi
Encoding: 936 936 111
Width: 451
VWidth: 0
GlyphClass: 2
Flags: W
PickledData: "(dp1
S'com.typemytype.robofont.layerData'
p2
(dp3
s."
LayerCount: 2
Fore
SplineSet
223 484 m 0
 304 484 344 544 344 604 c 0
 344 664 304 724 223 724 c 0
 143 724 102 664 102 604 c 0
 102 544 143 484 223 484 c 0
EndSplineSet
EndChar

StartChar: Q
Encoding: 81 81 112
Width: 1581
VWidth: 0
GlyphClass: 2
Flags: W
PickledData: "(dp1
S'com.typemytype.robofont.layerData'
p2
(dp3
s."
LayerCount: 2
Fore
SplineSet
1289 -318 m 1
 1179 -211 1056 -11 1035 23 c 1
 885 -7 l 1
 963 -164 1150 -386 1186 -421 c 1
 1289 -318 l 1
791 120 m 0
 467 120 316 379 316 697 c 0
 316 1028 475 1275 792 1275 c 0
 1109 1275 1265 1027 1265 697 c 0
 1265 379 1115 120 791 120 c 0
1444 697 m 0
 1444 1122 1201 1413 792 1413 c 0
 376 1413 137 1125 137 698 c 0
 137 281 368 -18 791 -18 c 0
 1209 -18 1444 287 1444 697 c 0
EndSplineSet
EndChar

StartChar: R
Encoding: 82 82 113
Width: 1416
VWidth: 0
GlyphClass: 2
Flags: W
PickledData: "(dp1
S'com.typemytype.robofont.layerData'
p2
(dp3
s."
LayerCount: 2
Fore
SplineSet
214 0 m 1
 393 0 l 1
 393 661 l 1
 393 661 651 659 668 659 c 0
 700 659 802 662 829 664 c 1
 858 618 891 544 927 464 c 1
 1112 0 l 1
 1298 0 l 1
 1078 517 l 1
 1046 585 989 695 989 700 c 1
 1185 755 1234 872 1234 1040 c 0
 1234 1323 1047 1390 717 1390 c 2
 214 1390 l 1
 214 0 l 1
752 799 m 2
 393 799 l 1
 393 1252 l 1
 744 1252 l 2
 987 1252 1057 1180 1057 1038 c 0
 1057 878 997 799 752 799 c 2
EndSplineSet
EndChar

StartChar: Rho
Encoding: 929 929 117
Width: 1120
VWidth: 0
GlyphClass: 2
Flags: W
PickledData: "(dp1
S'com.typemytype.robofont.layerData'
p2
(dp3
s."
LayerCount: 2
Fore
SplineSet
533 700 m 0
 471 700 311 710 311 710 c 1
 311 1201 l 1
 542 1201 l 2
 710 1201 835 1138 835 976 c 0
 835 796 753 700 533 700 c 0
136 0 m 1
 311 0 l 1
 311 581 l 1
 380 575 469 569 525 569 c 0
 862 569 1010 726 1010 979 c 0
 1010 1224 804 1346 546 1346 c 2
 136 1346 l 1
 136 0 l 1
EndSplineSet
EndChar

StartChar: S
Encoding: 83 83 118
Width: 1243
VWidth: 0
GlyphClass: 2
Flags: W
PickledData: "(dp1
S'com.typemytype.robofont.layerData'
p2
(dp3
s."
LayerCount: 2
Fore
SplineSet
638 -18 m 0
 899 -18 1093 105 1093 376 c 0
 1093 612 937 711 740 772 c 1
 523 848 l 1
 400 886 333 956 333 1062 c 0
 333 1215 483 1275 655 1275 c 0
 796 1275 919 1212 983 1173 c 1
 1038 1298 l 1
 950 1356 808 1413 649 1413 c 0
 392 1413 174 1316 174 1051 c 0
 174 871 290 760 466 704 c 1
 695 624 l 2
 863 565 938 492 938 369 c 0
 938 204 818 120 638 120 c 0
 472 120 339 172 227 238 c 1
 172 110 l 1
 251 59 412 -18 638 -18 c 0
EndSplineSet
EndChar

StartChar: Sigma
Encoding: 931 931 124
Width: 1074
VWidth: 0
GlyphClass: 2
Flags: W
PickledData: "(dp1
S'com.typemytype.robofont.layerData'
p2
(dp3
s."
LayerCount: 2
Fore
SplineSet
311 1207 m 1
 945 1207 l 1
 952 1346 l 1
 136 1346 l 1
 136 0 l 1
 945 0 l 1
 952 139 l 1
 311 139 l 1
 311 629 l 1
 894 629 l 1
 894 766 l 1
 311 766 l 1
 311 1207 l 1
EndSplineSet
EndChar

StartChar: T
Encoding: 84 84 125
Width: 1160
VWidth: 0
GlyphClass: 2
Flags: W
PickledData: "(dp1
S'com.typemytype.robofont.layerData'
p2
(dp3
s."
LayerCount: 2
Fore
SplineSet
1085 1390 m 1
 75 1390 l 1
 75 1251 l 1
 490 1251 l 1
 490 0 l 1
 669 0 l 1
 669 1251 l 1
 1085 1251 l 1
 1085 1390 l 1
EndSplineSet
EndChar

StartChar: Tau
Encoding: 932 932 126
Width: 1147
VWidth: 0
GlyphClass: 2
Flags: W
PickledData: "(dp1
S'com.typemytype.robofont.layerData'
p2
(dp3
s."
LayerCount: 2
Fore
SplineSet
1067 1346 m 1
 77 1346 l 1
 77 1207 l 1
 485 1207 l 1
 485 0 l 1
 660 0 l 1
 660 1207 l 1
 1067 1207 l 1
 1067 1346 l 1
EndSplineSet
EndChar

StartChar: Tbar
Encoding: 358 358 127
Width: 1131
VWidth: 0
GlyphClass: 2
Flags: W
PickledData: "(dp1
S'com.typemytype.robofont.layerData'
p2
(dp3
s."
LayerCount: 2
Fore
SplineSet
484 595 m 1
 330 595 l 1
 330 483 l 1
 484 483 l 1
 484 0 l 1
 645 0 l 1
 645 483 l 1
 793 483 l 1
 793 595 l 1
 645 595 l 1
 645 1220 l 1
 1053 1220 l 1
 1053 1361 l 1
 77 1361 l 1
 77 1220 l 1
 484 1220 l 1
 484 595 l 1
EndSplineSet
EndChar

StartChar: Theta
Encoding: 920 920 129
Width: 451
VWidth: 0
GlyphClass: 2
Flags: W
PickledData: "(dp1
S'com.typemytype.robofont.layerData'
p2
(dp3
s."
LayerCount: 2
Fore
SplineSet
223 484 m 0
 304 484 344 544 344 604 c 0
 344 664 304 724 223 724 c 0
 143 724 102 664 102 604 c 0
 102 544 143 484 223 484 c 0
EndSplineSet
EndChar

StartChar: Thorn
Encoding: 222 222 130
Width: 1213
VWidth: 0
GlyphClass: 2
Flags: W
PickledData: "(dp1
S'com.typemytype.robofont.layerData'
p2
(dp3
s."
LayerCount: 2
Fore
SplineSet
298 972 m 1
 609 972 l 2
 859 972 949 891 949 712 c 0
 949 560 873 449 647 449 c 2
 298 449 l 1
 298 972 l 1
298 1361 m 1
 136 1361 l 1
 136 0 l 1
 298 0 l 1
 298 318 l 1
 298 318 650 311 657 311 c 0
 973 311 1103 478 1103 720 c 0
 1103 1008 920 1107 592 1107 c 2
 298 1107 l 1
 298 1361 l 1
EndSplineSet
EndChar

StartChar: U
Encoding: 85 85 131
Width: 1401
VWidth: 0
GlyphClass: 2
Flags: W
PickledData: "(dp1
S'com.typemytype.robofont.layerData'
p2
(dp3
s."
LayerCount: 2
Fore
SplineSet
700 -18 m 0
 1065 -18 1232 195 1232 493 c 2
 1232 1390 l 1
 1055 1390 l 1
 1055 492 l 2
 1055 248 940 120 700 120 c 0
 454 120 346 248 346 492 c 2
 346 1390 l 1
 169 1390 l 1
 169 495 l 2
 169 196 335 -18 700 -18 c 0
EndSplineSet
EndChar

StartChar: Uhorn
Encoding: 431 431 137
Width: 1327
VWidth: 0
GlyphClass: 2
Flags: W
PickledData: "(dp1
S'com.typemytype.robofont.layerData'
p2
(dp3
s."
LayerCount: 2
Fore
SplineSet
1360.5 1099 m 0
 1452.5 1099 1498.5 1180 1498.5 1276 c 0
 1498.5 1321 1488.5 1368 1469.5 1413 c 1
 1363.5 1413 l 1
 1377.5 1376 1390.5 1324 1390.5 1279 c 0
 1390.5 1229 1374.5 1188 1321.5 1188 c 0
 1306.5 1188 1290.5 1190 1276.5 1190 c 1
 1276.5 1104 l 1
 1304.5 1101 1334.5 1099 1360.5 1099 c 0
663 -18 m 0
 1028 -18 1195 195 1195 493 c 2
 1195 1390 l 1
 1018 1390 l 1
 1018 492 l 2
 1018 248 903 120 663 120 c 0
 417 120 309 248 309 492 c 2
 309 1390 l 1
 132 1390 l 1
 132 495 l 2
 132 196 298 -18 663 -18 c 0
EndSplineSet
EndChar

StartChar: Upsilon
Encoding: 933 933 141
Width: 1248
VWidth: 0
GlyphClass: 2
Flags: W
PickledData: "(dp1
S'com.typemytype.robofont.layerData'
p2
(dp3
s."
LayerCount: 2
Fore
SplineSet
623 683 m 1
 245 1346 l 1
 70 1346 l 1
 536 533 l 1
 536 0 l 1
 711 0 l 1
 711 537 l 1
 1177 1346 l 1
 1002 1346 l 1
 623 683 l 1
EndSplineSet
EndChar

StartChar: Upsilondieresis
Encoding: 939 939 142
Width: 1248
VWidth: 0
GlyphClass: 2
Flags: W
PickledData: "(dp1
S'com.typemytype.robofont.layerData'
p2
(dp3
s."
LayerCount: 2
Fore
SplineSet
730.5 1576 m 1
 871.5 1576 l 1
 871.5 1769 l 1
 730.5 1769 l 1
 730.5 1576 l 1
375.5 1576 m 1
 516.5 1576 l 1
 516.5 1769 l 1
 375.5 1769 l 1
 375.5 1576 l 1
623 683 m 1
 245 1346 l 1
 70 1346 l 1
 536 533 l 1
 536 0 l 1
 711 0 l 1
 711 537 l 1
 1177 1346 l 1
 1002 1346 l 1
 623 683 l 1
EndSplineSet
EndChar

StartChar: Upsilontonos
Encoding: 910 910 143
Width: 451
VWidth: 0
GlyphClass: 2
Flags: W
PickledData: "(dp1
S'com.typemytype.robofont.layerData'
p2
(dp3
s."
LayerCount: 2
Fore
SplineSet
223 484 m 0
 304 484 344 544 344 604 c 0
 344 664 304 724 223 724 c 0
 143 724 102 664 102 604 c 0
 102 544 143 484 223 484 c 0
EndSplineSet
EndChar

StartChar: V
Encoding: 86 86 146
Width: 1344
VWidth: 0
GlyphClass: 2
Flags: W
PickledData: "(dp1
S'com.typemytype.robofont.layerData'
p2
(dp3
s."
LayerCount: 2
Fore
SplineSet
756 0 m 1
 1266 1390 l 1
 1082 1390 l 1
 776 495 l 1
 672 197 l 1
 569 492 l 1
 264 1390 l 1
 78 1390 l 1
 588 0 l 1
 756 0 l 1
EndSplineSet
EndChar

StartChar: W
Encoding: 87 87 147
Width: 2044
VWidth: 0
GlyphClass: 2
Flags: W
PickledData: "(dp1
S'com.typemytype.robofont.layerData'
p2
(dp3
s."
LayerCount: 2
Fore
SplineSet
932 1365 m 1
 594 222 l 1
 265 1390 l 1
 87 1390 l 1
 499 0 l 1
 681 0 l 1
 1030 1160 l 1
 1357 0 l 1
 1542 0 l 1
 1957 1390 l 1
 1780 1390 l 1
 1444 221 l 1
 1114 1365 l 1
 932 1365 l 1
EndSplineSet
EndChar

StartChar: Wacute
Encoding: 7810 7810 148
Width: 2002
VWidth: 0
GlyphClass: 2
Flags: W
PickledData: "(dp1
S'com.typemytype.robofont.layerData'
p2
(dp3
s."
LayerCount: 2
Fore
SplineSet
949 1576 m 1
 1053 1576 l 1
 1349 1929 l 1
 1119 1929 l 1
 949 1576 l 1
911 1365 m 1
 573 222 l 1
 244 1390 l 1
 66 1390 l 1
 478 0 l 1
 660 0 l 1
 1009 1160 l 1
 1336 0 l 1
 1521 0 l 1
 1936 1390 l 1
 1759 1390 l 1
 1423 221 l 1
 1093 1365 l 1
 911 1365 l 1
EndSplineSet
EndChar

StartChar: Wdieresis
Encoding: 7812 7812 150
Width: 2002
VWidth: 0
GlyphClass: 2
Flags: W
PickledData: "(dp1
S'com.typemytype.robofont.layerData'
p2
(dp3
s."
LayerCount: 2
Fore
SplineSet
1108 1576 m 1
 1249 1576 l 1
 1249 1769 l 1
 1108 1769 l 1
 1108 1576 l 1
753 1576 m 1
 894 1576 l 1
 894 1769 l 1
 753 1769 l 1
 753 1576 l 1
911 1365 m 1
 573 222 l 1
 244 1390 l 1
 66 1390 l 1
 478 0 l 1
 660 0 l 1
 1009 1160 l 1
 1336 0 l 1
 1521 0 l 1
 1936 1390 l 1
 1759 1390 l 1
 1423 221 l 1
 1093 1365 l 1
 911 1365 l 1
EndSplineSet
EndChar

StartChar: Wgrave
Encoding: 7808 7808 151
Width: 2002
VWidth: 0
GlyphClass: 2
Flags: W
PickledData: "(dp1
S'com.typemytype.robofont.layerData'
p2
(dp3
s."
LayerCount: 2
Fore
SplineSet
950 1576 m 1
 1052 1576 l 1
 884 1929 l 1
 656 1929 l 1
 950 1576 l 1
911 1365 m 1
 573 222 l 1
 244 1390 l 1
 66 1390 l 1
 478 0 l 1
 660 0 l 1
 1009 1160 l 1
 1336 0 l 1
 1521 0 l 1
 1936 1390 l 1
 1759 1390 l 1
 1423 221 l 1
 1093 1365 l 1
 911 1365 l 1
EndSplineSet
EndChar

StartChar: X
Encoding: 88 88 152
Width: 1265
VWidth: 0
GlyphClass: 2
Flags: W
PickledData: "(dp1
S'com.typemytype.robofont.layerData'
p2
(dp3
s."
LayerCount: 2
Fore
SplineSet
725 709 m 1
 1190 1390 l 1
 1004 1390 l 1
 632 846 l 1
 261 1390 l 1
 75 1390 l 1
 539 709 l 1
 75 0 l 1
 261 0 l 1
 632 572 l 1
 1004 0 l 1
 1190 0 l 1
 725 709 l 1
EndSplineSet
EndChar

StartChar: Xi
Encoding: 926 926 153
Width: 451
VWidth: 0
GlyphClass: 2
Flags: W
PickledData: "(dp1
S'com.typemytype.robofont.layerData'
p2
(dp3
s."
LayerCount: 2
Fore
SplineSet
223 484 m 0
 304 484 344 544 344 604 c 0
 344 664 304 724 223 724 c 0
 143 724 102 664 102 604 c 0
 102 544 143 484 223 484 c 0
EndSplineSet
EndChar

StartChar: Y
Encoding: 89 89 154
Width: 1309
VWidth: 0
GlyphClass: 2
Flags: W
PickledData: "(dp1
S'com.typemytype.robofont.layerData'
p2
(dp3
s."
LayerCount: 2
Fore
SplineSet
668 723 m 1
 254 1390 l 1
 76 1390 l 1
 580 573 l 1
 580 0 l 1
 758 0 l 1
 758 577 l 1
 1233 1390 l 1
 1055 1390 l 1
 668 723 l 1
EndSplineSet
EndChar

StartChar: Ygrave
Encoding: 7922 7922 158
Width: 1181
VWidth: 0
GlyphClass: 2
Flags: W
PickledData: "(dp1
S'com.typemytype.robofont.layerData'
p2
(dp3
s."
LayerCount: 2
Fore
SplineSet
539.5 1576 m 1
 641.5 1576 l 1
 473.5 1929 l 1
 245.5 1929 l 1
 539.5 1576 l 1
604 723 m 1
 190 1390 l 1
 12 1390 l 1
 516 573 l 1
 516 0 l 1
 694 0 l 1
 694 577 l 1
 1169 1390 l 1
 991 1390 l 1
 604 723 l 1
EndSplineSet
EndChar

StartChar: Z
Encoding: 90 90 159
Width: 1234
VWidth: 0
GlyphClass: 2
Flags: W
PickledData: "(dp1
S'com.typemytype.robofont.layerData'
p2
(dp3
s."
LayerCount: 2
Fore
SplineSet
182 1390 m 1
 182 1252 l 1
 889 1252 l 1
 155 124 l 1
 155 0 l 1
 1095 0 l 1
 1101 138 l 1
 356 138 l 1
 1094 1272 l 1
 1094 1390 l 1
 182 1390 l 1
EndSplineSet
EndChar

StartChar: Zeta
Encoding: 918 918 163
Width: 1159
VWidth: 0
GlyphClass: 2
Flags: W
PickledData: "(dp1
S'com.typemytype.robofont.layerData'
p2
(dp3
s."
LayerCount: 2
Fore
SplineSet
137 1346 m 1
 137 1206 l 1
 843 1206 l 1
 111 124 l 1
 111 0 l 1
 1045 0 l 1
 1050 140 l 1
 308 140 l 1
 1044 1228 l 1
 1044 1346 l 1
 137 1346 l 1
EndSplineSet
EndChar

StartChar: a
Encoding: 97 97 164
Width: 1116
VWidth: 0
GlyphClass: 2
Flags: W
PickledData: "(dp1
S'com.typemytype.robofont.layerData'
p2
(dp3
s."
LayerCount: 2
Fore
SplineSet
468 102 m 0
 385 102 308 152 308 262 c 0
 308 402 397 447 658 478 c 0
 681 481 774 490 774 490 c 1
 774 251 l 1
 742.5 165 589 102 468 102 c 0
445 -21 m 0
 579.1 -21 719.501 21.5303 781 112 c 1
 808 0 l 1
 949 0 l 1
 949 661 l 2
 949 927 801 1019 557 1019 c 0
 428 1019 273 983 187 935 c 1
 194 916 226 831 234 812 c 1
 328 858 465 886 561 886 c 0
 704 886 774 823 774 685 c 2
 774 597 l 1
 774 597 645 587 599 583 c 0
 314 562 134 478 134 263 c 0
 134 79 269 -21 445 -21 c 0
EndSplineSet
EndChar

StartChar: acute
Encoding: 180 180 168
Width: 581
VWidth: 0
GlyphClass: 2
Flags: W
PickledData: "(dp1
S'com.typemytype.robofont.layerData'
p2
(dp3
s."
LayerCount: 2
Fore
SplineSet
116 1138 m 1
 220 1138 l 1
 516 1491 l 1
 286 1491 l 1
 116 1138 l 1
EndSplineSet
EndChar

StartChar: ae
Encoding: 230 230 170
Width: 1587
VWidth: 0
GlyphClass: 2
Flags: W
PickledData: "(dp1
S'com.typemytype.robofont.layerData'
p2
(dp3
s."
LayerCount: 2
Fore
SplineSet
848 560 m 1
 858 747 939 895 1122 895 c 0
 1256 895 1316 802 1318 595 c 1
 1318 586 l 1
 848 560 l 1
419 103 m 0
 332 103 266 144 266 265 c 0
 266 373 337 428 629 450 c 0
 647 452 667 453 687 454 c 1
 692 351 715 264 756 189 c 1
 652 154 520 103 419 103 c 0
408 -24 m 0
 550 -24 712 36 819 102 c 1
 892 22 986 -23 1117 -23 c 0
 1277 -23 1394 34 1468 98 c 1
 1421 208 l 1
 1357 163 1244 108 1127 108 c 0
 933 108 858 250 843 463 c 1
 1295 486 l 2
 1442 493 1465 535 1465 622 c 0
 1465 827 1373 1023 1125 1023 c 0
 993 1023 868 967 802 848 c 1
 775 966 658 1023 513 1023 c 0
 377 1023 233 981 160 939 c 1
 193 814 l 1
 269 854 392 888 517 888 c 0
 645 888 690 832 690 711 c 2
 690 561 l 1
 632 558 l 2
 356 543 113 513 113 273 c 0
 113 54 250 -24 408 -24 c 0
EndSplineSet
EndChar

StartChar: afii10017
Encoding: 1040 1040 172
Width: 1224
VWidth: 0
GlyphClass: 2
Flags: W
PickledData: "(dp1
S'com.typemytype.robofont.layerData'
p2
(dp3
s."
LayerCount: 2
Fore
SplineSet
37 0 m 1
 215 0 l 1
 375 430 l 1
 919 430 l 1
 1078 0 l 1
 1246 0 l 1
 743 1390 l 1
 541 1390 l 1
 37 0 l 1
426 561 m 1
 641 1223 l 1
 870 561 l 1
 426 561 l 1
37 0 m 1
 215 0 l 1
 375 430 l 1
 919 430 l 1
 1078 0 l 1
 1246 0 l 1
 743 1390 l 1
 541 1390 l 1
 37 0 l 1
426 561 m 1
 641 1223 l 1
 870 561 l 1
 426 561 l 1
37 0 m 1
 215 0 l 1
 375 430 l 1
 919 430 l 1
 1078 0 l 1
 1246 0 l 1
 743 1390 l 1
 541 1390 l 1
 37 0 l 1
426 561 m 1
 641 1223 l 1
 870 561 l 1
 426 561 l 1
37 0 m 1
 215 0 l 1
 375 430 l 1
 919 430 l 1
 1078 0 l 1
 1246 0 l 1
 743 1390 l 1
 541 1390 l 1
 37 0 l 1
426 561 m 1
 641 1223 l 1
 870 561 l 1
 426 561 l 1
37 0 m 1
 215 0 l 1
 375 430 l 1
 919 430 l 1
 1078 0 l 1
 1246 0 l 1
 743 1390 l 1
 541 1390 l 1
 37 0 l 1
426 561 m 1
 641 1223 l 1
 870 561 l 1
 426 561 l 1
37 0 m 1
 215 0 l 1
 375 430 l 1
 919 430 l 1
 1078 0 l 1
 1246 0 l 1
 743 1390 l 1
 541 1390 l 1
 37 0 l 1
426 561 m 1
 641 1223 l 1
 870 561 l 1
 426 561 l 1
37 0 m 1
 215 0 l 1
 375 430 l 1
 919 430 l 1
 1078 0 l 1
 1246 0 l 1
 743 1390 l 1
 541 1390 l 1
 37 0 l 1
426 561 m 1
 641 1223 l 1
 870 561 l 1
 426 561 l 1
37 0 m 1
 215 0 l 1
 375 430 l 1
 919 430 l 1
 1078 0 l 1
 1246 0 l 1
 743 1390 l 1
 541 1390 l 1
 37 0 l 1
426 561 m 1
 641 1223 l 1
 870 561 l 1
 426 561 l 1
37 0 m 1
 215 0 l 1
 375 430 l 1
 919 430 l 1
 1078 0 l 1
 1246 0 l 1
 743 1390 l 1
 541 1390 l 1
 37 0 l 1
426 561 m 1
 641 1223 l 1
 870 561 l 1
 426 561 l 1
37 0 m 1
 215 0 l 1
 375 430 l 1
 919 430 l 1
 1078 0 l 1
 1246 0 l 1
 743 1390 l 1
 541 1390 l 1
 37 0 l 1
426 561 m 1
 641 1223 l 1
 870 561 l 1
 426 561 l 1
37 0 m 1
 215 0 l 1
 375 430 l 1
 919 430 l 1
 1078 0 l 1
 1246 0 l 1
 743 1390 l 1
 541 1390 l 1
 37 0 l 1
426 561 m 1
 641 1223 l 1
 870 561 l 1
 426 561 l 1
37 0 m 1
 215 0 l 1
 375 430 l 1
 919 430 l 1
 1078 0 l 1
 1246 0 l 1
 743 1390 l 1
 541 1390 l 1
 37 0 l 1
426 561 m 1
 641 1223 l 1
 870 561 l 1
 426 561 l 1
37 0 m 1
 215 0 l 1
 375 430 l 1
 919 430 l 1
 1078 0 l 1
 1246 0 l 1
 743 1390 l 1
 541 1390 l 1
 37 0 l 1
426 561 m 1
 641 1223 l 1
 870 561 l 1
 426 561 l 1
EndSplineSet
EndChar

StartChar: afii10018
Encoding: 1041 1041 173
Width: 1174
VWidth: 0
GlyphClass: 2
Flags: W
PickledData: "(dp1
S'com.typemytype.robofont.layerData'
p2
(dp3
s."
LayerCount: 2
Fore
SplineSet
1088 393 m 0
 1088 628 960 779 636 779 c 2
 334 779 l 1
 334 1213 l 1
 974 1213 l 1
 974 1346 l 1
 160 1346 l 1
 160 0 l 1
 630 0 l 2
 960 0 1088 155 1088 393 c 0
334 653 m 1
 631 653 l 2
 823 653 914 573 914 392 c 0
 914 212 825 129 639 129 c 2
 334 129 l 1
 334 653 l 1
EndSplineSet
EndChar

StartChar: afii10019
Encoding: 1042 1042 174
Width: 1194
VWidth: 0
GlyphClass: 2
Flags: W
PickledData: "(dp1
S'com.typemytype.robofont.layerData'
p2
(dp3
s."
LayerCount: 2
Fore
SplineSet
339 797 m 1
 339 1257 l 1
 563 1257 l 2
 795 1257 923 1208 923 1031 c 0
 923 854 809 797 632 797 c 2
 339 797 l 1
339 129 m 1
 339 671 l 1
 587 671 l 2
 842 671 974 611 974 419 c 0
 974 239 856 129 625 129 c 2
 339 129 l 1
178 0 m 1
 657 0 l 2
 984 0 1142 175 1142 413 c 0
 1142 574 1052 708 861 743 c 1
 1074 809 1091 989 1091 1055 c 0
 1091 1289 919 1390 571 1390 c 2
 178 1390 l 1
 178 0 l 1
339 797 m 1
 339 1257 l 1
 563 1257 l 2
 795 1257 923 1208 923 1031 c 0
 923 854 809 797 632 797 c 2
 339 797 l 1
339 129 m 1
 339 671 l 1
 587 671 l 2
 842 671 974 611 974 419 c 0
 974 239 856 129 625 129 c 2
 339 129 l 1
178 0 m 1
 657 0 l 2
 984 0 1142 175 1142 413 c 0
 1142 574 1052 708 861 743 c 1
 1074 809 1091 989 1091 1055 c 0
 1091 1289 919 1390 571 1390 c 2
 178 1390 l 1
 178 0 l 1
339 797 m 1
 339 1257 l 1
 563 1257 l 2
 795 1257 923 1208 923 1031 c 0
 923 854 809 797 632 797 c 2
 339 797 l 1
339 129 m 1
 339 671 l 1
 587 671 l 2
 842 671 974 611 974 419 c 0
 974 239 856 129 625 129 c 2
 339 129 l 1
178 0 m 1
 657 0 l 2
 984 0 1142 175 1142 413 c 0
 1142 574 1052 708 861 743 c 1
 1074 809 1091 989 1091 1055 c 0
 1091 1289 919 1390 571 1390 c 2
 178 1390 l 1
 178 0 l 1
339 797 m 1
 339 1257 l 1
 563 1257 l 2
 795 1257 923 1208 923 1031 c 0
 923 854 809 797 632 797 c 2
 339 797 l 1
339 129 m 1
 339 671 l 1
 587 671 l 2
 842 671 974 611 974 419 c 0
 974 239 856 129 625 129 c 2
 339 129 l 1
178 0 m 1
 657 0 l 2
 984 0 1142 175 1142 413 c 0
 1142 574 1052 708 861 743 c 1
 1074 809 1091 989 1091 1055 c 0
 1091 1289 919 1390 571 1390 c 2
 178 1390 l 1
 178 0 l 1
339 797 m 1
 339 1257 l 1
 563 1257 l 2
 795 1257 923 1208 923 1031 c 0
 923 854 809 797 632 797 c 2
 339 797 l 1
339 129 m 1
 339 671 l 1
 587 671 l 2
 842 671 974 611 974 419 c 0
 974 239 856 129 625 129 c 2
 339 129 l 1
178 0 m 1
 657 0 l 2
 984 0 1142 175 1142 413 c 0
 1142 574 1052 708 861 743 c 1
 1074 809 1091 989 1091 1055 c 0
 1091 1289 919 1390 571 1390 c 2
 178 1390 l 1
 178 0 l 1
339 797 m 1
 339 1257 l 1
 563 1257 l 2
 795 1257 923 1208 923 1031 c 0
 923 854 809 797 632 797 c 2
 339 797 l 1
339 129 m 1
 339 671 l 1
 587 671 l 2
 842 671 974 611 974 419 c 0
 974 239 856 129 625 129 c 2
 339 129 l 1
178 0 m 1
 657 0 l 2
 984 0 1142 175 1142 413 c 0
 1142 574 1052 708 861 743 c 1
 1074 809 1091 989 1091 1055 c 0
 1091 1289 919 1390 571 1390 c 2
 178 1390 l 1
 178 0 l 1
339 797 m 1
 339 1257 l 1
 563 1257 l 2
 795 1257 923 1208 923 1031 c 0
 923 854 809 797 632 797 c 2
 339 797 l 1
339 129 m 1
 339 671 l 1
 587 671 l 2
 842 671 974 611 974 419 c 0
 974 239 856 129 625 129 c 2
 339 129 l 1
178 0 m 1
 657 0 l 2
 984 0 1142 175 1142 413 c 0
 1142 574 1052 708 861 743 c 1
 1074 809 1091 989 1091 1055 c 0
 1091 1289 919 1390 571 1390 c 2
 178 1390 l 1
 178 0 l 1
339 797 m 1
 339 1257 l 1
 563 1257 l 2
 795 1257 923 1208 923 1031 c 0
 923 854 809 797 632 797 c 2
 339 797 l 1
339 129 m 1
 339 671 l 1
 587 671 l 2
 842 671 974 611 974 419 c 0
 974 239 856 129 625 129 c 2
 339 129 l 1
178 0 m 1
 657 0 l 2
 984 0 1142 175 1142 413 c 0
 1142 574 1052 708 861 743 c 1
 1074 809 1091 989 1091 1055 c 0
 1091 1289 919 1390 571 1390 c 2
 178 1390 l 1
 178 0 l 1
339 797 m 1
 339 1257 l 1
 563 1257 l 2
 795 1257 923 1208 923 1031 c 0
 923 854 809 797 632 797 c 2
 339 797 l 1
339 129 m 1
 339 671 l 1
 587 671 l 2
 842 671 974 611 974 419 c 0
 974 239 856 129 625 129 c 2
 339 129 l 1
178 0 m 1
 657 0 l 2
 984 0 1142 175 1142 413 c 0
 1142 574 1052 708 861 743 c 1
 1074 809 1091 989 1091 1055 c 0
 1091 1289 919 1390 571 1390 c 2
 178 1390 l 1
 178 0 l 1
339 797 m 1
 339 1257 l 1
 563 1257 l 2
 795 1257 923 1208 923 1031 c 0
 923 854 809 797 632 797 c 2
 339 797 l 1
339 129 m 1
 339 671 l 1
 587 671 l 2
 842 671 974 611 974 419 c 0
 974 239 856 129 625 129 c 2
 339 129 l 1
178 0 m 1
 657 0 l 2
 984 0 1142 175 1142 413 c 0
 1142 574 1052 708 861 743 c 1
 1074 809 1091 989 1091 1055 c 0
 1091 1289 919 1390 571 1390 c 2
 178 1390 l 1
 178 0 l 1
339 797 m 1
 339 1257 l 1
 563 1257 l 2
 795 1257 923 1208 923 1031 c 0
 923 854 809 797 632 797 c 2
 339 797 l 1
339 129 m 1
 339 671 l 1
 587 671 l 2
 842 671 974 611 974 419 c 0
 974 239 856 129 625 129 c 2
 339 129 l 1
178 0 m 1
 657 0 l 2
 984 0 1142 175 1142 413 c 0
 1142 574 1052 708 861 743 c 1
 1074 809 1091 989 1091 1055 c 0
 1091 1289 919 1390 571 1390 c 2
 178 1390 l 1
 178 0 l 1
339 797 m 1
 339 1257 l 1
 563 1257 l 2
 795 1257 923 1208 923 1031 c 0
 923 854 809 797 632 797 c 2
 339 797 l 1
339 129 m 1
 339 671 l 1
 587 671 l 2
 842 671 974 611 974 419 c 0
 974 239 856 129 625 129 c 2
 339 129 l 1
178 0 m 1
 657 0 l 2
 984 0 1142 175 1142 413 c 0
 1142 574 1052 708 861 743 c 1
 1074 809 1091 989 1091 1055 c 0
 1091 1289 919 1390 571 1390 c 2
 178 1390 l 1
 178 0 l 1
339 797 m 1
 339 1257 l 1
 563 1257 l 2
 795 1257 923 1208 923 1031 c 0
 923 854 809 797 632 797 c 2
 339 797 l 1
339 129 m 1
 339 671 l 1
 587 671 l 2
 842 671 974 611 974 419 c 0
 974 239 856 129 625 129 c 2
 339 129 l 1
178 0 m 1
 657 0 l 2
 984 0 1142 175 1142 413 c 0
 1142 574 1052 708 861 743 c 1
 1074 809 1091 989 1091 1055 c 0
 1091 1289 919 1390 571 1390 c 2
 178 1390 l 1
 178 0 l 1
EndSplineSet
EndChar

StartChar: afii10020
Encoding: 1043 1043 175
Width: 1047
VWidth: 0
GlyphClass: 2
Flags: W
PickledData: "(dp1
S'com.typemytype.robofont.layerData'
p2
(dp3
s."
LayerCount: 2
Fore
SplineSet
995 1205 m 1
 1008 1346 l 1
 160 1346 l 1
 160 0 l 1
 334 0 l 1
 334 1205 l 1
 995 1205 l 1
EndSplineSet
EndChar

StartChar: afii10021
Encoding: 1044 1044 176
Width: 1368
VWidth: 0
GlyphClass: 2
Flags: W
PickledData: "(dp1
S'com.typemytype.robofont.layerData'
p2
(dp3
s."
LayerCount: 2
Fore
SplineSet
126 -275 m 1
 126 0 l 1
 1145 0 l 1
 1145 -275 l 1
 1306 -275 l 1
 1306 138 l 1
 1152 138 l 1
 1152 1346 l 1
 321 1346 l 1
 311 1238 298 1109 289 1019 c 0
 223 353 198 199 112 138 c 1
 -38 138 l 1
 -38 -275 l 1
 126 -275 l 1
482 1205 m 1
 978 1205 l 1
 978 138 l 1
 317 138 l 1
 391 257 410 471 456 938 c 1
 460 989 476 1142 482 1202 c 1
 482 1205 l 1
EndSplineSet
EndChar

StartChar: afii10022
Encoding: 1045 1045 177
Width: 1067
VWidth: 0
GlyphClass: 2
Flags: W
PickledData: "(dp1
S'com.typemytype.robofont.layerData'
p2
(dp3
s."
LayerCount: 2
Fore
SplineSet
356 1251 m 1
 989 1251 l 1
 996 1390 l 1
 178 1390 l 1
 178 0 l 1
 988 0 l 1
 996 139 l 1
 356 139 l 1
 356 662 l 1
 936 662 l 1
 936 799 l 1
 356 799 l 1
 356 1251 l 1
356 1251 m 1
 989 1251 l 1
 996 1390 l 1
 178 1390 l 1
 178 0 l 1
 988 0 l 1
 996 139 l 1
 356 139 l 1
 356 662 l 1
 936 662 l 1
 936 799 l 1
 356 799 l 1
 356 1251 l 1
356 1251 m 1
 989 1251 l 1
 996 1390 l 1
 178 1390 l 1
 178 0 l 1
 988 0 l 1
 996 139 l 1
 356 139 l 1
 356 662 l 1
 936 662 l 1
 936 799 l 1
 356 799 l 1
 356 1251 l 1
356 1251 m 1
 989 1251 l 1
 996 1390 l 1
 178 1390 l 1
 178 0 l 1
 988 0 l 1
 996 139 l 1
 356 139 l 1
 356 662 l 1
 936 662 l 1
 936 799 l 1
 356 799 l 1
 356 1251 l 1
356 1251 m 1
 989 1251 l 1
 996 1390 l 1
 178 1390 l 1
 178 0 l 1
 988 0 l 1
 996 139 l 1
 356 139 l 1
 356 662 l 1
 936 662 l 1
 936 799 l 1
 356 799 l 1
 356 1251 l 1
356 1251 m 1
 989 1251 l 1
 996 1390 l 1
 178 1390 l 1
 178 0 l 1
 988 0 l 1
 996 139 l 1
 356 139 l 1
 356 662 l 1
 936 662 l 1
 936 799 l 1
 356 799 l 1
 356 1251 l 1
356 1251 m 1
 989 1251 l 1
 996 1390 l 1
 178 1390 l 1
 178 0 l 1
 988 0 l 1
 996 139 l 1
 356 139 l 1
 356 662 l 1
 936 662 l 1
 936 799 l 1
 356 799 l 1
 356 1251 l 1
356 1251 m 1
 989 1251 l 1
 996 1390 l 1
 178 1390 l 1
 178 0 l 1
 988 0 l 1
 996 139 l 1
 356 139 l 1
 356 662 l 1
 936 662 l 1
 936 799 l 1
 356 799 l 1
 356 1251 l 1
356 1251 m 1
 989 1251 l 1
 996 1390 l 1
 178 1390 l 1
 178 0 l 1
 988 0 l 1
 996 139 l 1
 356 139 l 1
 356 662 l 1
 936 662 l 1
 936 799 l 1
 356 799 l 1
 356 1251 l 1
356 1251 m 1
 989 1251 l 1
 996 1390 l 1
 178 1390 l 1
 178 0 l 1
 988 0 l 1
 996 139 l 1
 356 139 l 1
 356 662 l 1
 936 662 l 1
 936 799 l 1
 356 799 l 1
 356 1251 l 1
356 1251 m 1
 989 1251 l 1
 996 1390 l 1
 178 1390 l 1
 178 0 l 1
 988 0 l 1
 996 139 l 1
 356 139 l 1
 356 662 l 1
 936 662 l 1
 936 799 l 1
 356 799 l 1
 356 1251 l 1
356 1251 m 1
 989 1251 l 1
 996 1390 l 1
 178 1390 l 1
 178 0 l 1
 988 0 l 1
 996 139 l 1
 356 139 l 1
 356 662 l 1
 936 662 l 1
 936 799 l 1
 356 799 l 1
 356 1251 l 1
356 1251 m 1
 989 1251 l 1
 996 1390 l 1
 178 1390 l 1
 178 0 l 1
 988 0 l 1
 996 139 l 1
 356 139 l 1
 356 662 l 1
 936 662 l 1
 936 799 l 1
 356 799 l 1
 356 1251 l 1
EndSplineSet
EndChar

StartChar: afii10023
Encoding: 1025 1025 178
Width: 1067
VWidth: 0
GlyphClass: 2
Flags: W
PickledData: "(dp1
S'com.typemytype.robofont.layerData'
p2
(dp3
s."
LayerCount: 2
Fore
SplineSet
694 1576 m 1
 835 1576 l 1
 835 1769 l 1
 694 1769 l 1
 694 1576 l 1
339 1576 m 1
 480 1576 l 1
 480 1769 l 1
 339 1769 l 1
 339 1576 l 1
356 1251 m 1
 989 1251 l 1
 996 1390 l 1
 178 1390 l 1
 178 0 l 1
 988 0 l 1
 996 139 l 1
 356 139 l 1
 356 662 l 1
 936 662 l 1
 936 799 l 1
 356 799 l 1
 356 1251 l 1
356 1251 m 1
 989 1251 l 1
 996 1390 l 1
 178 1390 l 1
 178 0 l 1
 988 0 l 1
 996 139 l 1
 356 139 l 1
 356 662 l 1
 936 662 l 1
 936 799 l 1
 356 799 l 1
 356 1251 l 1
356 1251 m 1
 989 1251 l 1
 996 1390 l 1
 178 1390 l 1
 178 0 l 1
 988 0 l 1
 996 139 l 1
 356 139 l 1
 356 662 l 1
 936 662 l 1
 936 799 l 1
 356 799 l 1
 356 1251 l 1
356 1251 m 1
 989 1251 l 1
 996 1390 l 1
 178 1390 l 1
 178 0 l 1
 988 0 l 1
 996 139 l 1
 356 139 l 1
 356 662 l 1
 936 662 l 1
 936 799 l 1
 356 799 l 1
 356 1251 l 1
356 1251 m 1
 989 1251 l 1
 996 1390 l 1
 178 1390 l 1
 178 0 l 1
 988 0 l 1
 996 139 l 1
 356 139 l 1
 356 662 l 1
 936 662 l 1
 936 799 l 1
 356 799 l 1
 356 1251 l 1
356 1251 m 1
 989 1251 l 1
 996 1390 l 1
 178 1390 l 1
 178 0 l 1
 988 0 l 1
 996 139 l 1
 356 139 l 1
 356 662 l 1
 936 662 l 1
 936 799 l 1
 356 799 l 1
 356 1251 l 1
356 1251 m 1
 989 1251 l 1
 996 1390 l 1
 178 1390 l 1
 178 0 l 1
 988 0 l 1
 996 139 l 1
 356 139 l 1
 356 662 l 1
 936 662 l 1
 936 799 l 1
 356 799 l 1
 356 1251 l 1
356 1251 m 1
 989 1251 l 1
 996 1390 l 1
 178 1390 l 1
 178 0 l 1
 988 0 l 1
 996 139 l 1
 356 139 l 1
 356 662 l 1
 936 662 l 1
 936 799 l 1
 356 799 l 1
 356 1251 l 1
356 1251 m 1
 989 1251 l 1
 996 1390 l 1
 178 1390 l 1
 178 0 l 1
 988 0 l 1
 996 139 l 1
 356 139 l 1
 356 662 l 1
 936 662 l 1
 936 799 l 1
 356 799 l 1
 356 1251 l 1
356 1251 m 1
 989 1251 l 1
 996 1390 l 1
 178 1390 l 1
 178 0 l 1
 988 0 l 1
 996 139 l 1
 356 139 l 1
 356 662 l 1
 936 662 l 1
 936 799 l 1
 356 799 l 1
 356 1251 l 1
356 1251 m 1
 989 1251 l 1
 996 1390 l 1
 178 1390 l 1
 178 0 l 1
 988 0 l 1
 996 139 l 1
 356 139 l 1
 356 662 l 1
 936 662 l 1
 936 799 l 1
 356 799 l 1
 356 1251 l 1
356 1251 m 1
 989 1251 l 1
 996 1390 l 1
 178 1390 l 1
 178 0 l 1
 988 0 l 1
 996 139 l 1
 356 139 l 1
 356 662 l 1
 936 662 l 1
 936 799 l 1
 356 799 l 1
 356 1251 l 1
356 1251 m 1
 989 1251 l 1
 996 1390 l 1
 178 1390 l 1
 178 0 l 1
 988 0 l 1
 996 139 l 1
 356 139 l 1
 356 662 l 1
 936 662 l 1
 936 799 l 1
 356 799 l 1
 356 1251 l 1
EndSplineSet
EndChar

StartChar: afii10024
Encoding: 1046 1046 179
Width: 1851
VWidth: 0
GlyphClass: 2
Flags: W
PickledData: "(dp1
S'com.typemytype.robofont.layerData'
p2
(dp3
s."
LayerCount: 2
Fore
SplineSet
832 0 m 1
 1006 0 l 1
 1006 600 l 1
 1535 0 l 1
 1744 0 l 1
 1147 668 l 1
 1673 1346 l 1
 1477 1346 l 1
 1006 733 l 1
 1006 1346 l 1
 832 1346 l 1
 832 735 l 1
 362 1346 l 1
 166 1346 l 1
 692 668 l 1
 95 0 l 1
 304 0 l 1
 832 599 l 1
 832 0 l 1
EndSplineSet
EndChar

StartChar: afii10025
Encoding: 1047 1047 180
Width: 1111
VWidth: 0
GlyphClass: 2
Flags: W
PickledData: "(dp1
S'com.typemytype.robofont.layerData'
p2
(dp3
s."
LayerCount: 2
Fore
SplineSet
991 363 m 0
 991 579 842 678 719 706 c 1
 866 750 959 865 959 1026 c 0
 959 1170 864 1366 556 1366 c 0
 371 1366 266 1322 159 1259 c 1
 218 1134 l 1
 307 1187 431 1228 546 1228 c 0
 681 1228 785 1158 785 999 c 0
 785 896 714 770 545 770 c 2
 425 770 l 1
 425 627 l 1
 550 627 l 2
 725 627 817 502 817 377 c 0
 817 203 693 120 527 120 c 0
 393 120 253 174 183 223 c 1
 127 95 l 1
 216 33 365 -18 540 -18 c 0
 832 -18 991 135 991 363 c 0
EndSplineSet
EndChar

StartChar: afii10026
Encoding: 1048 1048 181
Width: 1426
VWidth: 0
GlyphClass: 2
Flags: W
PickledData: "(dp1
S'com.typemytype.robofont.layerData'
p2
(dp3
s."
LayerCount: 2
Fore
SplineSet
308 219 m 1
 308 219 313 509 313 555 c 2
 313 1346 l 1
 160 1346 l 1
 160 0 l 1
 339 0 l 1
 598 377 863 747 1119 1127 c 1
 1119 1127 1114 894 1114 786 c 2
 1114 0 l 1
 1267 0 l 1
 1267 1346 l 1
 1091 1346 l 1
 831 970 566 598 308 219 c 1
EndSplineSet
EndChar

StartChar: afii10027
Encoding: 1049 1049 182
Width: 1426
VWidth: 0
GlyphClass: 2
Flags: W
PickledData: "(dp1
S'com.typemytype.robofont.layerData'
p2
(dp3
s."
LayerCount: 2
Fore
SplineSet
942 1798 m 1
 836 1798 l 1
 836 1711 778 1670 712 1670 c 0
 646 1670 591 1711 591 1798 c 1
 485 1798 l 1
 485 1641 600 1576 712 1576 c 0
 825 1576 942 1641 942 1798 c 1
308 219 m 1
 308 219 313 509 313 555 c 2
 313 1346 l 1
 160 1346 l 1
 160 0 l 1
 339 0 l 1
 598 377 863 747 1119 1127 c 1
 1119 1127 1114 894 1114 786 c 2
 1114 0 l 1
 1267 0 l 1
 1267 1346 l 1
 1091 1346 l 1
 831 970 566 598 308 219 c 1
EndSplineSet
EndChar

StartChar: afii10028
Encoding: 1050 1050 183
Width: 1243
VWidth: 0
GlyphClass: 2
Flags: W
PickledData: "(dp1
S'com.typemytype.robofont.layerData'
p2
(dp3
s."
LayerCount: 2
Fore
SplineSet
334 0 m 1
 334 607 l 1
 895 0 l 1
 1130 0 l 1
 496 672 l 1
 1101 1346 l 1
 881 1346 l 1
 334 739 l 1
 334 1346 l 1
 160 1346 l 1
 160 0 l 1
 334 0 l 1
EndSplineSet
EndChar

StartChar: afii10029
Encoding: 1051 1051 184
Width: 1248
VWidth: 0
GlyphClass: 2
Flags: W
PickledData: "(dp1
S'com.typemytype.robofont.layerData'
p2
(dp3
s."
LayerCount: 2
Fore
SplineSet
914 0 m 1
 1088 0 l 1
 1088 1346 l 1
 224 1346 l 1
 219 1238 212 1109 207 1019 c 0
 160 94 145 144 -60 91 c 1
 -30 -46 l 1
 323 -10 337 123 378 939 c 0
 380 991 389 1148 391 1205 c 1
 914 1205 l 1
 914 0 l 1
EndSplineSet
EndChar

StartChar: afii10030
Encoding: 1052 1052 185
Width: 1648
VWidth: 0
GlyphClass: 2
Flags: W
PickledData: "(dp1
S'com.typemytype.robofont.layerData'
p2
(dp3
s."
LayerCount: 2
Fore
SplineSet
1278 1390 m 1
 832 305 l 1
 391 1390 l 1
 178 1390 l 1
 178 0 l 1
 333 0 l 1
 333 839 l 1
 322 1167 l 1
 753 108 l 1
 911 108 l 1
 1337 1163 l 1
 1330 843 l 1
 1330 0 l 1
 1485 0 l 1
 1485 1390 l 1
 1278 1390 l 1
1278 1390 m 1
 832 305 l 1
 391 1390 l 1
 178 1390 l 1
 178 0 l 1
 333 0 l 1
 333 839 l 1
 322 1167 l 1
 753 108 l 1
 911 108 l 1
 1337 1163 l 1
 1330 843 l 1
 1330 0 l 1
 1485 0 l 1
 1485 1390 l 1
 1278 1390 l 1
1278 1390 m 1
 832 305 l 1
 391 1390 l 1
 178 1390 l 1
 178 0 l 1
 333 0 l 1
 333 839 l 1
 322 1167 l 1
 753 108 l 1
 911 108 l 1
 1337 1163 l 1
 1330 843 l 1
 1330 0 l 1
 1485 0 l 1
 1485 1390 l 1
 1278 1390 l 1
1278 1390 m 1
 832 305 l 1
 391 1390 l 1
 178 1390 l 1
 178 0 l 1
 333 0 l 1
 333 839 l 1
 322 1167 l 1
 753 108 l 1
 911 108 l 1
 1337 1163 l 1
 1330 843 l 1
 1330 0 l 1
 1485 0 l 1
 1485 1390 l 1
 1278 1390 l 1
1278 1390 m 1
 832 305 l 1
 391 1390 l 1
 178 1390 l 1
 178 0 l 1
 333 0 l 1
 333 839 l 1
 322 1167 l 1
 753 108 l 1
 911 108 l 1
 1337 1163 l 1
 1330 843 l 1
 1330 0 l 1
 1485 0 l 1
 1485 1390 l 1
 1278 1390 l 1
1278 1390 m 1
 832 305 l 1
 391 1390 l 1
 178 1390 l 1
 178 0 l 1
 333 0 l 1
 333 839 l 1
 322 1167 l 1
 753 108 l 1
 911 108 l 1
 1337 1163 l 1
 1330 843 l 1
 1330 0 l 1
 1485 0 l 1
 1485 1390 l 1
 1278 1390 l 1
1278 1390 m 1
 832 305 l 1
 391 1390 l 1
 178 1390 l 1
 178 0 l 1
 333 0 l 1
 333 839 l 1
 322 1167 l 1
 753 108 l 1
 911 108 l 1
 1337 1163 l 1
 1330 843 l 1
 1330 0 l 1
 1485 0 l 1
 1485 1390 l 1
 1278 1390 l 1
1278 1390 m 1
 832 305 l 1
 391 1390 l 1
 178 1390 l 1
 178 0 l 1
 333 0 l 1
 333 839 l 1
 322 1167 l 1
 753 108 l 1
 911 108 l 1
 1337 1163 l 1
 1330 843 l 1
 1330 0 l 1
 1485 0 l 1
 1485 1390 l 1
 1278 1390 l 1
1278 1390 m 1
 832 305 l 1
 391 1390 l 1
 178 1390 l 1
 178 0 l 1
 333 0 l 1
 333 839 l 1
 322 1167 l 1
 753 108 l 1
 911 108 l 1
 1337 1163 l 1
 1330 843 l 1
 1330 0 l 1
 1485 0 l 1
 1485 1390 l 1
 1278 1390 l 1
1278 1390 m 1
 832 305 l 1
 391 1390 l 1
 178 1390 l 1
 178 0 l 1
 333 0 l 1
 333 839 l 1
 322 1167 l 1
 753 108 l 1
 911 108 l 1
 1337 1163 l 1
 1330 843 l 1
 1330 0 l 1
 1485 0 l 1
 1485 1390 l 1
 1278 1390 l 1
1278 1390 m 1
 832 305 l 1
 391 1390 l 1
 178 1390 l 1
 178 0 l 1
 333 0 l 1
 333 839 l 1
 322 1167 l 1
 753 108 l 1
 911 108 l 1
 1337 1163 l 1
 1330 843 l 1
 1330 0 l 1
 1485 0 l 1
 1485 1390 l 1
 1278 1390 l 1
1278 1390 m 1
 832 305 l 1
 391 1390 l 1
 178 1390 l 1
 178 0 l 1
 333 0 l 1
 333 839 l 1
 322 1167 l 1
 753 108 l 1
 911 108 l 1
 1337 1163 l 1
 1330 843 l 1
 1330 0 l 1
 1485 0 l 1
 1485 1390 l 1
 1278 1390 l 1
1278 1390 m 1
 832 305 l 1
 391 1390 l 1
 178 1390 l 1
 178 0 l 1
 333 0 l 1
 333 839 l 1
 322 1167 l 1
 753 108 l 1
 911 108 l 1
 1337 1163 l 1
 1330 843 l 1
 1330 0 l 1
 1485 0 l 1
 1485 1390 l 1
 1278 1390 l 1
EndSplineSet
EndChar

StartChar: afii10031
Encoding: 1053 1053 186
Width: 1435
VWidth: 0
GlyphClass: 2
Flags: W
PickledData: "(dp1
S'com.typemytype.robofont.layerData'
p2
(dp3
s."
LayerCount: 2
Fore
SplineSet
356 766 m 1
 356 1390 l 1
 178 1390 l 1
 178 0 l 1
 356 0 l 1
 356 634 l 1
 1079 634 l 1
 1079 0 l 1
 1257 0 l 1
 1257 1390 l 1
 1079 1390 l 1
 1079 766 l 1
 356 766 l 1
EndSplineSet
EndChar

StartChar: afii10032
Encoding: 1054 1054 187
Width: 1507
VWidth: 0
GlyphClass: 2
Flags: W
PickledData: "(dp1
S'com.typemytype.robofont.layerData'
p2
(dp3
s."
LayerCount: 2
Fore
SplineSet
757 120 m 0
 433 120 282 379 282 697 c 0
 282 1028 441 1275 758 1275 c 0
 1075 1275 1231 1027 1231 697 c 0
 1231 379 1081 120 757 120 c 0
1410 697 m 0
 1410 1122 1167 1413 758 1413 c 0
 342 1413 103 1125 103 698 c 0
 103 281 334 -18 757 -18 c 0
 1175 -18 1410 287 1410 697 c 0
757 120 m 0
 433 120 282 379 282 697 c 0
 282 1028 441 1275 758 1275 c 0
 1075 1275 1231 1027 1231 697 c 0
 1231 379 1081 120 757 120 c 0
1410 697 m 0
 1410 1122 1167 1413 758 1413 c 0
 342 1413 103 1125 103 698 c 0
 103 281 334 -18 757 -18 c 0
 1175 -18 1410 287 1410 697 c 0
757 120 m 0
 433 120 282 379 282 697 c 0
 282 1028 441 1275 758 1275 c 0
 1075 1275 1231 1027 1231 697 c 0
 1231 379 1081 120 757 120 c 0
1410 697 m 0
 1410 1122 1167 1413 758 1413 c 0
 342 1413 103 1125 103 698 c 0
 103 281 334 -18 757 -18 c 0
 1175 -18 1410 287 1410 697 c 0
757 120 m 0
 433 120 282 379 282 697 c 0
 282 1028 441 1275 758 1275 c 0
 1075 1275 1231 1027 1231 697 c 0
 1231 379 1081 120 757 120 c 0
1410 697 m 0
 1410 1122 1167 1413 758 1413 c 0
 342 1413 103 1125 103 698 c 0
 103 281 334 -18 757 -18 c 0
 1175 -18 1410 287 1410 697 c 0
757 120 m 0
 433 120 282 379 282 697 c 0
 282 1028 441 1275 758 1275 c 0
 1075 1275 1231 1027 1231 697 c 0
 1231 379 1081 120 757 120 c 0
1410 697 m 0
 1410 1122 1167 1413 758 1413 c 0
 342 1413 103 1125 103 698 c 0
 103 281 334 -18 757 -18 c 0
 1175 -18 1410 287 1410 697 c 0
757 120 m 0
 433 120 282 379 282 697 c 0
 282 1028 441 1275 758 1275 c 0
 1075 1275 1231 1027 1231 697 c 0
 1231 379 1081 120 757 120 c 0
1410 697 m 0
 1410 1122 1167 1413 758 1413 c 0
 342 1413 103 1125 103 698 c 0
 103 281 334 -18 757 -18 c 0
 1175 -18 1410 287 1410 697 c 0
757 120 m 0
 433 120 282 379 282 697 c 0
 282 1028 441 1275 758 1275 c 0
 1075 1275 1231 1027 1231 697 c 0
 1231 379 1081 120 757 120 c 0
1410 697 m 0
 1410 1122 1167 1413 758 1413 c 0
 342 1413 103 1125 103 698 c 0
 103 281 334 -18 757 -18 c 0
 1175 -18 1410 287 1410 697 c 0
757 120 m 0
 433 120 282 379 282 697 c 0
 282 1028 441 1275 758 1275 c 0
 1075 1275 1231 1027 1231 697 c 0
 1231 379 1081 120 757 120 c 0
1410 697 m 0
 1410 1122 1167 1413 758 1413 c 0
 342 1413 103 1125 103 698 c 0
 103 281 334 -18 757 -18 c 0
 1175 -18 1410 287 1410 697 c 0
757 120 m 0
 433 120 282 379 282 697 c 0
 282 1028 441 1275 758 1275 c 0
 1075 1275 1231 1027 1231 697 c 0
 1231 379 1081 120 757 120 c 0
1410 697 m 0
 1410 1122 1167 1413 758 1413 c 0
 342 1413 103 1125 103 698 c 0
 103 281 334 -18 757 -18 c 0
 1175 -18 1410 287 1410 697 c 0
757 120 m 0
 433 120 282 379 282 697 c 0
 282 1028 441 1275 758 1275 c 0
 1075 1275 1231 1027 1231 697 c 0
 1231 379 1081 120 757 120 c 0
1410 697 m 0
 1410 1122 1167 1413 758 1413 c 0
 342 1413 103 1125 103 698 c 0
 103 281 334 -18 757 -18 c 0
 1175 -18 1410 287 1410 697 c 0
757 120 m 0
 433 120 282 379 282 697 c 0
 282 1028 441 1275 758 1275 c 0
 1075 1275 1231 1027 1231 697 c 0
 1231 379 1081 120 757 120 c 0
1410 697 m 0
 1410 1122 1167 1413 758 1413 c 0
 342 1413 103 1125 103 698 c 0
 103 281 334 -18 757 -18 c 0
 1175 -18 1410 287 1410 697 c 0
757 120 m 0
 433 120 282 379 282 697 c 0
 282 1028 441 1275 758 1275 c 0
 1075 1275 1231 1027 1231 697 c 0
 1231 379 1081 120 757 120 c 0
1410 697 m 0
 1410 1122 1167 1413 758 1413 c 0
 342 1413 103 1125 103 698 c 0
 103 281 334 -18 757 -18 c 0
 1175 -18 1410 287 1410 697 c 0
757 120 m 0
 433 120 282 379 282 697 c 0
 282 1028 441 1275 758 1275 c 0
 1075 1275 1231 1027 1231 697 c 0
 1231 379 1081 120 757 120 c 0
1410 697 m 0
 1410 1122 1167 1413 758 1413 c 0
 342 1413 103 1125 103 698 c 0
 103 281 334 -18 757 -18 c 0
 1175 -18 1410 287 1410 697 c 0
EndSplineSet
EndChar

StartChar: afii10033
Encoding: 1055 1055 188
Width: 1368
VWidth: 0
GlyphClass: 2
Flags: W
PickledData: "(dp1
S'com.typemytype.robofont.layerData'
p2
(dp3
s."
LayerCount: 2
Fore
SplineSet
334 1208 m 1
 1034 1208 l 1
 1034 0 l 1
 1208 0 l 1
 1208 1346 l 1
 160 1346 l 1
 160 0 l 1
 334 0 l 1
 334 1208 l 1
EndSplineSet
EndChar

StartChar: afii10034
Encoding: 1056 1056 189
Width: 1166
VWidth: 0
GlyphClass: 2
Flags: W
PickledData: "(dp1
S'com.typemytype.robofont.layerData'
p2
(dp3
s."
LayerCount: 2
Fore
SplineSet
615 744 m 0
 552 744 357 746 357 746 c 1
 357 1253 l 1
 624 1253 l 2
 795 1253 907 1182 907 1020 c 0
 907 840 839 744 615 744 c 0
178 0 m 1
 357 0 l 1
 357 616 l 1
 427 612 534 613 607 613 c 0
 951 613 1086 770 1086 1023 c 0
 1086 1268 891 1390 628 1390 c 2
 178 1390 l 1
 178 0 l 1
EndSplineSet
EndChar

StartChar: afii10035
Encoding: 1057 1057 190
Width: 1183
VWidth: 0
GlyphClass: 2
Flags: W
PickledData: "(dp1
S'com.typemytype.robofont.layerData'
p2
(dp3
s."
LayerCount: 2
Fore
SplineSet
743 -18 m 1
 914 -18 1066 28 1131 68 c 1
 1105 196 l 1
 1006 149 896 120 779 120 c 0
 441 120 275 401 275 719 c 0
 275 1038 446 1275 763 1275 c 0
 885 1275 1006 1243 1097 1189 c 1
 1151 1313 l 1
 1050 1377 923 1413 761 1413 c 0
 349 1413 103 1130 103 725 c 0
 103 310 349 -12 743 -18 c 1
743 -18 m 1
 914 -18 1066 28 1131 68 c 1
 1105 196 l 1
 1006 149 896 120 779 120 c 0
 441 120 275 401 275 719 c 0
 275 1038 446 1275 763 1275 c 0
 885 1275 1006 1243 1097 1189 c 1
 1151 1313 l 1
 1050 1377 923 1413 761 1413 c 0
 349 1413 103 1130 103 725 c 0
 103 310 349 -12 743 -18 c 1
743 -18 m 1
 914 -18 1066 28 1131 68 c 1
 1105 196 l 1
 1006 149 896 120 779 120 c 0
 441 120 275 401 275 719 c 0
 275 1038 446 1275 763 1275 c 0
 885 1275 1006 1243 1097 1189 c 1
 1151 1313 l 1
 1050 1377 923 1413 761 1413 c 0
 349 1413 103 1130 103 725 c 0
 103 310 349 -12 743 -18 c 1
743 -18 m 1
 914 -18 1066 28 1131 68 c 1
 1105 196 l 1
 1006 149 896 120 779 120 c 0
 441 120 275 401 275 719 c 0
 275 1038 446 1275 763 1275 c 0
 885 1275 1006 1243 1097 1189 c 1
 1151 1313 l 1
 1050 1377 923 1413 761 1413 c 0
 349 1413 103 1130 103 725 c 0
 103 310 349 -12 743 -18 c 1
743 -18 m 1
 914 -18 1066 28 1131 68 c 1
 1105 196 l 1
 1006 149 896 120 779 120 c 0
 441 120 275 401 275 719 c 0
 275 1038 446 1275 763 1275 c 0
 885 1275 1006 1243 1097 1189 c 1
 1151 1313 l 1
 1050 1377 923 1413 761 1413 c 0
 349 1413 103 1130 103 725 c 0
 103 310 349 -12 743 -18 c 1
743 -18 m 1
 914 -18 1066 28 1131 68 c 1
 1105 196 l 1
 1006 149 896 120 779 120 c 0
 441 120 275 401 275 719 c 0
 275 1038 446 1275 763 1275 c 0
 885 1275 1006 1243 1097 1189 c 1
 1151 1313 l 1
 1050 1377 923 1413 761 1413 c 0
 349 1413 103 1130 103 725 c 0
 103 310 349 -12 743 -18 c 1
743 -18 m 1
 914 -18 1066 28 1131 68 c 1
 1105 196 l 1
 1006 149 896 120 779 120 c 0
 441 120 275 401 275 719 c 0
 275 1038 446 1275 763 1275 c 0
 885 1275 1006 1243 1097 1189 c 1
 1151 1313 l 1
 1050 1377 923 1413 761 1413 c 0
 349 1413 103 1130 103 725 c 0
 103 310 349 -12 743 -18 c 1
743 -18 m 1
 914 -18 1066 28 1131 68 c 1
 1105 196 l 1
 1006 149 896 120 779 120 c 0
 441 120 275 401 275 719 c 0
 275 1038 446 1275 763 1275 c 0
 885 1275 1006 1243 1097 1189 c 1
 1151 1313 l 1
 1050 1377 923 1413 761 1413 c 0
 349 1413 103 1130 103 725 c 0
 103 310 349 -12 743 -18 c 1
743 -18 m 1
 914 -18 1066 28 1131 68 c 1
 1105 196 l 1
 1006 149 896 120 779 120 c 0
 441 120 275 401 275 719 c 0
 275 1038 446 1275 763 1275 c 0
 885 1275 1006 1243 1097 1189 c 1
 1151 1313 l 1
 1050 1377 923 1413 761 1413 c 0
 349 1413 103 1130 103 725 c 0
 103 310 349 -12 743 -18 c 1
743 -18 m 1
 914 -18 1066 28 1131 68 c 1
 1105 196 l 1
 1006 149 896 120 779 120 c 0
 441 120 275 401 275 719 c 0
 275 1038 446 1275 763 1275 c 0
 885 1275 1006 1243 1097 1189 c 1
 1151 1313 l 1
 1050 1377 923 1413 761 1413 c 0
 349 1413 103 1130 103 725 c 0
 103 310 349 -12 743 -18 c 1
743 -18 m 1
 914 -18 1066 28 1131 68 c 1
 1105 196 l 1
 1006 149 896 120 779 120 c 0
 441 120 275 401 275 719 c 0
 275 1038 446 1275 763 1275 c 0
 885 1275 1006 1243 1097 1189 c 1
 1151 1313 l 1
 1050 1377 923 1413 761 1413 c 0
 349 1413 103 1130 103 725 c 0
 103 310 349 -12 743 -18 c 1
743 -18 m 1
 914 -18 1066 28 1131 68 c 1
 1105 196 l 1
 1006 149 896 120 779 120 c 0
 441 120 275 401 275 719 c 0
 275 1038 446 1275 763 1275 c 0
 885 1275 1006 1243 1097 1189 c 1
 1151 1313 l 1
 1050 1377 923 1413 761 1413 c 0
 349 1413 103 1130 103 725 c 0
 103 310 349 -12 743 -18 c 1
EndSplineSet
EndChar

StartChar: afii10036
Encoding: 1058 1058 191
Width: 1088
VWidth: 0
GlyphClass: 2
Flags: W
PickledData: "(dp1
S'com.typemytype.robofont.layerData'
p2
(dp3
s."
LayerCount: 2
Fore
SplineSet
1049 1390 m 1
 39 1390 l 1
 39 1251 l 1
 454 1251 l 1
 454 0 l 1
 633 0 l 1
 633 1251 l 1
 1049 1251 l 1
 1049 1390 l 1
1049 1390 m 1
 39 1390 l 1
 39 1251 l 1
 454 1251 l 1
 454 0 l 1
 633 0 l 1
 633 1251 l 1
 1049 1251 l 1
 1049 1390 l 1
EndSplineSet
EndChar

StartChar: afii10037
Encoding: 1059 1059 192
Width: 1248
VWidth: 0
GlyphClass: 2
Flags: W
PickledData: "(dp1
S'com.typemytype.robofont.layerData'
p2
(dp3
s."
LayerCount: 2
Fore
SplineSet
255 1346 m 1
 64 1346 l 1
 567 424 l 1
 390 0 l 1
 577 0 l 1
 1217 1346 l 1
 1029 1346 l 1
 670 580 l 1
 255 1346 l 1
EndSplineSet
EndChar

StartChar: afii10038
Encoding: 1060 1060 193
Width: 1566
VWidth: 0
GlyphClass: 2
Flags: W
PickledData: "(dp1
S'com.typemytype.robofont.layerData'
p2
(dp3
s."
LayerCount: 2
Fore
SplineSet
850 1098 m 1
 1165 1069 1305 911 1305 678 c 0
 1305 445 1165 287 850 258 c 1
 850 1098 l 1
702 259 m 1
 401 291 261 445 261 678 c 0
 261 910 401 1065 702 1097 c 1
 702 259 l 1
850 0 m 1
 850 115 l 1
 1238 141 1477 337 1477 678 c 0
 1477 1019 1238 1215 850 1241 c 1
 850 1361 l 1
 702 1361 l 1
 702 1239 l 1
 309 1205 89 1000 89 678 c 0
 89 356 309 150 702 116 c 1
 702 0 l 1
 850 0 l 1
EndSplineSet
EndChar

StartChar: afii10039
Encoding: 1061 1061 194
Width: 1196
VWidth: 0
GlyphClass: 2
Flags: W
PickledData: "(dp1
S'com.typemytype.robofont.layerData'
p2
(dp3
s."
LayerCount: 2
Fore
SplineSet
696 709 m 1
 1161 1390 l 1
 975 1390 l 1
 603 846 l 1
 232 1390 l 1
 46 1390 l 1
 510 709 l 1
 46 0 l 1
 232 0 l 1
 603 572 l 1
 975 0 l 1
 1161 0 l 1
 696 709 l 1
EndSplineSet
EndChar

StartChar: afii10040
Encoding: 1062 1062 195
Width: 1386
VWidth: 0
GlyphClass: 2
Flags: W
PickledData: "(dp1
S'com.typemytype.robofont.layerData'
p2
(dp3
s."
LayerCount: 2
Fore
SplineSet
1280 -275 m 1
 1280 141 l 1
 1141 141 l 1
 1141 1346 l 1
 967 1346 l 1
 967 138 l 1
 334 138 l 1
 334 1346 l 1
 160 1346 l 1
 160 0 l 1
 1120 0 l 1
 1120 -275 l 1
 1280 -275 l 1
EndSplineSet
EndChar

StartChar: afii10041
Encoding: 1063 1063 196
Width: 1139
VWidth: 0
GlyphClass: 2
Flags: W
PickledData: "(dp1
S'com.typemytype.robofont.layerData'
p2
(dp3
s."
LayerCount: 2
Fore
SplineSet
1017 0 m 1
 1017 1346 l 1
 843 1346 l 1
 843 612 l 1
 533 612 l 2
 365 612 283 649 283 866 c 2
 283 1346 l 1
 109 1346 l 1
 109 834 l 2
 109 595 247 461 500 461 c 2
 843 461 l 1
 843 0 l 1
 1017 0 l 1
EndSplineSet
EndChar

StartChar: afii10042
Encoding: 1064 1064 197
Width: 1525
VWidth: 0
GlyphClass: 2
Flags: W
PickledData: "(dp1
S'com.typemytype.robofont.layerData'
p2
(dp3
s."
LayerCount: 2
Fore
SplineSet
682 141 m 1
 298 141 l 1
 298 1346 l 1
 136 1346 l 1
 136 0 l 1
 1390 0 l 1
 1390 1346 l 1
 1228 1346 l 1
 1228 141 l 1
 843 141 l 1
 843 1346 l 1
 682 1346 l 1
 682 141 l 1
EndSplineSet
EndChar

StartChar: afii10043
Encoding: 1065 1065 198
Width: 1591
VWidth: 0
GlyphClass: 2
Flags: W
PickledData: "(dp1
S'com.typemytype.robofont.layerData'
p2
(dp3
s."
LayerCount: 2
Fore
SplineSet
706 141 m 1
 322 141 l 1
 322 1346 l 1
 160 1346 l 1
 160 0 l 1
 1356 0 l 1
 1356 -275 l 1
 1515 -275 l 1
 1515 141 l 1
 1414 141 l 1
 1414 1346 l 1
 1252 1346 l 1
 1252 141 l 1
 867 141 l 1
 867 1346 l 1
 706 1346 l 1
 706 141 l 1
EndSplineSet
EndChar

StartChar: afii10044
Encoding: 1066 1066 199
Width: 1395
VWidth: 0
GlyphClass: 2
Flags: W
PickledData: "(dp1
S'com.typemytype.robofont.layerData'
p2
(dp3
s."
LayerCount: 2
Fore
SplineSet
623 633 m 1
 833 633 l 2
 1062 633 1137 539 1137 392 c 0
 1137 232 1076 142 836 142 c 2
 623 142 l 1
 623 633 l 1
623 1346 m 1
 128 1346 l 1
 128 1205 l 1
 448 1205 l 1
 448 0 l 1
 817 0 l 2
 1145 0 1312 126 1312 389 c 0
 1312 652 1128 773 814 773 c 2
 623 773 l 1
 623 1346 l 1
EndSplineSet
EndChar

StartChar: afii10045
Encoding: 1067 1067 200
Width: 1032
VWidth: 0
GlyphClass: 2
Flags: W
PickledData: "(dp1
S'com.typemytype.robofont.layerData'
p2
(dp3
s."
LayerCount: 2
Fore
SplineSet
324 633 m 1
 453 633 l 2
 692 633 774 537 774 383 c 0
 774 223 689 141 459 141 c 2
 324 141 l 1
 324 633 l 1
324 1346 m 1
 149 1346 l 1
 149 0 l 1
 441 0 l 2
 781 0 949 149 949 387 c 0
 949 634 776 773 454 773 c 2
 324 773 l 1
 324 1346 l 1
EndSplineSet
EndChar

StartChar: afii10046
Encoding: 1068 1068 201
Width: 1431
VWidth: 0
GlyphClass: 2
Flags: W
PickledData: "(dp1
S'com.typemytype.robofont.layerData'
p2
(dp3
s."
LayerCount: 2
Fore
SplineSet
149 1346 m 1
 149 0 l 1
 324 0 l 1
 324 1346 l 1
 149 1346 l 1
723 633 m 1
 874 633 l 2
 1104 633 1173 546 1173 392 c 0
 1173 232 1111 141 871 141 c 2
 723 141 l 1
 723 633 l 1
723 1346 m 1
 548 1346 l 1
 548 0 l 1
 864 0 l 2
 1187 0 1348 158 1348 396 c 0
 1348 643 1181 773 862 773 c 2
 723 773 l 1
 723 1346 l 1
EndSplineSet
EndChar

StartChar: afii10047
Encoding: 1069 1069 202
Width: 1275
VWidth: 0
GlyphClass: 2
Flags: W
PickledData: "(dp1
S'com.typemytype.robofont.layerData'
p2
(dp3
s."
LayerCount: 2
Fore
SplineSet
519 -21 m 0
 939 -21 1159 287 1159 689 c 0
 1159 1074 943 1388 521 1388 c 0
 341 1388 208 1349 116 1269 c 1
 168 1138 l 1
 243 1198 364 1249 500 1249 c 0
 835 1249 970 1011 986 744 c 1
 357 744 l 1
 357 604 l 1
 984 604 l 1
 958 336 802 117 511 117 c 0
 372 117 245 168 169 226 c 1
 111 103 l 1
 205 27 340 -21 519 -21 c 0
EndSplineSet
EndChar

StartChar: afii10048
Encoding: 1070 1070 203
Width: 1885
VWidth: 0
GlyphClass: 2
Flags: W
PickledData: "(dp1
S'com.typemytype.robofont.layerData'
p2
(dp3
s."
LayerCount: 2
Fore
SplineSet
1178 117 m 0
 896 117 753 382 753 679 c 0
 753 977 889 1249 1169 1249 c 0
 1458 1249 1597 969 1597 681 c 0
 1597 378 1459 117 1178 117 c 0
1176 -21 m 0
 1558 -21 1769 293 1769 675 c 0
 1769 1082 1549 1388 1168 1388 c 0
 816 1388 614 1129 585 762 c 1
 298 762 l 1
 298 1360 l 1
 136 1360 l 1
 136 0 l 1
 298 0 l 1
 298 624 l 1
 582 624 l 1
 608 268 816 -21 1176 -21 c 0
EndSplineSet
EndChar

StartChar: afii10049
Encoding: 1071 1071 204
Width: 1262
VWidth: 0
GlyphClass: 2
Flags: W
PickledData: "(dp1
S'com.typemytype.robofont.layerData'
p2
(dp3
s."
LayerCount: 2
Fore
SplineSet
978 706 m 1
 693 706 l 2
 437 706 366 807 366 961 c 0
 366 1121 463 1205 693 1205 c 2
 978 1205 l 1
 978 706 l 1
328 0 m 1
 423 197 507 375 602 572 c 1
 637 569 685 566 823 566 c 2
 978 566 l 1
 978 0 l 1
 1152 0 l 1
 1152 1346 l 1
 710 1346 l 2
 374 1346 192 1217 192 954 c 0
 192 779 286 660 440 602 c 1
 382 486 183 106 133 0 c 1
 328 0 l 1
EndSplineSet
EndChar

StartChar: afii10051
Encoding: 1026 1026 205
Width: 1088
VWidth: 0
GlyphClass: 2
Flags: W
PickledData: "(dp1
S'com.typemytype.robofont.layerData'
p2
(dp3
s."
LayerCount: 2
Fore
SplineSet
1049 1390 m 1
 39 1390 l 1
 39 1251 l 1
 454 1251 l 1
 454 0 l 1
 633 0 l 1
 633 1251 l 1
 1049 1251 l 1
 1049 1390 l 1
1049 1390 m 1
 39 1390 l 1
 39 1251 l 1
 454 1251 l 1
 454 0 l 1
 633 0 l 1
 633 1251 l 1
 1049 1251 l 1
 1049 1390 l 1
EndSplineSet
EndChar

StartChar: afii10052
Encoding: 1027 1027 206
Width: 1047
VWidth: 0
GlyphClass: 2
Flags: W
PickledData: "(dp1
S'com.typemytype.robofont.layerData'
p2
(dp3
s."
LayerCount: 2
Fore
SplineSet
995 1205 m 1
 1008 1346 l 1
 160 1346 l 1
 160 0 l 1
 334 0 l 1
 334 1205 l 1
 995 1205 l 1
EndSplineSet
EndChar

StartChar: afii10053
Encoding: 1028 1028 207
Width: 1268
VWidth: 0
GlyphClass: 2
Flags: W
PickledData: "(dp1
S'com.typemytype.robofont.layerData'
p2
(dp3
s."
LayerCount: 2
Fore
SplineSet
754 -21 m 0
 933 -21 1068 27 1162 103 c 1
 1104 226 l 1
 1028 168 902 117 763 117 c 0
 472 117 315 336 289 604 c 1
 916 604 l 1
 916 744 l 1
 288 744 l 1
 304 1011 438 1249 773 1249 c 0
 909 1249 1030 1198 1105 1138 c 1
 1158 1269 l 1
 1068 1349 937 1388 760 1388 c 0
 332 1388 114 1074 114 689 c 0
 114 287 334 -21 754 -21 c 0
EndSplineSet
EndChar

StartChar: afii10054
Encoding: 1029 1029 208
Width: 1200
VWidth: 0
GlyphClass: 2
Flags: W
PickledData: "(dp1
S'com.typemytype.robofont.layerData'
p2
(dp3
s."
LayerCount: 2
Fore
SplineSet
607 -20 m 0
 885 -20 1082 110 1082 393 c 0
 1082 615 947 714 743 763 c 2
 487 824 l 2
 356 856 288 914 288 1020 c 0
 288 1173 406 1228 623 1228 c 0
 770 1228 884 1201 979 1155 c 1
 1025 1278 l 1
 932 1336 785 1366 618 1366 c 0
 320 1366 121 1274 121 1009 c 0
 121 829 241 729 428 682 c 2
 695 614 l 2
 868 570 915 497 915 388 c 0
 915 204 810 118 617 118 c 0
 443 118 289 162 167 222 c 1
 119 91 l 1
 202 40 370 -20 607 -20 c 0
EndSplineSet
EndChar

StartChar: afii10055
Encoding: 1030 1030 209
Width: 432
VWidth: 0
GlyphClass: 2
Flags: W
PickledData: "(dp1
S'com.typemytype.robofont.layerData'
p2
(dp3
s."
LayerCount: 2
Fore
SplineSet
136 0 m 1
 297 0 l 1
 297 1362 l 1
 136 1362 l 1
 136 0 l 1
EndSplineSet
EndChar

StartChar: afii10056
Encoding: 1031 1031 210
Width: 432
VWidth: 0
GlyphClass: 2
Flags: W
PickledData: "(dp1
S'com.typemytype.robofont.layerData'
p2
(dp3
s."
LayerCount: 2
Fore
SplineSet
323.5 1576 m 1
 464.5 1576 l 1
 464.5 1769 l 1
 323.5 1769 l 1
 323.5 1576 l 1
-31.5 1576 m 1
 109.5 1576 l 1
 109.5 1769 l 1
 -31.5 1769 l 1
 -31.5 1576 l 1
136 0 m 1
 297 0 l 1
 297 1362 l 1
 136 1362 l 1
 136 0 l 1
EndSplineSet
EndChar

StartChar: afii10057
Encoding: 1032 1032 211
Width: 632
VWidth: 0
GlyphClass: 2
Flags: W
PickledData: "(dp1
S'com.typemytype.robofont.layerData'
p2
(dp3
s."
LayerCount: 2
Fore
SplineSet
100 -195 m 1
 132 -195 l 2
 452 -195 498 -61 498 219 c 2
 498 1346 l 1
 323 1346 l 1
 323 186 l 2
 323 51 314 -45 148 -45 c 2
 81 -45 l 1
 100 -195 l 1
EndSplineSet
EndChar

StartChar: afii10058
Encoding: 1033 1033 212
Width: 1755
VWidth: 0
GlyphClass: 2
Flags: W
PickledData: "(dp1
S'com.typemytype.robofont.layerData'
p2
(dp3
s."
LayerCount: 2
Fore
SplineSet
992 652 m 1
 1227 652 l 2
 1381 652 1479 552 1479 392 c 0
 1479 232 1377 141 1227 141 c 2
 992 141 l 1
 992 652 l 1
78 -24 m 1
 104 -24 l 2
 424 -24 468 114 468 394 c 2
 468 1205 l 1
 818 1205 l 1
 818 0 l 1
 1227 0 l 2
 1485 0 1653 126 1653 389 c 0
 1653 676 1478 793 1227 793 c 2
 992 793 l 1
 992 1346 l 1
 294 1346 l 1
 294 349 l 2
 294 214 285 119 120 119 c 2
 78 119 l 1
 78 -24 l 1
EndSplineSet
EndChar

StartChar: afii10059
Encoding: 1034 1034 213
Width: 1853
VWidth: 0
GlyphClass: 2
Flags: W
PickledData: "(dp1
S'com.typemytype.robofont.layerData'
p2
(dp3
s."
LayerCount: 2
Fore
SplineSet
334 630 m 1
 946 630 l 1
 946 0 l 1
 1334 0 l 2
 1664 0 1792 155 1792 393 c 0
 1792 628 1664 779 1340 779 c 2
 1120 779 l 1
 1120 1346 l 1
 946 1346 l 1
 946 768 l 1
 334 768 l 1
 334 1346 l 1
 160 1346 l 1
 160 0 l 1
 334 0 l 1
 334 630 l 1
1335 653 m 2
 1527 653 1627 573 1627 392 c 0
 1627 212 1529 129 1343 129 c 2
 1120 129 l 1
 1120 653 l 1
 1335 653 l 2
EndSplineSet
EndChar

StartChar: afii10060
Encoding: 1035 1035 214
Width: 1088
VWidth: 0
GlyphClass: 2
Flags: W
PickledData: "(dp1
S'com.typemytype.robofont.layerData'
p2
(dp3
s."
LayerCount: 2
Fore
SplineSet
1049 1390 m 1
 39 1390 l 1
 39 1251 l 1
 454 1251 l 1
 454 0 l 1
 633 0 l 1
 633 1251 l 1
 1049 1251 l 1
 1049 1390 l 1
1049 1390 m 1
 39 1390 l 1
 39 1251 l 1
 454 1251 l 1
 454 0 l 1
 633 0 l 1
 633 1251 l 1
 1049 1251 l 1
 1049 1390 l 1
EndSplineSet
EndChar

StartChar: afii10061
Encoding: 1036 1036 215
Width: 1243
VWidth: 0
GlyphClass: 2
Flags: W
PickledData: "(dp1
S'com.typemytype.robofont.layerData'
p2
(dp3
s."
LayerCount: 2
Fore
SplineSet
593 1576 m 1
 697 1576 l 1
 993 1929 l 1
 763 1929 l 1
 593 1576 l 1
334 0 m 1
 334 607 l 1
 895 0 l 1
 1130 0 l 1
 496 672 l 1
 1101 1346 l 1
 881 1346 l 1
 334 739 l 1
 334 1346 l 1
 160 1346 l 1
 160 0 l 1
 334 0 l 1
EndSplineSet
EndChar

StartChar: afii10062
Encoding: 1038 1038 216
Width: 1248
VWidth: 0
GlyphClass: 2
Flags: W
PickledData: "(dp1
S'com.typemytype.robofont.layerData'
p2
(dp3
s."
LayerCount: 2
Fore
SplineSet
869 1798 m 1
 763 1798 l 1
 763 1711 705 1670 639 1670 c 0
 573 1670 518 1711 518 1798 c 1
 412 1798 l 1
 412 1641 527 1576 639 1576 c 0
 752 1576 869 1641 869 1798 c 1
255 1346 m 1
 64 1346 l 1
 567 424 l 1
 390 0 l 1
 577 0 l 1
 1217 1346 l 1
 1029 1346 l 1
 670 580 l 1
 255 1346 l 1
EndSplineSet
EndChar

StartChar: afii10065
Encoding: 1072 1072 217
Width: 1054
VWidth: 0
GlyphClass: 2
Flags: W
PickledData: "(dp1
S'com.typemytype.robofont.layerData'
p2
(dp3
s."
LayerCount: 2
Fore
SplineSet
461 102 m 0
 378 102 301 152 301 262 c 0
 301 402 390 447 651 478 c 0
 674 481 767 490 767 490 c 1
 767 251 l 1
 735.5 165 582 102 461 102 c 0
438 -21 m 0
 572.1 -21 712.501 21.5303 774 112 c 1
 801 0 l 1
 942 0 l 1
 942 661 l 2
 942 927 794 1019 550 1019 c 0
 421 1019 266 983 180 935 c 1
 187 916 219 831 227 812 c 1
 321 858 458 886 554 886 c 0
 697 886 767 823 767 685 c 2
 767 597 l 1
 767 597 638 587 592 583 c 0
 307 562 127 478 127 263 c 0
 127 79 262 -21 438 -21 c 0
461 102 m 0
 378 102 301 152 301 262 c 0
 301 402 390 447 651 478 c 0
 674 481 767 490 767 490 c 1
 767 251 l 1
 735.5 165 582 102 461 102 c 0
438 -21 m 0
 572.1 -21 712.501 21.5303 774 112 c 1
 801 0 l 1
 942 0 l 1
 942 661 l 2
 942 927 794 1019 550 1019 c 0
 421 1019 266 983 180 935 c 1
 187 916 219 831 227 812 c 1
 321 858 458 886 554 886 c 0
 697 886 767 823 767 685 c 2
 767 597 l 1
 767 597 638 587 592 583 c 0
 307 562 127 478 127 263 c 0
 127 79 262 -21 438 -21 c 0
461 102 m 0
 378 102 301 152 301 262 c 0
 301 402 390 447 651 478 c 0
 674 481 767 490 767 490 c 1
 767 251 l 1
 735.5 165 582 102 461 102 c 0
438 -21 m 0
 572.1 -21 712.501 21.5303 774 112 c 1
 801 0 l 1
 942 0 l 1
 942 661 l 2
 942 927 794 1019 550 1019 c 0
 421 1019 266 983 180 935 c 1
 187 916 219 831 227 812 c 1
 321 858 458 886 554 886 c 0
 697 886 767 823 767 685 c 2
 767 597 l 1
 767 597 638 587 592 583 c 0
 307 562 127 478 127 263 c 0
 127 79 262 -21 438 -21 c 0
461 102 m 0
 378 102 301 152 301 262 c 0
 301 402 390 447 651 478 c 0
 674 481 767 490 767 490 c 1
 767 251 l 1
 735.5 165 582 102 461 102 c 0
438 -21 m 0
 572.1 -21 712.501 21.5303 774 112 c 1
 801 0 l 1
 942 0 l 1
 942 661 l 2
 942 927 794 1019 550 1019 c 0
 421 1019 266 983 180 935 c 1
 187 916 219 831 227 812 c 1
 321 858 458 886 554 886 c 0
 697 886 767 823 767 685 c 2
 767 597 l 1
 767 597 638 587 592 583 c 0
 307 562 127 478 127 263 c 0
 127 79 262 -21 438 -21 c 0
461 102 m 0
 378 102 301 152 301 262 c 0
 301 402 390 447 651 478 c 0
 674 481 767 490 767 490 c 1
 767 251 l 1
 735.5 165 582 102 461 102 c 0
438 -21 m 0
 572.1 -21 712.501 21.5303 774 112 c 1
 801 0 l 1
 942 0 l 1
 942 661 l 2
 942 927 794 1019 550 1019 c 0
 421 1019 266 983 180 935 c 1
 187 916 219 831 227 812 c 1
 321 858 458 886 554 886 c 0
 697 886 767 823 767 685 c 2
 767 597 l 1
 767 597 638 587 592 583 c 0
 307 562 127 478 127 263 c 0
 127 79 262 -21 438 -21 c 0
461 102 m 0
 378 102 301 152 301 262 c 0
 301 402 390 447 651 478 c 0
 674 481 767 490 767 490 c 1
 767 251 l 1
 735.5 165 582 102 461 102 c 0
438 -21 m 0
 572.1 -21 712.501 21.5303 774 112 c 1
 801 0 l 1
 942 0 l 1
 942 661 l 2
 942 927 794 1019 550 1019 c 0
 421 1019 266 983 180 935 c 1
 187 916 219 831 227 812 c 1
 321 858 458 886 554 886 c 0
 697 886 767 823 767 685 c 2
 767 597 l 1
 767 597 638 587 592 583 c 0
 307 562 127 478 127 263 c 0
 127 79 262 -21 438 -21 c 0
461 102 m 0
 378 102 301 152 301 262 c 0
 301 402 390 447 651 478 c 0
 674 481 767 490 767 490 c 1
 767 251 l 1
 735.5 165 582 102 461 102 c 0
438 -21 m 0
 572.1 -21 712.501 21.5303 774 112 c 1
 801 0 l 1
 942 0 l 1
 942 661 l 2
 942 927 794 1019 550 1019 c 0
 421 1019 266 983 180 935 c 1
 187 916 219 831 227 812 c 1
 321 858 458 886 554 886 c 0
 697 886 767 823 767 685 c 2
 767 597 l 1
 767 597 638 587 592 583 c 0
 307 562 127 478 127 263 c 0
 127 79 262 -21 438 -21 c 0
461 102 m 0
 378 102 301 152 301 262 c 0
 301 402 390 447 651 478 c 0
 674 481 767 490 767 490 c 1
 767 251 l 1
 735.5 165 582 102 461 102 c 0
438 -21 m 0
 572.1 -21 712.501 21.5303 774 112 c 1
 801 0 l 1
 942 0 l 1
 942 661 l 2
 942 927 794 1019 550 1019 c 0
 421 1019 266 983 180 935 c 1
 187 916 219 831 227 812 c 1
 321 858 458 886 554 886 c 0
 697 886 767 823 767 685 c 2
 767 597 l 1
 767 597 638 587 592 583 c 0
 307 562 127 478 127 263 c 0
 127 79 262 -21 438 -21 c 0
461 102 m 0
 378 102 301 152 301 262 c 0
 301 402 390 447 651 478 c 0
 674 481 767 490 767 490 c 1
 767 251 l 1
 735.5 165 582 102 461 102 c 0
438 -21 m 0
 572.1 -21 712.501 21.5303 774 112 c 1
 801 0 l 1
 942 0 l 1
 942 661 l 2
 942 927 794 1019 550 1019 c 0
 421 1019 266 983 180 935 c 1
 187 916 219 831 227 812 c 1
 321 858 458 886 554 886 c 0
 697 886 767 823 767 685 c 2
 767 597 l 1
 767 597 638 587 592 583 c 0
 307 562 127 478 127 263 c 0
 127 79 262 -21 438 -21 c 0
461 102 m 0
 378 102 301 152 301 262 c 0
 301 402 390 447 651 478 c 0
 674 481 767 490 767 490 c 1
 767 251 l 1
 735.5 165 582 102 461 102 c 0
438 -21 m 0
 572.1 -21 712.501 21.5303 774 112 c 1
 801 0 l 1
 942 0 l 1
 942 661 l 2
 942 927 794 1019 550 1019 c 0
 421 1019 266 983 180 935 c 1
 187 916 219 831 227 812 c 1
 321 858 458 886 554 886 c 0
 697 886 767 823 767 685 c 2
 767 597 l 1
 767 597 638 587 592 583 c 0
 307 562 127 478 127 263 c 0
 127 79 262 -21 438 -21 c 0
461 102 m 0
 378 102 301 152 301 262 c 0
 301 402 390 447 651 478 c 0
 674 481 767 490 767 490 c 1
 767 251 l 1
 735.5 165 582 102 461 102 c 0
438 -21 m 0
 572.1 -21 712.501 21.5303 774 112 c 1
 801 0 l 1
 942 0 l 1
 942 661 l 2
 942 927 794 1019 550 1019 c 0
 421 1019 266 983 180 935 c 1
 187 916 219 831 227 812 c 1
 321 858 458 886 554 886 c 0
 697 886 767 823 767 685 c 2
 767 597 l 1
 767 597 638 587 592 583 c 0
 307 562 127 478 127 263 c 0
 127 79 262 -21 438 -21 c 0
461 102 m 0
 378 102 301 152 301 262 c 0
 301 402 390 447 651 478 c 0
 674 481 767 490 767 490 c 1
 767 251 l 1
 735.5 165 582 102 461 102 c 0
438 -21 m 0
 572.1 -21 712.501 21.5303 774 112 c 1
 801 0 l 1
 942 0 l 1
 942 661 l 2
 942 927 794 1019 550 1019 c 0
 421 1019 266 983 180 935 c 1
 187 916 219 831 227 812 c 1
 321 858 458 886 554 886 c 0
 697 886 767 823 767 685 c 2
 767 597 l 1
 767 597 638 587 592 583 c 0
 307 562 127 478 127 263 c 0
 127 79 262 -21 438 -21 c 0
461 102 m 0
 378 102 301 152 301 262 c 0
 301 402 390 447 651 478 c 0
 674 481 767 490 767 490 c 1
 767 251 l 1
 735.5 165 582 102 461 102 c 0
438 -21 m 0
 572.1 -21 712.501 21.5303 774 112 c 1
 801 0 l 1
 942 0 l 1
 942 661 l 2
 942 927 794 1019 550 1019 c 0
 421 1019 266 983 180 935 c 1
 187 916 219 831 227 812 c 1
 321 858 458 886 554 886 c 0
 697 886 767 823 767 685 c 2
 767 597 l 1
 767 597 638 587 592 583 c 0
 307 562 127 478 127 263 c 0
 127 79 262 -21 438 -21 c 0
EndSplineSet
EndChar

StartChar: afii10065.copy_1
Encoding: 65537 -1 218
Width: 1054
VWidth: 0
GlyphClass: 2
Flags: W
PickledData: "(dp1
S'com.typemytype.robofont.layerData'
p2
(dp3
s."
LayerCount: 2
Fore
SplineSet
461 102 m 0
 378 102 301 152 301 262 c 0
 301 402 390 447 651 478 c 0
 674 481 767 490 767 490 c 1
 767 251 l 1
 735.5 165 582 102 461 102 c 0
438 -21 m 0
 572.1 -21 712.501 21.5303 774 112 c 1
 801 0 l 1
 942 0 l 1
 942 661 l 2
 942 927 794 1019 550 1019 c 0
 421 1019 266 983 180 935 c 1
 187 916 219 831 227 812 c 1
 321 858 458 886 554 886 c 0
 697 886 767 823 767 685 c 2
 767 597 l 1
 767 597 638 587 592 583 c 0
 307 562 127 478 127 263 c 0
 127 79 262 -21 438 -21 c 0
461 102 m 0
 378 102 301 152 301 262 c 0
 301 402 390 447 651 478 c 0
 674 481 767 490 767 490 c 1
 767 251 l 1
 735.5 165 582 102 461 102 c 0
438 -21 m 0
 572.1 -21 712.501 21.5303 774 112 c 1
 801 0 l 1
 942 0 l 1
 942 661 l 2
 942 927 794 1019 550 1019 c 0
 421 1019 266 983 180 935 c 1
 187 916 219 831 227 812 c 1
 321 858 458 886 554 886 c 0
 697 886 767 823 767 685 c 2
 767 597 l 1
 767 597 638 587 592 583 c 0
 307 562 127 478 127 263 c 0
 127 79 262 -21 438 -21 c 0
461 102 m 0
 378 102 301 152 301 262 c 0
 301 402 390 447 651 478 c 0
 674 481 767 490 767 490 c 1
 767 251 l 1
 735.5 165 582 102 461 102 c 0
438 -21 m 0
 572.1 -21 712.501 21.5303 774 112 c 1
 801 0 l 1
 942 0 l 1
 942 661 l 2
 942 927 794 1019 550 1019 c 0
 421 1019 266 983 180 935 c 1
 187 916 219 831 227 812 c 1
 321 858 458 886 554 886 c 0
 697 886 767 823 767 685 c 2
 767 597 l 1
 767 597 638 587 592 583 c 0
 307 562 127 478 127 263 c 0
 127 79 262 -21 438 -21 c 0
461 102 m 0
 378 102 301 152 301 262 c 0
 301 402 390 447 651 478 c 0
 674 481 767 490 767 490 c 1
 767 251 l 1
 735.5 165 582 102 461 102 c 0
438 -21 m 0
 572.1 -21 712.501 21.5303 774 112 c 1
 801 0 l 1
 942 0 l 1
 942 661 l 2
 942 927 794 1019 550 1019 c 0
 421 1019 266 983 180 935 c 1
 187 916 219 831 227 812 c 1
 321 858 458 886 554 886 c 0
 697 886 767 823 767 685 c 2
 767 597 l 1
 767 597 638 587 592 583 c 0
 307 562 127 478 127 263 c 0
 127 79 262 -21 438 -21 c 0
461 102 m 0
 378 102 301 152 301 262 c 0
 301 402 390 447 651 478 c 0
 674 481 767 490 767 490 c 1
 767 251 l 1
 735.5 165 582 102 461 102 c 0
438 -21 m 0
 572.1 -21 712.501 21.5303 774 112 c 1
 801 0 l 1
 942 0 l 1
 942 661 l 2
 942 927 794 1019 550 1019 c 0
 421 1019 266 983 180 935 c 1
 187 916 219 831 227 812 c 1
 321 858 458 886 554 886 c 0
 697 886 767 823 767 685 c 2
 767 597 l 1
 767 597 638 587 592 583 c 0
 307 562 127 478 127 263 c 0
 127 79 262 -21 438 -21 c 0
461 102 m 0
 378 102 301 152 301 262 c 0
 301 402 390 447 651 478 c 0
 674 481 767 490 767 490 c 1
 767 251 l 1
 735.5 165 582 102 461 102 c 0
438 -21 m 0
 572.1 -21 712.501 21.5303 774 112 c 1
 801 0 l 1
 942 0 l 1
 942 661 l 2
 942 927 794 1019 550 1019 c 0
 421 1019 266 983 180 935 c 1
 187 916 219 831 227 812 c 1
 321 858 458 886 554 886 c 0
 697 886 767 823 767 685 c 2
 767 597 l 1
 767 597 638 587 592 583 c 0
 307 562 127 478 127 263 c 0
 127 79 262 -21 438 -21 c 0
461 102 m 0
 378 102 301 152 301 262 c 0
 301 402 390 447 651 478 c 0
 674 481 767 490 767 490 c 1
 767 251 l 1
 735.5 165 582 102 461 102 c 0
438 -21 m 0
 572.1 -21 712.501 21.5303 774 112 c 1
 801 0 l 1
 942 0 l 1
 942 661 l 2
 942 927 794 1019 550 1019 c 0
 421 1019 266 983 180 935 c 1
 187 916 219 831 227 812 c 1
 321 858 458 886 554 886 c 0
 697 886 767 823 767 685 c 2
 767 597 l 1
 767 597 638 587 592 583 c 0
 307 562 127 478 127 263 c 0
 127 79 262 -21 438 -21 c 0
461 102 m 0
 378 102 301 152 301 262 c 0
 301 402 390 447 651 478 c 0
 674 481 767 490 767 490 c 1
 767 251 l 1
 735.5 165 582 102 461 102 c 0
438 -21 m 0
 572.1 -21 712.501 21.5303 774 112 c 1
 801 0 l 1
 942 0 l 1
 942 661 l 2
 942 927 794 1019 550 1019 c 0
 421 1019 266 983 180 935 c 1
 187 916 219 831 227 812 c 1
 321 858 458 886 554 886 c 0
 697 886 767 823 767 685 c 2
 767 597 l 1
 767 597 638 587 592 583 c 0
 307 562 127 478 127 263 c 0
 127 79 262 -21 438 -21 c 0
461 102 m 0
 378 102 301 152 301 262 c 0
 301 402 390 447 651 478 c 0
 674 481 767 490 767 490 c 1
 767 251 l 1
 735.5 165 582 102 461 102 c 0
438 -21 m 0
 572.1 -21 712.501 21.5303 774 112 c 1
 801 0 l 1
 942 0 l 1
 942 661 l 2
 942 927 794 1019 550 1019 c 0
 421 1019 266 983 180 935 c 1
 187 916 219 831 227 812 c 1
 321 858 458 886 554 886 c 0
 697 886 767 823 767 685 c 2
 767 597 l 1
 767 597 638 587 592 583 c 0
 307 562 127 478 127 263 c 0
 127 79 262 -21 438 -21 c 0
461 102 m 0
 378 102 301 152 301 262 c 0
 301 402 390 447 651 478 c 0
 674 481 767 490 767 490 c 1
 767 251 l 1
 735.5 165 582 102 461 102 c 0
438 -21 m 0
 572.1 -21 712.501 21.5303 774 112 c 1
 801 0 l 1
 942 0 l 1
 942 661 l 2
 942 927 794 1019 550 1019 c 0
 421 1019 266 983 180 935 c 1
 187 916 219 831 227 812 c 1
 321 858 458 886 554 886 c 0
 697 886 767 823 767 685 c 2
 767 597 l 1
 767 597 638 587 592 583 c 0
 307 562 127 478 127 263 c 0
 127 79 262 -21 438 -21 c 0
461 102 m 0
 378 102 301 152 301 262 c 0
 301 402 390 447 651 478 c 0
 674 481 767 490 767 490 c 1
 767 251 l 1
 735.5 165 582 102 461 102 c 0
438 -21 m 0
 572.1 -21 712.501 21.5303 774 112 c 1
 801 0 l 1
 942 0 l 1
 942 661 l 2
 942 927 794 1019 550 1019 c 0
 421 1019 266 983 180 935 c 1
 187 916 219 831 227 812 c 1
 321 858 458 886 554 886 c 0
 697 886 767 823 767 685 c 2
 767 597 l 1
 767 597 638 587 592 583 c 0
 307 562 127 478 127 263 c 0
 127 79 262 -21 438 -21 c 0
461 102 m 0
 378 102 301 152 301 262 c 0
 301 402 390 447 651 478 c 0
 674 481 767 490 767 490 c 1
 767 251 l 1
 735.5 165 582 102 461 102 c 0
438 -21 m 0
 572.1 -21 712.501 21.5303 774 112 c 1
 801 0 l 1
 942 0 l 1
 942 661 l 2
 942 927 794 1019 550 1019 c 0
 421 1019 266 983 180 935 c 1
 187 916 219 831 227 812 c 1
 321 858 458 886 554 886 c 0
 697 886 767 823 767 685 c 2
 767 597 l 1
 767 597 638 587 592 583 c 0
 307 562 127 478 127 263 c 0
 127 79 262 -21 438 -21 c 0
461 102 m 0
 378 102 301 152 301 262 c 0
 301 402 390 447 651 478 c 0
 674 481 767 490 767 490 c 1
 767 251 l 1
 735.5 165 582 102 461 102 c 0
438 -21 m 0
 572.1 -21 712.501 21.5303 774 112 c 1
 801 0 l 1
 942 0 l 1
 942 661 l 2
 942 927 794 1019 550 1019 c 0
 421 1019 266 983 180 935 c 1
 187 916 219 831 227 812 c 1
 321 858 458 886 554 886 c 0
 697 886 767 823 767 685 c 2
 767 597 l 1
 767 597 638 587 592 583 c 0
 307 562 127 478 127 263 c 0
 127 79 262 -21 438 -21 c 0
EndSplineSet
EndChar

StartChar: afii10066
Encoding: 1073 1073 219
Width: 983
VWidth: 0
GlyphClass: 2
Flags: W
PickledData: "(dp1
S'com.typemytype.robofont.layerData'
p2
(dp3
s."
LayerCount: 2
Fore
SplineSet
516 112 m 0
 384 112 260 220 260 455 c 0
 260 478 261 502 264 528 c 1
 358 625 489 653 547 653 c 0
 681 653 776 550 776 399 c 0
 776 208 695 112 516 112 c 0
521 -18 m 0
 766 -18 924 163 924 396 c 0
 924 583 794 778 562 778 c 0
 450 778 364 733 274 680 c 1
 322 915 526 1027 824 1036 c 1
 803 1165 l 1
 300 1145 89 886 89 484 c 0
 89 354 137 -18 521 -18 c 0
EndSplineSet
EndChar

StartChar: afii10067
Encoding: 1074 1074 220
Width: 1041
VWidth: 0
GlyphClass: 2
Flags: W
PickledData: "(dp1
S'com.typemytype.robofont.layerData'
p2
(dp3
s."
LayerCount: 2
Fore
SplineSet
324 870 m 1
 587 870 l 2
 708 870 753 807 753 724 c 0
 753 654 720 580 599 580 c 2
 324 580 l 1
 324 870 l 1
324 455 m 1
 605 455 l 2
 760 455 785 369 785 293 c 0
 785 189 748 122 590 122 c 2
 324 122 l 1
 324 455 l 1
149 0 m 1
 595 0 l 2
 861 0 960 137 960 288 c 0
 960 376 908 497 756 533 c 1
 883 574 928 645 928 748 c 0
 928 883 831 999 595 999 c 2
 149 999 l 1
 149 0 l 1
EndSplineSet
EndChar

StartChar: afii10068
Encoding: 1075 1075 221
Width: 846
VWidth: 0
GlyphClass: 2
Flags: W
PickledData: "(dp1
S'com.typemytype.robofont.layerData'
p2
(dp3
s."
LayerCount: 2
Fore
SplineSet
779 878 m 1
 790 999 l 1
 149 999 l 1
 149 0 l 1
 324 0 l 1
 324 878 l 1
 779 878 l 1
EndSplineSet
EndChar

StartChar: afii10069
Encoding: 1076 1076 222
Width: 1119
VWidth: 0
GlyphClass: 2
Flags: W
PickledData: "(dp1
S'com.typemytype.robofont.layerData'
p2
(dp3
s."
LayerCount: 2
Fore
SplineSet
795 878 m 1
 795 120 l 1
 322 120 l 1
 357 153 408 292 434 478 c 2
 489 878 l 1
 795 878 l 1
45 -275 m 1
 189 -275 l 1
 189 0 l 1
 901 0 l 1
 901 -275 l 1
 1049 -275 l 1
 1049 120 l 1
 970 120 l 1
 970 999 l 1
 337 999 l 1
 259 451 l 2
 238 306 202 175 133 120 c 1
 45 120 l 1
 45 -275 l 1
EndSplineSet
EndChar

StartChar: afii10069.copy_1
Encoding: 65538 -1 223
Width: 1108
VWidth: 0
GlyphClass: 2
Flags: W
PickledData: "(dp1
S'com.typemytype.robofont.layerData'
p2
(dp3
s."
LayerCount: 2
Fore
SplineSet
795 878 m 1
 795 120 l 1
 316 120 l 1
 351 153 402 292 428 478 c 2
 483 878 l 1
 795 878 l 1
39 -275 m 1
 183 -275 l 1
 183 0 l 1
 901 0 l 1
 901 -275 l 1
 1049 -275 l 1
 1049 120 l 1
 970 120 l 1
 970 999 l 1
 331 999 l 1
 253 451 l 2
 232 306 196 175 127 120 c 1
 39 120 l 1
 39 -275 l 1
EndSplineSet
EndChar

StartChar: afii10070
Encoding: 1077 1077 224
Width: 1108
VWidth: 0
GlyphClass: 2
Flags: W
PickledData: "(dp1
S'com.typemytype.robofont.layerData'
p2
(dp3
s."
LayerCount: 2
Fore
SplineSet
597 -21 m 0
 746 -21 860 7 956 65 c 1
 932 197 l 1
 844 151 747 112 622 112 c 0
 432 112 279 240 275 469 c 1
 972 469 l 1
 972 469 978 530 978 553 c 0
 978 832 835 1019 578 1019 c 0
 315 1019 103 805 103 496 c 0
 103 176 308 -21 597 -21 c 0
279 582 m 1
 296 772 427 888 583 888 c 0
 744 888 809 779 814 582 c 1
 279 582 l 1
597 -21 m 0
 746 -21 860 7 956 65 c 1
 932 197 l 1
 844 151 747 112 622 112 c 0
 432 112 279 240 275 469 c 1
 972 469 l 1
 972 469 978 530 978 553 c 0
 978 832 835 1019 578 1019 c 0
 315 1019 103 805 103 496 c 0
 103 176 308 -21 597 -21 c 0
279 582 m 1
 296 772 427 888 583 888 c 0
 744 888 809 779 814 582 c 1
 279 582 l 1
EndSplineSet
EndChar

StartChar: afii10070.copy_1
Encoding: 65539 -1 225
Width: 1108
VWidth: 0
GlyphClass: 2
Flags: W
PickledData: "(dp1
S'com.typemytype.robofont.layerData'
p2
(dp3
s."
LayerCount: 2
Fore
SplineSet
597 -21 m 0
 746 -21 860 7 956 65 c 1
 932 197 l 1
 844 151 747 112 622 112 c 0
 432 112 279 240 275 469 c 1
 972 469 l 1
 972 469 978 530 978 553 c 0
 978 832 835 1019 578 1019 c 0
 315 1019 103 805 103 496 c 0
 103 176 308 -21 597 -21 c 0
279 582 m 1
 296 772 427 888 583 888 c 0
 744 888 809 779 814 582 c 1
 279 582 l 1
597 -21 m 0
 746 -21 860 7 956 65 c 1
 932 197 l 1
 844 151 747 112 622 112 c 0
 432 112 279 240 275 469 c 1
 972 469 l 1
 972 469 978 530 978 553 c 0
 978 832 835 1019 578 1019 c 0
 315 1019 103 805 103 496 c 0
 103 176 308 -21 597 -21 c 0
279 582 m 1
 296 772 427 888 583 888 c 0
 744 888 809 779 814 582 c 1
 279 582 l 1
EndSplineSet
EndChar

StartChar: afii10071
Encoding: 1105 1105 226
Width: 1108
VWidth: 0
GlyphClass: 2
Flags: W
PickledData: "(dp1
S'com.typemytype.robofont.layerData'
p2
(dp3
s."
LayerCount: 2
Fore
SplineSet
640.5 1182 m 1
 781.5 1182 l 1
 781.5 1375 l 1
 640.5 1375 l 1
 640.5 1182 l 1
285.5 1182 m 1
 426.5 1182 l 1
 426.5 1375 l 1
 285.5 1375 l 1
 285.5 1182 l 1
597 -21 m 0
 746 -21 860 7 956 65 c 1
 932 197 l 1
 844 151 747 112 622 112 c 0
 432 112 279 240 275 469 c 1
 972 469 l 1
 972 469 978 530 978 553 c 0
 978 832 835 1019 578 1019 c 0
 315 1019 103 805 103 496 c 0
 103 176 308 -21 597 -21 c 0
279 582 m 1
 296 772 427 888 583 888 c 0
 744 888 809 779 814 582 c 1
 279 582 l 1
597 -21 m 0
 746 -21 860 7 956 65 c 1
 932 197 l 1
 844 151 747 112 622 112 c 0
 432 112 279 240 275 469 c 1
 972 469 l 1
 972 469 978 530 978 553 c 0
 978 832 835 1019 578 1019 c 0
 315 1019 103 805 103 496 c 0
 103 176 308 -21 597 -21 c 0
279 582 m 1
 296 772 427 888 583 888 c 0
 744 888 809 779 814 582 c 1
 279 582 l 1
EndSplineSet
EndChar

StartChar: afii10072
Encoding: 1078 1078 227
Width: 1415
VWidth: 0
GlyphClass: 2
Flags: W
PickledData: "(dp1
S'com.typemytype.robofont.layerData'
p2
(dp3
s."
LayerCount: 2
Fore
SplineSet
623 550 m 1
 228 999 l 1
 46 999 l 1
 494 511 l 1
 37 0 l 1
 222 0 l 1
 623 460 l 1
 623 0 l 1
 791 0 l 1
 791 460 l 1
 1193 0 l 1
 1378 0 l 1
 921 511 l 1
 1369 999 l 1
 1188 999 l 1
 791 550 l 1
 791 999 l 1
 623 999 l 1
 623 550 l 1
EndSplineSet
EndChar

StartChar: afii10073
Encoding: 1079 1079 228
Width: 865
VWidth: 0
GlyphClass: 2
Flags: W
PickledData: "(dp1
S'com.typemytype.robofont.layerData'
p2
(dp3
s."
LayerCount: 2
Fore
SplineSet
780 270 m 0
 780 379 722 480 597 522 c 1
 723 566 748 660 748 745 c 0
 748 884 653 1019 402 1019 c 0
 295 1019 172 995 88 925 c 1
 101 893 132 807 132 807 c 1
 193 851 288 886 386 886 c 0
 524 886 591 825 591 726 c 0
 591 648 529 576 395 576 c 2
 268 576 l 1
 268 457 l 1
 395 457 l 2
 555 457 611 371 611 283 c 0
 611 183 529 112 401 112 c 0
 301 112 190 149 133 193 c 1
 98 70 l 1
 182 3 293 -18 401 -18 c 0
 627 -18 780 112 780 270 c 0
EndSplineSet
EndChar

StartChar: afii10074
Encoding: 1080 1080 229
Width: 1066
VWidth: 0
GlyphClass: 2
Flags: W
PickledData: "(dp1
S'com.typemytype.robofont.layerData'
p2
(dp3
s."
LayerCount: 2
Fore
SplineSet
283 238 m 1
 283 999 l 1
 130 999 l 1
 130 0 l 1
 274 0 l 1
 784 679 l 1
 784 0 l 1
 937 0 l 1
 937 999 l 1
 784 999 l 1
 784 905 l 1
 283 238 l 1
EndSplineSet
EndChar

StartChar: afii10075
Encoding: 1081 1081 230
Width: 1066
VWidth: 0
GlyphClass: 2
Flags: W
PickledData: "(dp1
S'com.typemytype.robofont.layerData'
p2
(dp3
s."
LayerCount: 2
Fore
SplineSet
762 1363 m 1
 656 1363 l 1
 656 1276 598 1235 532 1235 c 0
 466 1235 411 1276 411 1363 c 1
 305 1363 l 1
 305 1206 420 1141 532 1141 c 0
 645 1141 762 1206 762 1363 c 1
283 238 m 1
 283 999 l 1
 130 999 l 1
 130 0 l 1
 274 0 l 1
 784 679 l 1
 784 0 l 1
 937 0 l 1
 937 999 l 1
 784 999 l 1
 784 905 l 1
 283 238 l 1
762 1363 m 1
 656 1363 l 1
 656 1276 598 1235 532 1235 c 0
 466 1235 411 1276 411 1363 c 1
 305 1363 l 1
 305 1206 420 1141 532 1141 c 0
 645 1141 762 1206 762 1363 c 1
283 238 m 1
 283 999 l 1
 130 999 l 1
 130 0 l 1
 274 0 l 1
 784 679 l 1
 784 0 l 1
 937 0 l 1
 937 999 l 1
 784 999 l 1
 784 905 l 1
 283 238 l 1
EndSplineSet
EndChar

StartChar: afii10076
Encoding: 1082 1082 231
Width: 1064
VWidth: 0
GlyphClass: 2
Flags: W
PickledData: "(dp1
S'com.typemytype.robofont.layerData'
p2
(dp3
s."
LayerCount: 2
Fore
SplineSet
149 999 m 1
 149 0 l 1
 324 0 l 1
 324 439 l 1
 774 0 l 1
 990 0 l 1
 473 502 l 1
 940 998 l 1
 725 998 l 1
 324 560 l 1
 324 999 l 1
 149 999 l 1
EndSplineSet
EndChar

StartChar: afii10077
Encoding: 1083 1083 232
Width: 1128
VWidth: 0
GlyphClass: 2
Flags: W
PickledData: "(dp1
S'com.typemytype.robofont.layerData'
p2
(dp3
s."
LayerCount: 2
Fore
SplineSet
804 0 m 1
 979 0 l 1
 979 999 l 1
 341 999 l 1
 268 480 l 2
 227 187 192 118 48 118 c 1
 62 -14 l 1
 333 -14 393 167 434 454 c 2
 493 870 l 1
 804 870 l 1
 804 0 l 1
EndSplineSet
EndChar

StartChar: afii10077.copy_1
Encoding: 65540 -1 233
Width: 1128
VWidth: 0
GlyphClass: 2
Flags: W
PickledData: "(dp1
S'com.typemytype.robofont.layerData'
p2
(dp3
s."
LayerCount: 2
Fore
SplineSet
804 0 m 1
 979 0 l 1
 979 999 l 1
 341 999 l 1
 268 480 l 2
 227 187 192 118 48 118 c 1
 62 -14 l 1
 333 -14 393 167 434 454 c 2
 493 870 l 1
 804 870 l 1
 804 0 l 1
EndSplineSet
EndChar

StartChar: afii10078
Encoding: 1084 1084 234
Width: 1171
VWidth: 0
GlyphClass: 2
Flags: W
PickledData: "(dp1
S'com.typemytype.robofont.layerData'
p2
(dp3
s."
LayerCount: 2
Fore
SplineSet
870 999 m 1
 585 385 l 1
 302 999 l 1
 149 999 l 1
 149 0 l 1
 302 0 l 1
 302 711 l 1
 543 205 l 1
 640 205 l 1
 869 711 l 1
 869 0 l 1
 1022 0 l 1
 1022 999 l 1
 870 999 l 1
EndSplineSet
EndChar

StartChar: afii10078.copy_1
Encoding: 65541 -1 235
Width: 1171
VWidth: 0
GlyphClass: 2
Flags: W
PickledData: "(dp1
S'com.typemytype.robofont.layerData'
p2
(dp3
s."
LayerCount: 2
Fore
SplineSet
870 999 m 1
 585 385 l 1
 302 999 l 1
 149 999 l 1
 149 0 l 1
 302 0 l 1
 302 711 l 1
 543 205 l 1
 640 205 l 1
 869 711 l 1
 869 0 l 1
 1022 0 l 1
 1022 999 l 1
 870 999 l 1
EndSplineSet
EndChar

StartChar: afii10079
Encoding: 1085 1085 236
Width: 1143
VWidth: 0
GlyphClass: 2
Flags: W
PickledData: "(dp1
S'com.typemytype.robofont.layerData'
p2
(dp3
s."
LayerCount: 2
Fore
SplineSet
819 594 m 1
 324 594 l 1
 324 999 l 1
 149 999 l 1
 149 0 l 1
 324 0 l 1
 324 471 l 1
 819 471 l 1
 819 0 l 1
 994 0 l 1
 994 999 l 1
 819 999 l 1
 819 594 l 1
EndSplineSet
EndChar

StartChar: afii10079.copy_1
Encoding: 65542 -1 237
Width: 1104
VWidth: 0
GlyphClass: 2
Flags: W
PickledData: "(dp1
S'com.typemytype.robofont.layerData'
p2
(dp3
s."
LayerCount: 2
Fore
SplineSet
800 594 m 1
 305 594 l 1
 305 999 l 1
 130 999 l 1
 130 0 l 1
 305 0 l 1
 305 471 l 1
 800 471 l 1
 800 0 l 1
 975 0 l 1
 975 999 l 1
 800 999 l 1
 800 594 l 1
EndSplineSet
EndChar

StartChar: afii10080
Encoding: 1086 1086 238
Width: 1138
VWidth: 0
GlyphClass: 2
Flags: W
PickledData: "(dp1
S'com.typemytype.robofont.layerData'
p2
(dp3
s."
LayerCount: 2
Fore
SplineSet
569 112 m 0
 362 112 277 279 277 497 c 0
 277 719 363 886 569 886 c 0
 775 886 860 719 860 497 c 0
 860 279 776 112 569 112 c 0
569 -21 m 0
 854 -21 1035 200 1035 499 c 0
 1035 804 864 1019 569 1019 c 0
 274 1019 103 804 103 499 c 0
 103 200 284 -21 569 -21 c 0
569 112 m 0
 362 112 277 279 277 497 c 0
 277 719 363 886 569 886 c 0
 775 886 860 719 860 497 c 0
 860 279 776 112 569 112 c 0
569 -21 m 0
 854 -21 1035 200 1035 499 c 0
 1035 804 864 1019 569 1019 c 0
 274 1019 103 804 103 499 c 0
 103 200 284 -21 569 -21 c 0
EndSplineSet
EndChar

StartChar: afii10080.copy_1
Encoding: 65543 -1 239
Width: 1138
VWidth: 0
GlyphClass: 2
Flags: W
PickledData: "(dp1
S'com.typemytype.robofont.layerData'
p2
(dp3
s."
LayerCount: 2
Fore
SplineSet
569 112 m 0
 362 112 277 279 277 497 c 0
 277 719 363 886 569 886 c 0
 775 886 860 719 860 497 c 0
 860 279 776 112 569 112 c 0
569 -21 m 0
 854 -21 1035 200 1035 499 c 0
 1035 804 864 1019 569 1019 c 0
 274 1019 103 804 103 499 c 0
 103 200 284 -21 569 -21 c 0
569 112 m 0
 362 112 277 279 277 497 c 0
 277 719 363 886 569 886 c 0
 775 886 860 719 860 497 c 0
 860 279 776 112 569 112 c 0
569 -21 m 0
 854 -21 1035 200 1035 499 c 0
 1035 804 864 1019 569 1019 c 0
 274 1019 103 804 103 499 c 0
 103 200 284 -21 569 -21 c 0
EndSplineSet
EndChar

StartChar: afii10081
Encoding: 1087 1087 240
Width: 1066
VWidth: 0
GlyphClass: 2
Flags: W
PickledData: "(dp1
S'com.typemytype.robofont.layerData'
p2
(dp3
s."
LayerCount: 2
Fore
SplineSet
784 0 m 1
 937 0 l 1
 937 999 l 1
 130 999 l 1
 130 0 l 1
 283 0 l 1
 283 870 l 1
 784 870 l 1
 784 0 l 1
EndSplineSet
EndChar

StartChar: afii10082
Encoding: 1088 1088 241
Width: 1177
VWidth: 0
GlyphClass: 2
Flags: W
PickledData: "(dp1
S'com.typemytype.robofont.layerData'
p2
(dp3
s."
LayerCount: 2
Fore
SplineSet
599 107 m 0
 384 107 308 257 308 516 c 0
 308 746 394 890 600 890 c 0
 794 890 890 734 890 500 c 0
 890 261 790 107 599 107 c 0
133 998 m 1
 133 -433 l 1
 308 -423 l 1
 308 -55 l 2
 308 7 307 70 303 136 c 1
 369 43 495 -21 627 -21 c 0
 887 -21 1065 196 1065 494 c 0
 1065 800 905 1019 626 1019 c 0
 489 1019 363 953 308 835 c 1
 291 998 l 1
 133 998 l 1
EndSplineSet
EndChar

StartChar: afii10083
Encoding: 1089 1089 242
Width: 945
VWidth: 0
GlyphClass: 2
Flags: W
PickledData: "(dp1
S'com.typemytype.robofont.layerData'
p2
(dp3
s."
LayerCount: 2
Fore
SplineSet
581 -21 m 0
 681 -21 786 3 852 51 c 1
 829 175 l 1
 757 138 696 112 610 112 c 0
 396 112 277 265 277 495 c 0
 277 733 400 886 610 886 c 0
 676 886 745 870 816 832 c 1
 858 950 l 1
 803 990 692 1019 587 1019 c 0
 307 1019 103 810 103 496 c 0
 103 195 300 -21 581 -21 c 0
581 -21 m 0
 681 -21 786 3 852 51 c 1
 829 175 l 1
 757 138 696 112 610 112 c 0
 396 112 277 265 277 495 c 0
 277 733 400 886 610 886 c 0
 676 886 745 870 816 832 c 1
 858 950 l 1
 803 990 692 1019 587 1019 c 0
 307 1019 103 810 103 496 c 0
 103 195 300 -21 581 -21 c 0
EndSplineSet
EndChar

StartChar: afii10084
Encoding: 1090 1090 243
Width: 883
VWidth: 0
GlyphClass: 2
Flags: W
PickledData: "(dp1
S'com.typemytype.robofont.layerData'
p2
(dp3
s."
LayerCount: 2
Fore
SplineSet
809 999 m 1
 74 999 l 1
 74 870 l 1
 354 870 l 1
 354 0 l 1
 529 0 l 1
 529 870 l 1
 809 870 l 1
 809 999 l 1
EndSplineSet
EndChar

StartChar: afii10085
Encoding: 1091 1091 244
Width: 1013
VWidth: 0
GlyphClass: 2
Flags: W
PickledData: "(dp1
S'com.typemytype.robofont.layerData'
p2
(dp3
s."
LayerCount: 2
Fore
SplineSet
92 -292 m 1
 108 -293 123 -293 138 -293 c 0
 448 -293 569 -117 628 40 c 2
 992 998 l 1
 808 998 l 1
 565 277 l 1
 240 998 l 1
 52 998 l 1
 491 111 l 1
 467 48 421 -155 139 -155 c 0
 122 -155 105 -155 86 -153 c 1
 92 -292 l 1
EndSplineSet
EndChar

StartChar: afii10086
Encoding: 1092 1092 245
Width: 1345
VWidth: 0
GlyphClass: 2
Flags: W
PickledData: "(dp1
S'com.typemytype.robofont.layerData'
p2
(dp3
s."
LayerCount: 2
Fore
SplineSet
885 153 m 0
 846 153 780 157 736 180 c 1
 736 821 l 1
 782 844 847 850 888 850 c 0
 1016 850 1088 687 1088 506 c 0
 1088 327 1013 153 885 153 c 0
426 153 m 0
 297 153 224 327 224 506 c 0
 224 687 294 850 423 850 c 0
 462 850 530 847 576 824 c 1
 576 178 l 1
 532 158 465 153 426 153 c 0
736 -280 m 1
 736 52 l 1
 779 35 848 29 889 29 c 0
 1102 29 1248 250 1248 508 c 0
 1248 768 1104 974 888 974 c 0
 847 974 779 962 736 945 c 1
 736 1194 l 1
 576 1194 l 1
 576 945 l 1
 533 962 462 974 423 974 c 0
 206 974 64 768 64 508 c 0
 64 249 209 29 421 29 c 0
 462 29 533 35 576 52 c 1
 576 -280 l 1
 736 -280 l 1
EndSplineSet
EndChar

StartChar: afii10087
Encoding: 1093 1093 246
Width: 1021
VWidth: 0
GlyphClass: 2
Flags: W
PickledData: "(dp1
S'com.typemytype.robofont.layerData'
p2
(dp3
s."
LayerCount: 2
Fore
SplineSet
509 623 m 1
 242 998 l 1
 58 998 l 1
 410 508 l 1
 44 0 l 1
 228 0 l 1
 509 396 l 1
 791 0 l 1
 977 0 l 1
 607 506 l 1
 968 998 l 1
 776 998 l 1
 509 623 l 1
509 623 m 1
 242 998 l 1
 58 998 l 1
 410 508 l 1
 44 0 l 1
 228 0 l 1
 509 396 l 1
 791 0 l 1
 977 0 l 1
 607 506 l 1
 968 998 l 1
 776 998 l 1
 509 623 l 1
EndSplineSet
EndChar

StartChar: afii10088
Encoding: 1094 1094 247
Width: 1094
VWidth: 0
GlyphClass: 2
Flags: W
PickledData: "(dp1
S'com.typemytype.robofont.layerData'
p2
(dp3
s."
LayerCount: 2
Fore
SplineSet
1046 -275 m 1
 1046 121 l 1
 948 121 l 1
 948 999 l 1
 774 999 l 1
 774 120 l 1
 324 120 l 1
 324 999 l 1
 150 999 l 1
 150 0 l 1
 871 0 l 1
 871 -275 l 1
 1046 -275 l 1
EndSplineSet
EndChar

StartChar: afii10089
Encoding: 1095 1095 248
Width: 1013
VWidth: 0
GlyphClass: 2
Flags: W
PickledData: "(dp1
S'com.typemytype.robofont.layerData'
p2
(dp3
s."
LayerCount: 2
Fore
SplineSet
864 0 m 1
 864 999 l 1
 689 999 l 1
 689 498 l 1
 689 498 601 490 498 490 c 0
 347 490 288 548 288 766 c 2
 288 999 l 1
 113 999 l 1
 113 750 l 2
 113 499 238 359 470 359 c 0
 586 359 689 368 689 368 c 1
 689 0 l 1
 864 0 l 1
EndSplineSet
EndChar

StartChar: afii10090
Encoding: 1096 1096 249
Width: 1354
VWidth: 0
GlyphClass: 2
Flags: W
PickledData: "(dp1
S'com.typemytype.robofont.layerData'
p2
(dp3
s."
LayerCount: 2
Fore
SplineSet
621 120 m 1
 358 120 l 1
 358 999 l 1
 192 999 l 1
 192 0 l 1
 1216 0 l 1
 1216 999 l 1
 1050 999 l 1
 1050 120 l 1
 787 120 l 1
 787 999 l 1
 621 999 l 1
 621 120 l 1
EndSplineSet
EndChar

StartChar: afii10091
Encoding: 1097 1097 250
Width: 1354
VWidth: 0
GlyphClass: 2
Flags: W
PickledData: "(dp1
S'com.typemytype.robofont.layerData'
p2
(dp3
s."
LayerCount: 2
Fore
SplineSet
1127 -275 m 1
 1302 -275 l 1
 1302 120 l 1
 1204 120 l 1
 1204 999 l 1
 1030 999 l 1
 1030 120 l 1
 780 120 l 1
 780 999 l 1
 606 999 l 1
 606 120 l 1
 324 120 l 1
 324 999 l 1
 150 999 l 1
 150 0 l 1
 1127 0 l 1
 1127 -275 l 1
EndSplineSet
EndChar

StartChar: afii10092
Encoding: 1098 1098 251
Width: 996
VWidth: 0
GlyphClass: 2
Flags: W
PickledData: "(dp1
S'com.typemytype.robofont.layerData'
p2
(dp3
s."
LayerCount: 2
Fore
SplineSet
377 122 m 1
 377 511 l 1
 581 511 l 2
 701 511 750 419 750 329 c 0
 750 239 707 122 587 122 c 2
 377 122 l 1
203 0 m 1
 585 0 l 2
 829 0 924 162 924 326 c 0
 924 490 823 635 579 635 c 2
 377 635 l 1
 377 999 l 1
 43 999 l 1
 43 878 l 1
 203 878 l 1
 203 0 l 1
EndSplineSet
EndChar

StartChar: afii10093
Encoding: 1099 1099 252
Width: 1397
VWidth: 0
GlyphClass: 2
Flags: W
PickledData: "(dp1
S'com.typemytype.robofont.layerData'
p2
(dp3
s."
LayerCount: 2
Fore
SplineSet
323 511 m 1
 527 511 l 2
 647 511 696 419 696 329 c 0
 696 239 653 122 533 122 c 2
 323 122 l 1
 323 511 l 1
323 999 m 1
 149 999 l 1
 149 0 l 1
 531 0 l 2
 775 0 870 162 870 326 c 0
 870 490 769 635 525 635 c 2
 323 635 l 1
 323 999 l 1
1074 0 m 1
 1248 0 l 1
 1248 998 l 1
 1074 998 l 1
 1074 0 l 1
EndSplineSet
EndChar

StartChar: afii10094
Encoding: 1100 1100 253
Width: 942
VWidth: 0
GlyphClass: 2
Flags: W
PickledData: "(dp1
S'com.typemytype.robofont.layerData'
p2
(dp3
s."
LayerCount: 2
Fore
SplineSet
323 511 m 1
 527 511 l 2
 647 511 696 419 696 329 c 0
 696 239 653 122 533 122 c 2
 323 122 l 1
 323 511 l 1
323 999 m 1
 149 999 l 1
 149 0 l 1
 531 0 l 2
 775 0 870 162 870 326 c 0
 870 490 769 635 525 635 c 2
 323 635 l 1
 323 999 l 1
EndSplineSet
EndChar

StartChar: afii10094.copy_1
Encoding: 65544 -1 254
Width: 940
VWidth: 0
GlyphClass: 2
Flags: W
PickledData: "(dp1
S'com.typemytype.robofont.layerData'
p2
(dp3
s."
LayerCount: 2
Fore
SplineSet
302 511 m 1
 506 511 l 2
 626 511 675 419 675 329 c 0
 675 239 632 122 512 122 c 2
 302 122 l 1
 302 511 l 1
302 999 m 1
 128 999 l 1
 128 0 l 1
 510 0 l 2
 754 0 849 162 849 326 c 0
 849 490 748 635 504 635 c 2
 302 635 l 1
 302 999 l 1
EndSplineSet
EndChar

StartChar: afii10095
Encoding: 1101 1101 255
Width: 1010
VWidth: 0
GlyphClass: 2
Flags: W
PickledData: "(dp1
S'com.typemytype.robofont.layerData'
p2
(dp3
s."
LayerCount: 2
Fore
SplineSet
411 -23 m 0
 735 -23 898 227 898 496 c 0
 898 776 741 1023 409 1023 c 0
 302 1023 186 993 115 932 c 1
 157 821 l 1
 218 860 303 897 401 897 c 0
 608 897 717 764 737 563 c 1
 316 563 l 1
 316 434 l 1
 737 434 l 1
 716 234 591 103 402 103 c 0
 322 103 241 126 157 177 c 1
 116 64 l 1
 178 10 285 -23 411 -23 c 0
EndSplineSet
EndChar

StartChar: afii10096
Encoding: 1102 1102 256
Width: 1395
VWidth: 0
GlyphClass: 2
Flags: W
PickledData: "(dp1
S'com.typemytype.robofont.layerData'
p2
(dp3
s."
LayerCount: 2
Fore
SplineSet
868 103 m 0
 668 103 598 294 598 495 c 0
 598 699 668 897 865 897 c 0
 1072 897 1124 710 1124 498 c 0
 1124 294 1065 103 868 103 c 0
865 -23 m 0
 1164 -23 1282 223 1282 500 c 0
 1282 788 1174 1023 868 1023 c 0
 589 1023 460 819 442 562 c 1
 283 562 l 1
 283 999 l 1
 130 999 l 1
 130 0 l 1
 283 0 l 1
 283 435 l 1
 442 435 l 1
 459 177 586 -23 865 -23 c 0
EndSplineSet
EndChar

StartChar: afii10097
Encoding: 1103 1103 257
Width: 1055
VWidth: 0
GlyphClass: 2
Flags: W
PickledData: "(dp1
S'com.typemytype.robofont.layerData'
p2
(dp3
s."
LayerCount: 2
Fore
SplineSet
444 527 m 2
 323 527 280 617 280 693 c 0
 280 776 323 870 444 870 c 2
 733 870 l 1
 733 527 l 1
 444 527 l 2
107 0 m 1
 302 0 l 1
 485 399 l 1
 733 399 l 1
 733 0 l 1
 906 0 l 1
 906 999 l 1
 454 999 l 2
 209 999 106 849 106 693 c 0
 106 577 174 462 315 418 c 1
 107 0 l 1
EndSplineSet
EndChar

StartChar: afii10099
Encoding: 1106 1106 258
Width: 1130
VWidth: 0
GlyphClass: 2
Flags: W
PickledData: "(dp1
S'com.typemytype.robofont.layerData'
p2
(dp3
s."
LayerCount: 2
Fore
SplineSet
655 -258 m 1
 720 -258 l 2
 990 -258 1011 -134 1011 144 c 2
 1011 405 l 2
 1011 667 906 812 672 812 c 0
 536 812 431 750 351 649 c 1
 351 999 l 1
 729 999 l 1
 729 1105 l 1
 351 1105 l 1
 351 1374 l 1
 198 1374 l 1
 198 1105 l 1
 113 1105 l 1
 113 999 l 1
 198 999 l 1
 198 0 l 1
 351 0 l 1
 351 450 l 1
 376 545 502 672 658 672 c 0
 828 672 858 561 858 335 c 2
 858 95 l 2
 858 -100 840 -128 683 -128 c 2
 644 -128 l 1
 655 -258 l 1
EndSplineSet
EndChar

StartChar: afii10100
Encoding: 1107 1107 259
Width: 846
VWidth: 0
GlyphClass: 2
Flags: W
PickledData: "(dp1
S'com.typemytype.robofont.layerData'
p2
(dp3
s."
LayerCount: 2
Fore
SplineSet
417.5 1182 m 1
 521.5 1182 l 1
 817.5 1535 l 1
 587.5 1535 l 1
 417.5 1182 l 1
779 878 m 1
 790 999 l 1
 149 999 l 1
 149 0 l 1
 324 0 l 1
 324 878 l 1
 779 878 l 1
EndSplineSet
EndChar

StartChar: afii10101
Encoding: 1108 1108 260
Width: 1004
VWidth: 0
GlyphClass: 2
Flags: W
PickledData: "(dp1
S'com.typemytype.robofont.layerData'
p2
(dp3
s."
LayerCount: 2
Fore
SplineSet
595 -23 m 0
 721 -23 829 10 891 64 c 1
 849 177 l 1
 765 126 684 103 604 103 c 0
 415 103 290 234 269 434 c 1
 691 434 l 1
 691 563 l 1
 269 563 l 1
 289 764 398 897 605 897 c 0
 703 897 789 860 850 821 c 1
 892 932 l 1
 821 993 705 1023 598 1023 c 0
 266 1023 108 776 108 496 c 0
 108 227 271 -23 595 -23 c 0
EndSplineSet
EndChar

StartChar: afii10102
Encoding: 1109 1109 261
Width: 814
VWidth: 0
GlyphClass: 2
Flags: W
PickledData: "(dp1
S'com.typemytype.robofont.layerData'
p2
(dp3
s."
LayerCount: 2
Fore
SplineSet
441 -21 m 0
 659 -21 791 82 794 269 c 1
 794 420 713 491 515 568 c 2
 451 593 l 2
 308 649 267 672 267 751 c 0
 267 836 340 899 466 899 c 0
 562 899 641 877 718 845 c 1
 756 954 l 1
 667 996 577 1019 459 1019 c 0
 233 1019 116 896 116 745 c 1
 117 620 184 530 361 465 c 1
 429 439 l 1
 612 373 652 342 652 254 c 0
 652 154 572 98 433 98 c 0
 314 98 221 133 155 168 c 1
 123 48 l 1
 189 5 298 -21 441 -21 c 0
441 -21 m 0
 659 -21 791 82 794 269 c 1
 794 420 713 491 515 568 c 2
 451 593 l 2
 308 649 267 672 267 751 c 0
 267 836 340 899 466 899 c 0
 562 899 641 877 718 845 c 1
 756 954 l 1
 667 996 577 1019 459 1019 c 0
 233 1019 116 896 116 745 c 1
 117 620 184 530 361 465 c 1
 429 439 l 1
 612 373 652 342 652 254 c 0
 652 154 572 98 433 98 c 0
 314 98 221 133 155 168 c 1
 123 48 l 1
 189 5 298 -21 441 -21 c 0
441 -21 m 0
 659 -21 791 82 794 269 c 1
 794 420 713 491 515 568 c 2
 451 593 l 2
 308 649 267 672 267 751 c 0
 267 836 340 899 466 899 c 0
 562 899 641 877 718 845 c 1
 756 954 l 1
 667 996 577 1019 459 1019 c 0
 233 1019 116 896 116 745 c 1
 117 620 184 530 361 465 c 1
 429 439 l 1
 612 373 652 342 652 254 c 0
 652 154 572 98 433 98 c 0
 314 98 221 133 155 168 c 1
 123 48 l 1
 189 5 298 -21 441 -21 c 0
441 -21 m 0
 659 -21 791 82 794 269 c 1
 794 420 713 491 515 568 c 2
 451 593 l 2
 308 649 267 672 267 751 c 0
 267 836 340 899 466 899 c 0
 562 899 641 877 718 845 c 1
 756 954 l 1
 667 996 577 1019 459 1019 c 0
 233 1019 116 896 116 745 c 1
 117 620 184 530 361 465 c 1
 429 439 l 1
 612 373 652 342 652 254 c 0
 652 154 572 98 433 98 c 0
 314 98 221 133 155 168 c 1
 123 48 l 1
 189 5 298 -21 441 -21 c 0
441 -21 m 0
 659 -21 791 82 794 269 c 1
 794 420 713 491 515 568 c 2
 451 593 l 2
 308 649 267 672 267 751 c 0
 267 836 340 899 466 899 c 0
 562 899 641 877 718 845 c 1
 756 954 l 1
 667 996 577 1019 459 1019 c 0
 233 1019 116 896 116 745 c 1
 117 620 184 530 361 465 c 1
 429 439 l 1
 612 373 652 342 652 254 c 0
 652 154 572 98 433 98 c 0
 314 98 221 133 155 168 c 1
 123 48 l 1
 189 5 298 -21 441 -21 c 0
441 -21 m 0
 659 -21 791 82 794 269 c 1
 794 420 713 491 515 568 c 2
 451 593 l 2
 308 649 267 672 267 751 c 0
 267 836 340 899 466 899 c 0
 562 899 641 877 718 845 c 1
 756 954 l 1
 667 996 577 1019 459 1019 c 0
 233 1019 116 896 116 745 c 1
 117 620 184 530 361 465 c 1
 429 439 l 1
 612 373 652 342 652 254 c 0
 652 154 572 98 433 98 c 0
 314 98 221 133 155 168 c 1
 123 48 l 1
 189 5 298 -21 441 -21 c 0
441 -21 m 0
 659 -21 791 82 794 269 c 1
 794 420 713 491 515 568 c 2
 451 593 l 2
 308 649 267 672 267 751 c 0
 267 836 340 899 466 899 c 0
 562 899 641 877 718 845 c 1
 756 954 l 1
 667 996 577 1019 459 1019 c 0
 233 1019 116 896 116 745 c 1
 117 620 184 530 361 465 c 1
 429 439 l 1
 612 373 652 342 652 254 c 0
 652 154 572 98 433 98 c 0
 314 98 221 133 155 168 c 1
 123 48 l 1
 189 5 298 -21 441 -21 c 0
441 -21 m 0
 659 -21 791 82 794 269 c 1
 794 420 713 491 515 568 c 2
 451 593 l 2
 308 649 267 672 267 751 c 0
 267 836 340 899 466 899 c 0
 562 899 641 877 718 845 c 1
 756 954 l 1
 667 996 577 1019 459 1019 c 0
 233 1019 116 896 116 745 c 1
 117 620 184 530 361 465 c 1
 429 439 l 1
 612 373 652 342 652 254 c 0
 652 154 572 98 433 98 c 0
 314 98 221 133 155 168 c 1
 123 48 l 1
 189 5 298 -21 441 -21 c 0
441 -21 m 0
 659 -21 791 82 794 269 c 1
 794 420 713 491 515 568 c 2
 451 593 l 2
 308 649 267 672 267 751 c 0
 267 836 340 899 466 899 c 0
 562 899 641 877 718 845 c 1
 756 954 l 1
 667 996 577 1019 459 1019 c 0
 233 1019 116 896 116 745 c 1
 117 620 184 530 361 465 c 1
 429 439 l 1
 612 373 652 342 652 254 c 0
 652 154 572 98 433 98 c 0
 314 98 221 133 155 168 c 1
 123 48 l 1
 189 5 298 -21 441 -21 c 0
441 -21 m 0
 659 -21 791 82 794 269 c 1
 794 420 713 491 515 568 c 2
 451 593 l 2
 308 649 267 672 267 751 c 0
 267 836 340 899 466 899 c 0
 562 899 641 877 718 845 c 1
 756 954 l 1
 667 996 577 1019 459 1019 c 0
 233 1019 116 896 116 745 c 1
 117 620 184 530 361 465 c 1
 429 439 l 1
 612 373 652 342 652 254 c 0
 652 154 572 98 433 98 c 0
 314 98 221 133 155 168 c 1
 123 48 l 1
 189 5 298 -21 441 -21 c 0
441 -21 m 0
 659 -21 791 82 794 269 c 1
 794 420 713 491 515 568 c 2
 451 593 l 2
 308 649 267 672 267 751 c 0
 267 836 340 899 466 899 c 0
 562 899 641 877 718 845 c 1
 756 954 l 1
 667 996 577 1019 459 1019 c 0
 233 1019 116 896 116 745 c 1
 117 620 184 530 361 465 c 1
 429 439 l 1
 612 373 652 342 652 254 c 0
 652 154 572 98 433 98 c 0
 314 98 221 133 155 168 c 1
 123 48 l 1
 189 5 298 -21 441 -21 c 0
441 -21 m 0
 659 -21 791 82 794 269 c 1
 794 420 713 491 515 568 c 2
 451 593 l 2
 308 649 267 672 267 751 c 0
 267 836 340 899 466 899 c 0
 562 899 641 877 718 845 c 1
 756 954 l 1
 667 996 577 1019 459 1019 c 0
 233 1019 116 896 116 745 c 1
 117 620 184 530 361 465 c 1
 429 439 l 1
 612 373 652 342 652 254 c 0
 652 154 572 98 433 98 c 0
 314 98 221 133 155 168 c 1
 123 48 l 1
 189 5 298 -21 441 -21 c 0
441 -21 m 0
 659 -21 791 82 794 269 c 1
 794 420 713 491 515 568 c 2
 451 593 l 2
 308 649 267 672 267 751 c 0
 267 836 340 899 466 899 c 0
 562 899 641 877 718 845 c 1
 756 954 l 1
 667 996 577 1019 459 1019 c 0
 233 1019 116 896 116 745 c 1
 117 620 184 530 361 465 c 1
 429 439 l 1
 612 373 652 342 652 254 c 0
 652 154 572 98 433 98 c 0
 314 98 221 133 155 168 c 1
 123 48 l 1
 189 5 298 -21 441 -21 c 0
EndSplineSet
EndChar

StartChar: afii10103
Encoding: 1110 1110 262
Width: 522
VWidth: 0
GlyphClass: 2
Flags: W
PickledData: "(dp1
S'com.typemytype.robofont.layerData'
p2
(dp3
s."
LayerCount: 2
Fore
SplineSet
178 1181 m 1
 352 1181 l 1
 352 1361 l 1
 178 1361 l 1
 178 1181 l 1
178 0 m 1
 352 0 l 1
 352 998 l 1
 178 998 l 1
 178 0 l 1
178 1181 m 1
 352 1181 l 1
 352 1361 l 1
 178 1361 l 1
 178 1181 l 1
178 0 m 1
 352 0 l 1
 352 998 l 1
 178 998 l 1
 178 0 l 1
178 1181 m 1
 352 1181 l 1
 352 1361 l 1
 178 1361 l 1
 178 1181 l 1
178 0 m 1
 352 0 l 1
 352 998 l 1
 178 998 l 1
 178 0 l 1
178 1181 m 1
 352 1181 l 1
 352 1361 l 1
 178 1361 l 1
 178 1181 l 1
178 0 m 1
 352 0 l 1
 352 998 l 1
 178 998 l 1
 178 0 l 1
178 1181 m 1
 352 1181 l 1
 352 1361 l 1
 178 1361 l 1
 178 1181 l 1
178 0 m 1
 352 0 l 1
 352 998 l 1
 178 998 l 1
 178 0 l 1
178 1181 m 1
 352 1181 l 1
 352 1361 l 1
 178 1361 l 1
 178 1181 l 1
178 0 m 1
 352 0 l 1
 352 998 l 1
 178 998 l 1
 178 0 l 1
178 1181 m 1
 352 1181 l 1
 352 1361 l 1
 178 1361 l 1
 178 1181 l 1
178 0 m 1
 352 0 l 1
 352 998 l 1
 178 998 l 1
 178 0 l 1
178 1181 m 1
 352 1181 l 1
 352 1361 l 1
 178 1361 l 1
 178 1181 l 1
178 0 m 1
 352 0 l 1
 352 998 l 1
 178 998 l 1
 178 0 l 1
178 1181 m 1
 352 1181 l 1
 352 1361 l 1
 178 1361 l 1
 178 1181 l 1
178 0 m 1
 352 0 l 1
 352 998 l 1
 178 998 l 1
 178 0 l 1
178 1181 m 1
 352 1181 l 1
 352 1361 l 1
 178 1361 l 1
 178 1181 l 1
178 0 m 1
 352 0 l 1
 352 998 l 1
 178 998 l 1
 178 0 l 1
178 1181 m 1
 352 1181 l 1
 352 1361 l 1
 178 1361 l 1
 178 1181 l 1
178 0 m 1
 352 0 l 1
 352 998 l 1
 178 998 l 1
 178 0 l 1
178 1181 m 1
 352 1181 l 1
 352 1361 l 1
 178 1361 l 1
 178 1181 l 1
178 0 m 1
 352 0 l 1
 352 998 l 1
 178 998 l 1
 178 0 l 1
178 1181 m 1
 352 1181 l 1
 352 1361 l 1
 178 1361 l 1
 178 1181 l 1
178 0 m 1
 352 0 l 1
 352 998 l 1
 178 998 l 1
 178 0 l 1
EndSplineSet
EndChar

StartChar: afii10104
Encoding: 1111 1111 263
Width: 413
VWidth: 0
GlyphClass: 2
Flags: W
PickledData: "(dp1
S'com.typemytype.robofont.layerData'
p2
(dp3
s."
LayerCount: 2
Fore
SplineSet
314 1182 m 1
 455 1182 l 1
 455 1375 l 1
 314 1375 l 1
 314 1182 l 1
-41 1182 m 1
 100 1182 l 1
 100 1375 l 1
 -41 1375 l 1
 -41 1182 l 1
130 0 m 1
 284 0 l 1
 284 999 l 1
 130 999 l 1
 130 0 l 1
EndSplineSet
EndChar

StartChar: afii10105
Encoding: 1112 1112 264
Width: 484
VWidth: 0
GlyphClass: 2
Flags: W
PickledData: "(dp1
S'com.typemytype.robofont.layerData'
p2
(dp3
s."
LayerCount: 2
Fore
SplineSet
48 -398 m 1
 96 -398 l 2
 344 -398 399 -312 399 -68 c 2
 399 998 l 1
 224 998 l 1
 225 -127 l 2
 225 -215 211 -257 76 -257 c 2
 28 -257 l 1
 48 -398 l 1
224 1181 m 1
 399 1181 l 1
 399 1361 l 1
 224 1361 l 1
 224 1181 l 1
48 -398 m 1
 96 -398 l 2
 344 -398 399 -312 399 -68 c 2
 399 998 l 1
 224 998 l 1
 225 -127 l 2
 225 -215 211 -257 76 -257 c 2
 28 -257 l 1
 48 -398 l 1
224 1181 m 1
 399 1181 l 1
 399 1361 l 1
 224 1361 l 1
 224 1181 l 1
48 -398 m 1
 96 -398 l 2
 344 -398 399 -312 399 -68 c 2
 399 998 l 1
 224 998 l 1
 225 -127 l 2
 225 -215 211 -257 76 -257 c 2
 28 -257 l 1
 48 -398 l 1
224 1181 m 1
 399 1181 l 1
 399 1361 l 1
 224 1361 l 1
 224 1181 l 1
48 -398 m 1
 96 -398 l 2
 344 -398 399 -312 399 -68 c 2
 399 998 l 1
 224 998 l 1
 225 -127 l 2
 225 -215 211 -257 76 -257 c 2
 28 -257 l 1
 48 -398 l 1
224 1181 m 1
 399 1181 l 1
 399 1361 l 1
 224 1361 l 1
 224 1181 l 1
48 -398 m 1
 96 -398 l 2
 344 -398 399 -312 399 -68 c 2
 399 998 l 1
 224 998 l 1
 225 -127 l 2
 225 -215 211 -257 76 -257 c 2
 28 -257 l 1
 48 -398 l 1
224 1181 m 1
 399 1181 l 1
 399 1361 l 1
 224 1361 l 1
 224 1181 l 1
48 -398 m 1
 96 -398 l 2
 344 -398 399 -312 399 -68 c 2
 399 998 l 1
 224 998 l 1
 225 -127 l 2
 225 -215 211 -257 76 -257 c 2
 28 -257 l 1
 48 -398 l 1
224 1181 m 1
 399 1181 l 1
 399 1361 l 1
 224 1361 l 1
 224 1181 l 1
48 -398 m 1
 96 -398 l 2
 344 -398 399 -312 399 -68 c 2
 399 998 l 1
 224 998 l 1
 225 -127 l 2
 225 -215 211 -257 76 -257 c 2
 28 -257 l 1
 48 -398 l 1
224 1181 m 1
 399 1181 l 1
 399 1361 l 1
 224 1361 l 1
 224 1181 l 1
48 -398 m 1
 96 -398 l 2
 344 -398 399 -312 399 -68 c 2
 399 998 l 1
 224 998 l 1
 225 -127 l 2
 225 -215 211 -257 76 -257 c 2
 28 -257 l 1
 48 -398 l 1
224 1181 m 1
 399 1181 l 1
 399 1361 l 1
 224 1361 l 1
 224 1181 l 1
48 -398 m 1
 96 -398 l 2
 344 -398 399 -312 399 -68 c 2
 399 998 l 1
 224 998 l 1
 225 -127 l 2
 225 -215 211 -257 76 -257 c 2
 28 -257 l 1
 48 -398 l 1
224 1181 m 1
 399 1181 l 1
 399 1361 l 1
 224 1361 l 1
 224 1181 l 1
48 -398 m 1
 96 -398 l 2
 344 -398 399 -312 399 -68 c 2
 399 998 l 1
 224 998 l 1
 225 -127 l 2
 225 -215 211 -257 76 -257 c 2
 28 -257 l 1
 48 -398 l 1
224 1181 m 1
 399 1181 l 1
 399 1361 l 1
 224 1361 l 1
 224 1181 l 1
48 -398 m 1
 96 -398 l 2
 344 -398 399 -312 399 -68 c 2
 399 998 l 1
 224 998 l 1
 225 -127 l 2
 225 -215 211 -257 76 -257 c 2
 28 -257 l 1
 48 -398 l 1
224 1181 m 1
 399 1181 l 1
 399 1361 l 1
 224 1361 l 1
 224 1181 l 1
48 -398 m 1
 96 -398 l 2
 344 -398 399 -312 399 -68 c 2
 399 998 l 1
 224 998 l 1
 225 -127 l 2
 225 -215 211 -257 76 -257 c 2
 28 -257 l 1
 48 -398 l 1
224 1181 m 1
 399 1181 l 1
 399 1361 l 1
 224 1361 l 1
 224 1181 l 1
48 -398 m 1
 96 -398 l 2
 344 -398 399 -312 399 -68 c 2
 399 998 l 1
 224 998 l 1
 225 -127 l 2
 225 -215 211 -257 76 -257 c 2
 28 -257 l 1
 48 -398 l 1
224 1181 m 1
 399 1181 l 1
 399 1361 l 1
 224 1361 l 1
 224 1181 l 1
EndSplineSet
EndChar

StartChar: afii10106
Encoding: 1113 1113 265
Width: 1648
VWidth: 0
GlyphClass: 2
Flags: W
PickledData: "(dp1
S'com.typemytype.robofont.layerData'
p2
(dp3
s."
LayerCount: 2
Fore
SplineSet
1004 511 m 1
 1218 511 l 2
 1338 511 1393 419 1393 329 c 0
 1393 239 1344 120 1224 120 c 2
 1004 120 l 1
 1004 511 l 1
107 -23 m 1
 141 -23 l 2
 419 -23 422 83 422 381 c 2
 422 870 l 1
 851 870 l 1
 851 0 l 1
 1202 0 l 2
 1446 0 1541 162 1541 326 c 0
 1541 490 1440 635 1196 635 c 2
 1004 635 l 1
 1004 999 l 1
 269 999 l 1
 269 372 l 2
 269 168 267 116 141 116 c 2
 98 116 l 1
 107 -23 l 1
EndSplineSet
EndChar

StartChar: afii10107
Encoding: 1114 1114 266
Width: 1515
VWidth: 0
GlyphClass: 2
Flags: W
PickledData: "(dp1
S'com.typemytype.robofont.layerData'
p2
(dp3
s."
LayerCount: 2
Fore
SplineSet
875 511 m 1
 1085 511 l 2
 1205 511 1260 419 1260 329 c 0
 1260 239 1211 120 1091 120 c 2
 875 120 l 1
 875 511 l 1
722 594 m 1
 283 594 l 1
 283 999 l 1
 130 999 l 1
 130 0 l 1
 283 0 l 1
 283 471 l 1
 722 471 l 1
 722 0 l 1
 1069 0 l 2
 1313 0 1408 162 1408 326 c 0
 1408 490 1307 635 1063 635 c 2
 875 635 l 1
 875 999 l 1
 722 999 l 1
 722 594 l 1
EndSplineSet
EndChar

StartChar: afii10108
Encoding: 1115 1115 267
Width: 1128
VWidth: 0
GlyphClass: 2
Flags: W
PickledData: "(dp1
S'com.typemytype.robofont.layerData'
p2
(dp3
s."
LayerCount: 2
Fore
SplineSet
366 0 m 1
 366 502 l 1
 395 504 470 519 576 519 c 0
 727 519 754 451 754 233 c 2
 754 0 l 1
 928 0 l 1
 928 269 l 2
 928 520 830 650 598 650 c 0
 473 650 398 633 366 630 c 1
 366 954 l 1
 704 954 l 1
 704 1060 l 1
 345 1060 l 1
 345 1347 l 1
 192 1347 l 1
 192 1060 l 1
 64 1060 l 1
 64 954 l 1
 192 954 l 1
 192 0 l 1
 366 0 l 1
EndSplineSet
EndChar

StartChar: afii10108.copy_1
Encoding: 65545 -1 268
Width: 1128
VWidth: 0
GlyphClass: 2
Flags: W
PickledData: "(dp1
S'com.typemytype.robofont.layerData'
p2
(dp3
s."
LayerCount: 2
Fore
SplineSet
366 0 m 1
 366 502 l 1
 395 504 470 519 576 519 c 0
 727 519 754 451 754 233 c 2
 754 0 l 1
 928 0 l 1
 928 269 l 2
 928 520 830 650 598 650 c 0
 473 650 398 633 366 630 c 1
 366 954 l 1
 704 954 l 1
 704 1060 l 1
 345 1060 l 1
 345 1347 l 1
 192 1347 l 1
 192 1060 l 1
 64 1060 l 1
 64 954 l 1
 192 954 l 1
 192 0 l 1
 366 0 l 1
EndSplineSet
EndChar

StartChar: afii10109
Encoding: 1116 1116 269
Width: 1064
VWidth: 0
GlyphClass: 2
Flags: W
PickledData: "(dp1
S'com.typemytype.robofont.layerData'
p2
(dp3
s."
LayerCount: 2
Fore
SplineSet
517.5 1182 m 1
 621.5 1182 l 1
 917.5 1535 l 1
 687.5 1535 l 1
 517.5 1182 l 1
149 999 m 1
 149 0 l 1
 324 0 l 1
 324 439 l 1
 774 0 l 1
 990 0 l 1
 473 502 l 1
 940 998 l 1
 725 998 l 1
 324 560 l 1
 324 999 l 1
 149 999 l 1
EndSplineSet
EndChar

StartChar: afii10110
Encoding: 1118 1118 270
Width: 1013
VWidth: 0
GlyphClass: 2
Flags: W
PickledData: "(dp1
S'com.typemytype.robofont.layerData'
p2
(dp3
s."
LayerCount: 2
Fore
SplineSet
750.5 1404 m 1
 644.5 1404 l 1
 644.5 1317 586.5 1276 520.5 1276 c 0
 454.5 1276 399.5 1317 399.5 1404 c 1
 293.5 1404 l 1
 293.5 1247 408.5 1182 520.5 1182 c 0
 633.5 1182 750.5 1247 750.5 1404 c 1
92 -292 m 1
 108 -293 123 -293 138 -293 c 0
 448 -293 569 -117 628 40 c 2
 992 998 l 1
 808 998 l 1
 565 277 l 1
 240 998 l 1
 52 998 l 1
 491 111 l 1
 467 48 421 -155 139 -155 c 0
 122 -155 105 -155 86 -153 c 1
 92 -292 l 1
EndSplineSet
EndChar

StartChar: afii10145
Encoding: 1039 1039 271
Width: 1327
VWidth: 0
GlyphClass: 2
Flags: W
PickledData: "(dp1
S'com.typemytype.robofont.layerData'
p2
(dp3
s."
LayerCount: 2
Fore
SplineSet
760 0 m 1
 1167 0 l 1
 1167 1346 l 1
 993 1346 l 1
 993 138 l 1
 334 138 l 1
 334 1346 l 1
 160 1346 l 1
 160 0 l 1
 601 0 l 1
 601 -275 l 1
 760 -275 l 1
 760 0 l 1
EndSplineSet
EndChar

StartChar: afii10193
Encoding: 1119 1119 272
Width: 1025
VWidth: 0
GlyphClass: 2
Flags: W
PickledData: "(dp1
S'com.typemytype.robofont.layerData'
p2
(dp3
s."
LayerCount: 2
Fore
SplineSet
283 999 m 1
 130 999 l 1
 130 0 l 1
 470 0 l 1
 474 -253 l 1
 598 -253 l 1
 604 0 l 1
 896 0 l 1
 896 999 l 1
 743 999 l 1
 743 120 l 1
 283 120 l 1
 283 999 l 1
EndSplineSet
EndChar

StartChar: afii57929
Encoding: 700 700 273
Width: 458
VWidth: 0
GlyphClass: 2
Flags: W
PickledData: "(dp1
S'com.typemytype.robofont.layerData'
p2
(dp3
s."
LayerCount: 2
Fore
SplineSet
121 1003 m 1
 227 1003 l 1
 349 1432 l 1
 206 1432 l 1
 121 1003 l 1
EndSplineSet
EndChar

StartChar: afii61352
Encoding: 8470 8470 274
Width: 2577
VWidth: 0
GlyphClass: 2
Flags: W
PickledData: "(dp1
S'com.typemytype.robofont.layerData'
p2
(dp3
s."
LayerCount: 2
Fore
SplineSet
2042 112 m 0
 1835 112 1750 279 1750 497 c 0
 1750 719 1836 886 2042 886 c 0
 2248 886 2333 719 2333 497 c 0
 2333 279 2249 112 2042 112 c 0
2042 -21 m 0
 2327 -21 2508 200 2508 499 c 0
 2508 804 2337 1019 2042 1019 c 0
 1747 1019 1576 804 1576 499 c 0
 1576 200 1757 -21 2042 -21 c 0
1156 208 m 1
 357 1390 l 1
 178 1390 l 1
 178 0 l 1
 334 0 l 1
 334 830 l 1
 329 1181 l 1
 1124 0 l 1
 1307 0 l 1
 1307 1390 l 1
 1151 1390 l 1
 1151 555 l 1
 1156 208 l 1
EndSplineSet
EndChar

StartChar: alpha
Encoding: 945 945 276
Width: 451
VWidth: 0
GlyphClass: 2
Flags: W
PickledData: "(dp1
S'com.typemytype.robofont.layerData'
p2
(dp3
s."
LayerCount: 2
Fore
SplineSet
223 484 m 0
 304 484 344 544 344 604 c 0
 344 664 304 724 223 724 c 0
 143 724 102 664 102 604 c 0
 102 544 143 484 223 484 c 0
EndSplineSet
EndChar

StartChar: alphatonos
Encoding: 940 940 277
Width: 451
VWidth: 0
GlyphClass: 2
Flags: W
PickledData: "(dp1
S'com.typemytype.robofont.layerData'
p2
(dp3
s."
LayerCount: 2
Fore
SplineSet
223 484 m 0
 304 484 344 544 344 604 c 0
 344 664 304 724 223 724 c 0
 143 724 102 664 102 604 c 0
 102 544 143 484 223 484 c 0
EndSplineSet
EndChar

StartChar: ampersand
Encoding: 38 38 279
Width: 1258
VWidth: 0
GlyphClass: 2
Flags: W
PickledData: "(dp1
S'com.typemytype.robofont.layerData'
p2
(dp3
s."
LayerCount: 2
Fore
SplineSet
515 838 m 1
 435 915 369 1031 369 1121 c 0
 369 1226 453 1288 564 1288 c 0
 660 1288 744 1233 744 1127 c 0
 744 1011 639 899 515 838 c 1
536 120 m 0
 337 120 219 213 219 369 c 0
 219 504 321 611 459 681 c 1
 595 536 724 381 860 236 c 1
 772 166 666 120 536 120 c 0
528 -21 m 0
 710 -21 852 39 965 130 c 1
 1108 -20 l 1
 1251 27 l 1
 1063 230 l 1
 1121 298 1175 381 1211 461 c 1
 1101 545 l 1
 1068 471 1018 392 966 337 c 1
 600 746 l 1
 772 826 915 971 915 1131 c 0
 915 1319 747 1413 561 1413 c 0
 346 1413 207 1297 207 1115 c 0
 207 996 280 884 374 781 c 1
 192 689 58 556 58 359 c 0
 58 125 216 -21 528 -21 c 0
EndSplineSet
EndChar

StartChar: approxequal
Encoding: 8776 8776 281
Width: 1177
VWidth: 0
GlyphClass: 2
Flags: W
PickledData: "(dp1
S'com.typemytype.robofont.layerData'
p2
(dp3
s."
LayerCount: 2
Fore
SplineSet
207 622 m 1
 233 720 284 783 376 783 c 0
 431 783 486 755 548 716 c 0
 649 653 723 622 802 622 c 0
 956 622 1031 722 1060 873 c 1
 970 899 l 1
 935 794 885 737 805 737 c 0
 753 737 701 762 617 813 c 0
 531 865 459 899 379 899 c 0
 235 899 143 803 114 648 c 1
 207 622 l 1
207 255 m 1
 236 353 287 418 379 418 c 0
 434 418 488 389 550 350 c 1
 653 288 728 257 804 257 c 0
 961 257 1033 358 1062 508 c 1
 973 536 l 1
 937 433 887 374 807 374 c 0
 751 374 687 415 615 455 c 0
 543 496 464 536 379 536 c 0
 234 536 146 441 116 284 c 1
 207 255 l 1
EndSplineSet
EndChar

StartChar: asciicircum
Encoding: 94 94 284
Width: 1143
VWidth: 0
GlyphClass: 2
Flags: W
PickledData: "(dp1
S'com.typemytype.robofont.layerData'
p2
(dp3
s."
LayerCount: 2
Fore
SplineSet
109 536 m 1
 241 536 l 1
 561 1215 l 1
 905 536 l 1
 1035 536 l 1
 607 1380 l 1
 514 1380 l 1
 109 536 l 1
EndSplineSet
EndChar

StartChar: asciitilde
Encoding: 126 126 285
Width: 1132
VWidth: 0
GlyphClass: 2
Flags: W
PickledData: "(dp1
S'com.typemytype.robofont.layerData'
p2
(dp3
s."
LayerCount: 2
Fore
SplineSet
147 458 m 1
 189 537 261 603 343 603 c 0
 408 603 475 573 567 531 c 0
 645 496 712 470 781 470 c 0
 899 470 980 543 1026 654 c 1
 975 742 l 1
 932 663 860 600 785 600 c 0
 730 600 658 634 571 672 c 0
 481 712 422 733 347 733 c 0
 224 733 143 654 100 553 c 1
 147 458 l 1
EndSplineSet
EndChar

StartChar: asterisk
Encoding: 42 42 286
Width: 1055
VWidth: 0
GlyphClass: 2
Flags: W
PickledData: "(dp1
S'com.typemytype.robofont.layerData'
p2
(dp3
s."
LayerCount: 2
Fore
SplineSet
148 1148 m 1
 103 993 l 1
 433 917 l 1
 207 614 l 1
 349 529 l 1
 521 858 l 1
 703 529 l 1
 749 559 798 584 844 614 c 1
 769 715 651 867 614 917 c 1
 948 993 l 1
 903 1148 l 1
 576 1011 l 1
 609 1385 l 1
 440 1385 l 1
 473 1011 l 1
 148 1148 l 1
EndSplineSet
EndChar

StartChar: at
Encoding: 64 64 287
Width: 1634
VWidth: 0
GlyphClass: 2
Flags: W
PickledData: "(dp1
S'com.typemytype.robofont.layerData'
p2
(dp3
s."
LayerCount: 2
Fore
SplineSet
757 360 m 0
 656 360 611 438 611 554 c 0
 611 737 690 890 863 890 c 0
 907 890 962 884 996 872 c 1
 989 803 981 732 972 664 c 0
 950 487 893 360 757 360 c 0
797 -119 m 0
 968 -119 1121 -80 1236 -3 c 1
 1204 98 l 1
 1085 30 945 -5 798 -5 c 0
 449 -5 215 215 215 591 c 0
 215 969 477 1245 849 1245 c 0
 1181 1245 1422 1048 1422 720 c 0
 1422 508 1297 347 1180 347 c 0
 1114 347 1079 388 1079 476 c 0
 1079 586 1113 770 1138 950 c 1
 1061 976 948 1000 862 1000 c 0
 616 1000 481 802 481 561 c 0
 481 365 583 244 740 244 c 0
 858 244 943 333 984 391 c 1
 998 292 1069 236 1166 236 c 0
 1353 236 1542 418 1542 713 c 0
 1542 1106 1246 1358 857 1358 c 0
 408 1358 93 1025 93 587 c 0
 93 148 376 -119 797 -119 c 0
EndSplineSet
EndChar

StartChar: b
Encoding: 98 98 289
Width: 1239
VWidth: 0
GlyphClass: 2
Flags: W
PickledData: "(dp1
S'com.typemytype.robofont.layerData'
p2
(dp3
s."
LayerCount: 2
Fore
SplineSet
652 108 m 0
 446 108 360 252 360 482 c 0
 360 741 436 891 651 891 c 0
 842 891 942 738 942 499 c 0
 942 265 846 108 652 108 c 0
678 -21 m 0
 957 -21 1117 198 1117 504 c 0
 1117 802 939 1019 679 1019 c 0
 547 1019 421 955 355 862 c 1
 359 928 360 991 360 1053 c 2
 360 1409 l 1
 185 1395 l 1
 185 0 l 1
 343 0 l 1
 360 163 l 1
 415 45 541 -21 678 -21 c 0
EndSplineSet
EndChar

StartChar: backslash
Encoding: 92 92 290
Width: 850
VWidth: 0
GlyphClass: 2
Flags: W
PickledData: "(dp1
S'com.typemytype.robofont.layerData'
p2
(dp3
s."
LayerCount: 2
Fore
SplineSet
625 -55 m 1
 767 -55 l 1
 222 1332 l 1
 80 1332 l 1
 625 -55 l 1
EndSplineSet
EndChar

StartChar: bar
Encoding: 124 124 291
Width: 488
VWidth: 0
GlyphClass: 2
Flags: W
PickledData: "(dp1
S'com.typemytype.robofont.layerData'
p2
(dp3
s."
LayerCount: 2
Fore
SplineSet
178 -276 m 1
 310 -276 l 1
 310 1525 l 1
 178 1525 l 1
 178 -276 l 1
EndSplineSet
EndChar

StartChar: beta
Encoding: 946 946 292
Width: 451
VWidth: 0
GlyphClass: 2
Flags: W
PickledData: "(dp1
S'com.typemytype.robofont.layerData'
p2
(dp3
s."
LayerCount: 2
Fore
SplineSet
223 484 m 0
 304 484 344 544 344 604 c 0
 344 664 304 724 223 724 c 0
 143 724 102 664 102 604 c 0
 102 544 143 484 223 484 c 0
EndSplineSet
EndChar

StartChar: braceleft
Encoding: 123 123 293
Width: 717
VWidth: 0
GlyphClass: 2
Flags: W
PickledData: "(dp1
S'com.typemytype.robofont.layerData'
p2
(dp3
s."
LayerCount: 2
Fore
SplineSet
619 -130 m 1
 485 -128 449 -78 449 76 c 2
 449 318 l 2
 449 427 402 531 280 570 c 1
 396 639 449 715 449 826 c 2
 449 1067 l 2
 449 1217 484 1273 619 1275 c 1
 619 1400 l 1
 412 1400 298 1308 298 1119 c 2
 298 898 l 2
 298 729 296 641 104 638 c 1
 104 506 l 1
 273 506 298 401 298 245 c 2
 298 56 l 2
 298 -155 390 -255 619 -256 c 1
 619 -130 l 1
EndSplineSet
EndChar

StartChar: braceright
Encoding: 125 125 294
Width: 726
VWidth: 0
GlyphClass: 2
Flags: W
PickledData: "(dp1
S'com.typemytype.robofont.layerData'
p2
(dp3
s."
LayerCount: 2
Fore
SplineSet
101 -256 m 1
 314 -255 421 -162 421 25 c 2
 421 245 l 2
 421 401 447 506 617 506 c 1
 617 638 l 1
 441 640 421 741 421 898 c 2
 421 1087 l 2
 421 1297 328 1400 101 1400 c 1
 101 1275 l 1
 235 1273 271 1217 271 1067 c 2
 271 826 l 2
 271 718 317 613 439 575 c 1
 313 490 271 434 271 318 c 2
 271 76 l 2
 271 -78 233 -128 101 -130 c 1
 101 -256 l 1
EndSplineSet
EndChar

StartChar: bracketleft
Encoding: 91 91 295
Width: 643
VWidth: 0
GlyphClass: 2
Flags: W
PickledData: "(dp1
S'com.typemytype.robofont.layerData'
p2
(dp3
s."
LayerCount: 2
Fore
SplineSet
294 1229 m 1
 549 1229 l 1
 549 1350 l 1
 136 1350 l 1
 136 -267 l 1
 549 -267 l 1
 549 -147 l 1
 294 -147 l 1
 294 1229 l 1
EndSplineSet
EndChar

StartChar: bracketright
Encoding: 93 93 296
Width: 645
VWidth: 0
GlyphClass: 2
Flags: W
PickledData: "(dp1
S'com.typemytype.robofont.layerData'
p2
(dp3
s."
LayerCount: 2
Fore
SplineSet
96 1229 m 1
 351 1229 l 1
 351 -147 l 1
 96 -147 l 1
 96 -267 l 1
 509 -267 l 1
 509 1350 l 1
 96 1350 l 1
 96 1229 l 1
EndSplineSet
EndChar

StartChar: breve
Encoding: 728 728 297
Width: 686
VWidth: 0
GlyphClass: 2
Flags: W
PickledData: "(dp1
S'com.typemytype.robofont.layerData'
p2
(dp3
s."
LayerCount: 2
Fore
SplineSet
573 1404 m 1
 467 1404 l 1
 467 1317 409 1276 343 1276 c 0
 277 1276 222 1317 222 1404 c 1
 116 1404 l 1
 116 1247 231 1182 343 1182 c 0
 456 1182 573 1247 573 1404 c 1
EndSplineSet
EndChar

StartChar: brokenbar
Encoding: 166 166 298
Width: 399
VWidth: 0
GlyphClass: 2
Flags: W
PickledData: "(dp1
S'com.typemytype.robofont.layerData'
p2
(dp3
s."
LayerCount: 2
Fore
SplineSet
134 794 m 1
 267 794 l 1
 267 1437 l 1
 134 1437 l 1
 134 794 l 1
134 -363 m 1
 267 -363 l 1
 267 282 l 1
 134 282 l 1
 134 -363 l 1
EndSplineSet
EndChar

StartChar: bullet
Encoding: 8226 8226 299
Width: 756
VWidth: 0
GlyphClass: 2
Flags: W
PickledData: "(dp1
S'com.typemytype.robofont.layerData'
p2
(dp3
s."
LayerCount: 2
Fore
SplineSet
374 378 m 0
 521 378 646 518 646 685 c 0
 646 850 525 988 378 988 c 0
 234 988 106 847 106 680 c 0
 106 516 223 378 374 378 c 0
EndSplineSet
EndChar

StartChar: c
Encoding: 99 99 300
Width: 985
VWidth: 0
GlyphClass: 2
Flags: W
PickledData: "(dp1
S'com.typemytype.robofont.layerData'
p2
(dp3
s."
LayerCount: 2
Fore
SplineSet
600 -21 m 0
 700 -21 805 3 871 51 c 1
 848 175 l 1
 776 138 715 112 629 112 c 0
 415 112 296 265 296 495 c 0
 296 733 419 886 629 886 c 0
 695 886 764 870 835 832 c 1
 877 950 l 1
 822 990 711 1019 606 1019 c 0
 326 1019 122 810 122 496 c 0
 122 195 319 -21 600 -21 c 0
EndSplineSet
EndChar

StartChar: caron
Encoding: 711 711 302
Width: 728
VWidth: 0
GlyphClass: 2
Flags: W
PickledData: "(dp1
S'com.typemytype.robofont.layerData'
p2
(dp3
s."
LayerCount: 2
Fore
SplineSet
268 1138 m 1
 462 1138 l 1
 632 1491 l 1
 511 1491 l 1
 364 1208 l 1
 217 1491 l 1
 98 1491 l 1
 268 1138 l 1
EndSplineSet
EndChar

StartChar: cedilla
Encoding: 184 184 307
Width: 542
VWidth: 0
GlyphClass: 2
Flags: W
PickledData: "(dp1
S'com.typemytype.robofont.layerData'
p2
(dp3
s."
LayerCount: 2
Fore
SplineSet
104 -373 m 1
 244 -373 l 1
 284 15 l 1
 206 15 l 1
 104 -373 l 1
EndSplineSet
EndChar

StartChar: cent
Encoding: 162 162 308
Width: 977
VWidth: 0
GlyphClass: 2
Flags: W
PickledData: "(dp1
S'com.typemytype.robofont.layerData'
p2
(dp3
s."
LayerCount: 2
Fore
SplineSet
543 282 m 1
 374 309 265 464 265 671 c 0
 265 883 382 1043 543 1068 c 1
 543 282 l 1
543 1 m 1
 630 1 l 1
 630 155 l 1
 717 161 805 191 862 244 c 1
 824 353 l 1
 775 318 707 286 630 279 c 1
 630 1070 l 1
 694 1065 761 1045 823 1003 c 1
 861 1111 l 1
 811 1158 728 1190 630 1196 c 1
 630 1361 l 1
 543 1361 l 1
 543 1196 l 1
 273 1172 111 936 109 675 c 1
 109 411 263 179 543 155 c 1
 543 1 l 1
EndSplineSet
EndChar

StartChar: chi
Encoding: 967 967 309
Width: 1147
VWidth: 0
GlyphClass: 2
Flags: W
PickledData: "(dp1
S'com.typemytype.robofont.layerData'
p2
(dp3
s."
LayerCount: 2
Fore
SplineSet
572 623 m 1
 306 998 l 1
 122 998 l 1
 474 508 l 1
 108 0 l 1
 292 0 l 1
 573 396 l 1
 854 0 l 1
 1041 0 l 1
 671 506 l 1
 1032 998 l 1
 840 998 l 1
 572 623 l 1
EndSplineSet
EndChar

StartChar: circumflex
Encoding: 710 710 310
Width: 728
VWidth: 0
GlyphClass: 2
Flags: W
PickledData: "(dp1
S'com.typemytype.robofont.layerData'
p2
(dp3
s."
LayerCount: 2
Fore
SplineSet
98 1138 m 1
 217 1138 l 1
 364 1386 l 1
 511 1138 l 1
 632 1138 l 1
 462 1491 l 1
 268 1491 l 1
 98 1138 l 1
EndSplineSet
EndChar

StartChar: colon
Encoding: 58 58 311
Width: 435
VWidth: 0
GlyphClass: 2
Flags: W
PickledData: "(dp1
S'com.typemytype.robofont.layerData'
p2
(dp3
s."
LayerCount: 2
Fore
SplineSet
125 813 m 1
 312 813 l 1
 312 1023 l 1
 125 1023 l 1
 125 813 l 1
125 -23 m 1
 312 -23 l 1
 312 189 l 1
 125 189 l 1
 125 -23 l 1
EndSplineSet
EndChar

StartChar: comma
Encoding: 44 44 312
Width: 436
VWidth: 0
GlyphClass: 2
Flags: W
PickledData: "(dp1
S'com.typemytype.robofont.layerData'
p2
(dp3
s."
LayerCount: 2
Fore
SplineSet
196 -253 m 1
 243 -118 295 45 327 173 c 1
 327 213 l 1
 147 213 l 1
 140 84 115 -117 100 -253 c 1
 196 -253 l 1
EndSplineSet
EndChar

StartChar: copyright
Encoding: 169 169 313
Width: 1671
VWidth: 0
GlyphClass: 2
Flags: W
PickledData: "(dp1
S'com.typemytype.robofont.layerData'
p2
(dp3
s."
LayerCount: 2
Fore
SplineSet
828 -24 m 0
 1206 -24 1555 221 1555 711 c 0
 1555 1198 1202 1443 824 1443 c 0
 467 1443 114 1200 114 711 c 0
 114 221 471 -24 828 -24 c 0
828 61 m 0
 434 61 217 354 217 713 c 0
 217 1064 434 1359 824 1359 c 0
 1236 1359 1452 1063 1452 708 c 0
 1452 352 1238 61 828 61 c 0
834 246 m 0
 947 246 1063 279 1127 320 c 1
 1091 418 l 1
 1040 383 937 352 853 352 c 0
 628 352 526 513 526 718 c 0
 526 907 622 1076 835 1076 c 0
 920 1076 1013 1054 1069 1014 c 1
 1124 1102 l 1
 1049 1154 953 1184 844 1184 c 0
 577 1184 402 983 402 714 c 0
 402 445 583 246 834 246 c 0
EndSplineSet
EndChar

StartChar: currency
Encoding: 164 164 314
Width: 1180
VWidth: 0
GlyphClass: 2
Flags: W
PickledData: "(dp1
S'com.typemytype.robofont.layerData'
p2
(dp3
s."
LayerCount: 2
Fore
SplineSet
591 385 m 0
 435 385 309 510 309 666 c 0
 309 821 435 948 591 948 c 0
 747 948 873 821 873 666 c 0
 873 511 748 385 591 385 c 0
1062 278 m 1
 896 439 l 1
 944 504 971 580 971 666 c 0
 971 747 943 825 895 893 c 1
 1063 1054 l 1
 999 1121 l 1
 829 961 l 1
 763 1016 682 1046 591 1046 c 0
 501 1046 417 1017 351 962 c 1
 184 1121 l 1
 116 1056 l 1
 286 893 l 1
 238 827 210 749 210 666 c 0
 210 582 238 505 286 439 c 1
 117 278 l 1
 184 212 l 1
 351 371 l 1
 417 316 499 287 591 287 c 0
 682 287 763 317 829 371 c 1
 999 211 l 1
 1062 278 l 1
EndSplineSet
EndChar

StartChar: d
Encoding: 100 100 315
Width: 1239
VWidth: 0
GlyphClass: 2
Flags: W
PickledData: "(dp1
S'com.typemytype.robofont.layerData'
p2
(dp3
s."
LayerCount: 2
Fore
SplineSet
587 108 m 0
 393 108 296 265 296 499 c 0
 296 738 397 891 588 891 c 0
 803 891 879 741 879 482 c 0
 879 252 793 108 587 108 c 0
560 -21 m 0
 697 -21 824 45 879 163 c 1
 896 0 l 1
 1054 0 l 1
 1054 1409 l 1
 879 1395 l 1
 879 1053 l 2
 879 991 879 928 883 862 c 1
 817 955 691 1019 559 1019 c 0
 299 1019 122 807 122 504 c 0
 122 198 281 -21 560 -21 c 0
EndSplineSet
EndChar

StartChar: dagger
Encoding: 8224 8224 316
Width: 866
VWidth: 0
GlyphClass: 2
Flags: W
PickledData: "(dp1
S'com.typemytype.robofont.layerData'
p2
(dp3
s."
LayerCount: 2
Fore
SplineSet
368 1046 m 1
 96 1046 l 1
 96 953 l 1
 368 953 l 1
 368 110 l 1
 486 110 l 1
 486 953 l 1
 765 953 l 1
 765 1046 l 1
 486 1046 l 1
 486 1421 l 1
 368 1421 l 1
 368 1046 l 1
EndSplineSet
EndChar

StartChar: daggerdbl
Encoding: 8225 8225 317
Width: 921
VWidth: 0
GlyphClass: 2
Flags: W
PickledData: "(dp1
S'com.typemytype.robofont.layerData'
p2
(dp3
s."
LayerCount: 2
Fore
SplineSet
401 550 m 1
 123 550 l 1
 123 425 l 1
 401 425 l 1
 401 110 l 1
 520 110 l 1
 520 425 l 1
 793 425 l 1
 793 550 l 1
 520 550 l 1
 520 964 l 1
 799 964 l 1
 799 1091 l 1
 520 1091 l 1
 520 1421 l 1
 401 1421 l 1
 401 1091 l 1
 127 1091 l 1
 127 964 l 1
 401 964 l 1
 401 550 l 1
EndSplineSet
EndChar

StartChar: dcroat
Encoding: 273 273 319
Width: 1193
VWidth: 0
GlyphClass: 2
Flags: HW
PickledData: "(dp1
S'com.typemytype.robofont.layerData'
p2
(dp3
s."
LayerCount: 2
Fore
SplineSet
586 1166 m 1
 1153 1166 l 1
 1153 1268 l 1
 586 1268 l 1
 586 1166 l 1
568 108 m 0
 374 108 277 265 277 499 c 0
 277 738 378 891 569 891 c 0
 784 891 860 741 860 482 c 0
 860 252 774 108 568 108 c 0
541 -21 m 0
 678 -21 805 45 860 163 c 1
 877 0 l 1
 1035 0 l 1
 1035 1409 l 1
 860 1395 l 1
 860 1053 l 2
 860 991 860 928 864 862 c 1
 798 955 672 1019 540 1019 c 0
 280 1019 103 807 103 504 c 0
 103 198 262 -21 541 -21 c 0
EndSplineSet
EndChar

StartChar: degree
Encoding: 176 176 320
Width: 766
VWidth: 0
GlyphClass: 2
Flags: W
PickledData: "(dp1
S'com.typemytype.robofont.layerData'
p2
(dp3
s."
LayerCount: 2
Fore
SplineSet
381 809 m 0
 541 809 665 944 665 1097 c 0
 665 1254 537 1382 381 1382 c 0
 226 1382 98 1254 98 1097 c 0
 98 939 226 809 381 809 c 0
382 919 m 0
 288 919 210 998 210 1097 c 0
 210 1196 289 1273 382 1273 c 0
 476 1273 554 1196 554 1097 c 0
 554 999 476 919 382 919 c 0
EndSplineSet
EndChar

StartChar: delta
Encoding: 948 948 321
Width: 451
VWidth: 0
GlyphClass: 2
Flags: W
PickledData: "(dp1
S'com.typemytype.robofont.layerData'
p2
(dp3
s."
LayerCount: 2
Fore
SplineSet
223 484 m 0
 304 484 344 544 344 604 c 0
 344 664 304 724 223 724 c 0
 143 724 102 664 102 604 c 0
 102 544 143 484 223 484 c 0
EndSplineSet
EndChar

StartChar: dieresis
Encoding: 168 168 322
Width: 700
VWidth: 0
GlyphClass: 2
Flags: W
PickledData: "(dp1
S'com.typemytype.robofont.layerData'
p2
(dp3
s."
LayerCount: 2
Fore
SplineSet
462 1141 m 1
 603 1141 l 1
 603 1334 l 1
 462 1334 l 1
 462 1141 l 1
107 1141 m 1
 248 1141 l 1
 248 1334 l 1
 107 1334 l 1
 107 1141 l 1
EndSplineSet
EndChar

StartChar: dieresistonos
Encoding: 901 901 323
Width: 425
VWidth: 0
GlyphClass: 2
Flags: W
PickledData: "(dp1
S'com.typemytype.robofont.layerData'
p2
(dp3
s."
LayerCount: 2
Fore
SplineSet
216 484 m 0
 297 484 337 544 337 604 c 0
 337 664 297 724 216 724 c 0
 136 724 95 664 95 604 c 0
 95 544 136 484 216 484 c 0
EndSplineSet
EndChar

StartChar: divide
Encoding: 247 247 324
Width: 1119
VWidth: 0
GlyphClass: 2
Flags: W
PickledData: "(dp1
S'com.typemytype.robofont.layerData'
p2
(dp3
s."
LayerCount: 2
Fore
SplineSet
460 854 m 1
 664 854 l 1
 664 1061 l 1
 460 1061 l 1
 460 854 l 1
101 476 m 1
 1012 476 l 1
 1012 612 l 1
 101 612 l 1
 101 476 l 1
460 20 m 1
 633 20 l 1
 633 227 l 1
 460 227 l 1
 460 20 l 1
EndSplineSet
EndChar

StartChar: dollar
Encoding: 36 36 325
Width: 1166
VWidth: 0
GlyphClass: 2
Flags: W
PickledData: "(dp1
S'com.typemytype.robofont.layerData'
p2
(dp3
s."
LayerCount: 2
Fore
SplineSet
632 -177 m 1
 632 -18 l 1
 884 -3 1021 137 1021 403 c 0
 1021 625 856.173 715.508 658 782 c 2
 506 833 l 1
 378.286 873.834 300 931 300 1037 c 0
 300 1177 408 1270 576 1270 c 1
 744 1266 831 1240 918 1198 c 1
 964 1321 l 1
 878 1375 737 1403 632 1408 c 1
 632 1584 l 1
 546 1584 l 1
 546 1408 l 1
 315 1394 133 1276 133 1026 c 0
 133 846 263.392 751.203 447 690 c 1
 611 633 l 2
 778.881 574.651 854 507 854 398 c 0
 854 227 799 119 589 119 c 0
 392 119 289 167 178 222 c 1
 131 91 l 1
 209 43 374 -12 546 -19 c 1
 546 -177 l 1
 632 -177 l 1
EndSplineSet
EndChar

StartChar: dotaccent
Encoding: 729 729 326
Width: 374
VWidth: 0
GlyphClass: 2
Flags: W
PickledData: "(dp1
S'com.typemytype.robofont.layerData'
p2
(dp3
s."
LayerCount: 2
Fore
SplineSet
111 1181 m 1
 264 1181 l 1
 264 1361 l 1
 111 1361 l 1
 111 1181 l 1
EndSplineSet
EndChar

StartChar: dotlessi
Encoding: 305 305 327
Width: 413
VWidth: 0
GlyphClass: 2
Flags: W
PickledData: "(dp1
S'com.typemytype.robofont.layerData'
p2
(dp3
s."
LayerCount: 2
Fore
SplineSet
130 0 m 1
 284 0 l 1
 284 999 l 1
 130 999 l 1
 130 0 l 1
EndSplineSet
EndChar

StartChar: e
Encoding: 101 101 328
Width: 1128
VWidth: 0
GlyphClass: 2
Flags: W
PickledData: "(dp1
S'com.typemytype.robofont.layerData'
p2
(dp3
s."
LayerCount: 2
Fore
SplineSet
616 -21 m 0
 765 -21 879 7 975 65 c 1
 951 197 l 1
 863 151 766 112 641 112 c 0
 451 112 298 240 294 469 c 1
 991 469 l 1
 991 469 997 530 997 553 c 0
 997 832 854 1019 597 1019 c 0
 334 1019 122 805 122 496 c 0
 122 176 327 -21 616 -21 c 0
298 582 m 1
 315 772 446 888 602 888 c 0
 763 888 828 779 833 582 c 1
 298 582 l 1
EndSplineSet
EndChar

StartChar: eight
Encoding: 56 56 336
Width: 1157
VWidth: 0
GlyphClass: 2
Flags: W
PickledData: "(dp1
S'com.typemytype.robofont.layerData'
p2
(dp3
s."
LayerCount: 2
Fore
SplineSet
578 760 m 1
 412 797 322 891 322 1034 c 0
 322 1163 444 1228 578 1228 c 0
 713 1228 831 1163 831 1034 c 0
 831 891 745 797 578 760 c 1
578 120 m 0
 416 120 293 208 293 358 c 0
 293 506 416 602 578 638 c 1
 741 602 860 506 860 358 c 0
 860 208 741 120 578 120 c 0
578 -18 m 0
 821 -18 1020 108 1020 347 c 0
 1020 520 920 650 758 707 c 1
 900 762 991 867 991 1031 c 0
 991 1247 818 1366 578 1366 c 0
 338 1366 162 1247 162 1031 c 0
 162 867 260 762 416 707 c 1
 240 650 134 520 134 347 c 0
 134 108 336 -18 578 -18 c 0
EndSplineSet
EndChar

StartChar: ellipsis
Encoding: 8230 8230 337
Width: 1354
VWidth: 0
GlyphClass: 2
Flags: W
PickledData: "(dp1
S'com.typemytype.robofont.layerData'
p2
(dp3
s."
LayerCount: 2
Fore
SplineSet
228 -11 m 0
 309 -11 349 49 349 109 c 0
 349 169 309 229 228 229 c 0
 147 229 107 169 107 109 c 0
 107 49 148 -11 228 -11 c 0
678 -11 m 0
 759 -11 799 49 799 109 c 0
 799 169 759 229 678 229 c 0
 597 229 557 169 557 109 c 0
 557 49 598 -11 678 -11 c 0
1127 -11 m 0
 1208 -11 1249 49 1249 109 c 0
 1249 169 1208 229 1127 229 c 0
 1046 229 1006 169 1006 109 c 0
 1006 49 1047 -11 1127 -11 c 0
EndSplineSet
EndChar

StartChar: emdash
Encoding: 8212 8212 339
Width: 2176
VWidth: 0
GlyphClass: 2
Flags: W
PickledData: "(dp1
S'com.typemytype.robofont.layerData'
p2
(dp3
s."
LayerCount: 2
Fore
SplineSet
104 480 m 1
 2067 480 l 1
 2067 614 l 1
 104 614 l 1
 104 480 l 1
EndSplineSet
EndChar

StartChar: endash
Encoding: 8211 8211 340
Width: 1166
VWidth: 0
GlyphClass: 2
Flags: W
PickledData: "(dp1
S'com.typemytype.robofont.layerData'
p2
(dp3
s."
LayerCount: 2
Fore
SplineSet
104 480 m 1
 1057 480 l 1
 1057 614 l 1
 104 614 l 1
 104 480 l 1
EndSplineSet
EndChar

StartChar: eng
Encoding: 331 331 341
Width: 1096
VWidth: 0
GlyphClass: 2
Flags: W
PickledData: "(dp1
S'com.typemytype.robofont.layerData'
p2
(dp3
s."
LayerCount: 2
Fore
SplineSet
653 -275 m 2
 923 -275 965 -134 965 144 c 2
 965 612 l 2
 965 880 865 1019 635 1019 c 0
 492 1019 389 963 317 855 c 1
 298 998 l 1
 149 998 l 1
 149 0 l 1
 324 0 l 1
 324 546 l 2
 324 597 327 643 333 686 c 1
 363 801 439 889 601 889 c 0
 754 889 790 788 790 623 c 2
 790 95 l 2
 790 -100 774 -128 617 -128 c 2
 578 -128 l 1
 589 -275 l 1
 653 -275 l 2
EndSplineSet
EndChar

StartChar: epsilon
Encoding: 949 949 343
Width: 451
VWidth: 0
GlyphClass: 2
Flags: W
PickledData: "(dp1
S'com.typemytype.robofont.layerData'
p2
(dp3
s."
LayerCount: 2
Fore
SplineSet
223 484 m 0
 304 484 344 544 344 604 c 0
 344 664 304 724 223 724 c 0
 143 724 102 664 102 604 c 0
 102 544 143 484 223 484 c 0
EndSplineSet
EndChar

StartChar: epsilontonos
Encoding: 941 941 344
Width: 451
VWidth: 0
GlyphClass: 2
Flags: W
PickledData: "(dp1
S'com.typemytype.robofont.layerData'
p2
(dp3
s."
LayerCount: 2
Fore
SplineSet
223 484 m 0
 304 484 344 544 344 604 c 0
 344 664 304 724 223 724 c 0
 143 724 102 664 102 604 c 0
 102 544 143 484 223 484 c 0
EndSplineSet
EndChar

StartChar: equal
Encoding: 61 61 345
Width: 1114
VWidth: 0
GlyphClass: 2
Flags: W
PickledData: "(dp1
S'com.typemytype.robofont.layerData'
p2
(dp3
s."
LayerCount: 2
Fore
SplineSet
116 727 m 1
 996 727 l 1
 996 858 l 1
 116 858 l 1
 116 727 l 1
117 343 m 1
 996 343 l 1
 996 472 l 1
 117 472 l 1
 117 343 l 1
EndSplineSet
EndChar

StartChar: eta
Encoding: 951 951 346
Width: 451
VWidth: 0
GlyphClass: 2
Flags: W
PickledData: "(dp1
S'com.typemytype.robofont.layerData'
p2
(dp3
s."
LayerCount: 2
Fore
SplineSet
223 484 m 0
 304 484 344 544 344 604 c 0
 344 664 304 724 223 724 c 0
 143 724 102 664 102 604 c 0
 102 544 143 484 223 484 c 0
EndSplineSet
EndChar

StartChar: etatonos
Encoding: 942 942 347
Width: 451
VWidth: 0
GlyphClass: 2
Flags: W
PickledData: "(dp1
S'com.typemytype.robofont.layerData'
p2
(dp3
s."
LayerCount: 2
Fore
SplineSet
223 484 m 0
 304 484 344 544 344 604 c 0
 344 664 304 724 223 724 c 0
 143 724 102 664 102 604 c 0
 102 544 143 484 223 484 c 0
EndSplineSet
EndChar

StartChar: eth
Encoding: 240 240 348
Width: 1164
VWidth: 0
GlyphClass: 2
Flags: W
PickledData: "(dp1
S'com.typemytype.robofont.layerData'
p2
(dp3
s."
LayerCount: 2
Fore
SplineSet
589 104 m 0
 382 104 279 267 279 441 c 0
 279 614 390 758 583 758 c 0
 785 758 895 595 895 430 c 0
 895 247 786 104 589 104 c 0
583 -23 m 0
 892 -23 1051 181 1051 448 c 0
 1051 575 1021 686 958 804 c 1
 891 921 788 1046 646 1201 c 1
 866 1286 l 1
 824 1403 l 1
 561 1300 l 1
 429 1445 l 1
 226 1445 l 1
 440 1241 l 1
 240 1162 l 1
 279 1042 l 1
 527 1144 l 1
 672 997 761 877 803 798 c 1
 751 836 671 885 552 885 c 0
 288 885 114 707 114 442 c 0
 114 193 281 -23 583 -23 c 0
EndSplineSet
EndChar

StartChar: exclam
Encoding: 33 33 349
Width: 557
VWidth: 0
GlyphClass: 2
Flags: W
PickledData: "(dp1
S'com.typemytype.robofont.layerData'
p2
(dp3
s."
LayerCount: 2
Fore
SplineSet
279 -11 m 0
 360 -11 400 49 400 109 c 0
 400 169 360 229 279 229 c 0
 199 229 158 169 158 109 c 0
 158 49 199 -11 279 -11 c 0
368 1232 m 1
 368 1390 l 1
 189 1390 l 1
 189 1232 l 1
 245 396 l 1
 317 396 l 1
 368 1232 l 1
EndSplineSet
EndChar

StartChar: exclamdown
Encoding: 161 161 350
Width: 557
VWidth: 0
GlyphClass: 2
Flags: W
PickledData: "(dp1
S'com.typemytype.robofont.layerData'
p2
(dp3
s."
LayerCount: 2
Fore
SplineSet
279 877.933 m 0
 359 877.933 400 937.933 400 997.933 c 0
 400 1057.93 359 1117.93 279 1117.93 c 0
 198 1117.93 158 1057.93 158 997.933 c 0
 158 937.933 198 877.933 279 877.933 c 0
369 -125.067 m 1
 313 710.933 l 1
 241 710.933 l 1
 190 -125.067 l 1
 190 -254.067 l 1
 369 -254.067 l 1
 369 -125.067 l 1
EndSplineSet
EndChar

StartChar: f
Encoding: 102 102 351
Width: 769
VWidth: 0
GlyphClass: 2
Flags: W
PickledData: "(dp1
S'com.typemytype.robofont.layerData'
p2
(dp3
s."
LayerCount: 2
Fore
SplineSet
266 0 m 1
 441 0 l 1
 441 886 l 1
 674 886 l 1
 674 998 l 1
 441 998 l 1
 441 1055 l 2
 441 1230 496 1273 598 1273 c 0
 634 1273 679 1267 704 1263 c 1
 716 1394 l 1
 698 1398 603 1410 558 1410 c 0
 380 1410 266 1318 266 1061 c 2
 266 998 l 1
 64 981 l 1
 59 886 l 1
 266 886 l 1
 266 0 l 1
EndSplineSet
EndChar

StartChar: five
Encoding: 53 53 352
Width: 1043
VWidth: 0
GlyphClass: 2
Flags: W
PickledData: "(dp1
S'com.typemytype.robofont.layerData'
p2
(dp3
s."
LayerCount: 2
Fore
SplineSet
474 -21 m 0
 781 -21 957 162 957 434 c 0
 957 665 819 849 543 849 c 0
 467 849 393 830 320 784 c 1
 324 916 328 1080 333 1212 c 1
 889 1212 l 1
 902 1361 l 1
 204 1361 l 1
 169 633 l 1
 295 616 l 1
 352 679 426 706 512 706 c 0
 697 706 792 589 792 432 c 0
 792 254 682 126 480 126 c 0
 329 126 226 186 168 232 c 1
 109 104 l 1
 190 30 315 -21 474 -21 c 0
EndSplineSet
EndChar

StartChar: florin
Encoding: 402 402 353
Width: 949
VWidth: 0
GlyphClass: 2
Flags: W
PickledData: "(dp1
S'com.typemytype.robofont.layerData'
p2
(dp3
s."
LayerCount: 2
Fore
SplineSet
136 -326 m 0
 343 -326 402 -116 446 118 c 1
 567 787 l 1
 746 787 l 1
 756 924 l 1
 587 924 l 1
 622 1117 l 1
 637 1214 667 1268 762 1268 c 0
 787 1268 816 1261 849 1246 c 1
 856 1388 l 1
 817 1399 775 1408 740 1408 c 0
 541 1408 471 1247 446 1072 c 1
 426 924 l 1
 268 924 l 1
 258 787 l 1
 402 787 l 1
 354 530 317 255 259 5 c 1
 237 -101 203 -191 126 -191 c 0
 109 -191 88 -185 63 -175 c 1
 53 -308 l 1
 86 -318 113 -326 136 -326 c 0
EndSplineSet
EndChar

StartChar: four
Encoding: 52 52 354
Width: 1138
VWidth: 0
GlyphClass: 2
Flags: W
PickledData: "(dp1
S'com.typemytype.robofont.layerData'
p2
(dp3
s."
LayerCount: 2
Fore
SplineSet
732 470 m 1
 277 470 l 1
 732 1155 l 1
 732 470 l 1
715 1361 m 1
 117 477 l 1
 117 338 l 1
 732 338 l 1
 732 0 l 1
 885 0 l 1
 885 338 l 1
 1040 338 l 1
 1052 470 l 1
 885 470 l 1
 885 1361 l 1
 715 1361 l 1
EndSplineSet
EndChar

StartChar: fraction
Encoding: 8260 8260 355
Width: 1075
VWidth: 0
GlyphClass: 2
Flags: W
PickledData: "(dp1
S'com.typemytype.robofont.layerData'
p2
(dp3
s."
LayerCount: 2
Fore
SplineSet
88 0 m 1
 207 0 l 1
 1004 1408 l 1
 885 1408 l 1
 88 0 l 1
EndSplineSet
EndChar

StartChar: g
Encoding: 103 103 356
Width: 1233
VWidth: 0
GlyphClass: 2
Flags: W
PickledData: "(dp1
S'com.typemytype.robofont.layerData'
p2
(dp3
s."
LayerCount: 2
Fore
SplineSet
543 -425 m 0
 952 -425 1054 -187 1054 148 c 2
 1054 998 l 1
 895 998 l 1
 883 865 l 1
 807 968 705 1019 572 1019 c 0
 267 1019 122 780 122 496 c 0
 122 249 273 0 569 0 c 0
 727 0 832 73 879 191 c 1
 879 73 l 2
 879 -199 774 -291 530 -291 c 0
 429 -291 337 -273 297 -262 c 1
 286 -390 l 1
 326 -400 424 -425 543 -425 c 0
582 130 m 0
 375 130 296 333 296 504 c 0
 296 677 369 891 586 891 c 0
 793 891 879 732 879 543 c 2
 879 470 l 2
 879 291 797 130 582 130 c 0
EndSplineSet
EndChar

StartChar: gamma
Encoding: 947 947 357
Width: 451
VWidth: 0
GlyphClass: 2
Flags: W
PickledData: "(dp1
S'com.typemytype.robofont.layerData'
p2
(dp3
s."
LayerCount: 2
Fore
SplineSet
223 484 m 0
 304 484 344 544 344 604 c 0
 344 664 304 724 223 724 c 0
 143 724 102 664 102 604 c 0
 102 544 143 484 223 484 c 0
EndSplineSet
EndChar

StartChar: gcommaaccent
Encoding: 291 291 361
Width: 1183
VWidth: 0
GlyphClass: 2
Flags: W
PickledData: "(dp1
S'com.typemytype.robofont.layerData'
p2
(dp3
s."
LayerCount: 2
Fore
SplineSet
524 -425 m 0
 933 -425 1035 -187 1035 148 c 2
 1035 998 l 1
 876 998 l 1
 864 865 l 1
 788 968 686 1019 553 1019 c 0
 248 1019 103 780 103 496 c 0
 103 249 254 0 550 0 c 0
 708 0 813 73 860 191 c 1
 860 73 l 2
 860 -199 755 -291 511 -291 c 0
 410 -291 318 -273 278 -262 c 1
 267 -390 l 1
 307 -400 405 -425 524 -425 c 0
563 130 m 0
 356 130 277 333 277 504 c 0
 277 677 350 891 567 891 c 0
 774 891 860 732 860 543 c 2
 860 470 l 2
 860 291 778 130 563 130 c 0
500 1182 m 1
 606 1182 l 1
 728 1611 l 1
 585 1611 l 1
 500 1182 l 1
524 -425 m 0
 933 -425 1035 -187 1035 148 c 2
 1035 998 l 1
 876 998 l 1
 864 865 l 1
 788 968 686 1019 553 1019 c 0
 248 1019 103 780 103 496 c 0
 103 249 254 0 550 0 c 0
 708 0 813 73 860 191 c 1
 860 73 l 2
 860 -199 755 -291 511 -291 c 0
 410 -291 318 -273 278 -262 c 1
 267 -390 l 1
 307 -400 405 -425 524 -425 c 0
563 130 m 0
 356 130 277 333 277 504 c 0
 277 677 350 891 567 891 c 0
 774 891 860 732 860 543 c 2
 860 470 l 2
 860 291 778 130 563 130 c 0
500 1182 m 1
 606 1182 l 1
 728 1611 l 1
 585 1611 l 1
 500 1182 l 1
EndSplineSet
EndChar

StartChar: germandbls
Encoding: 223 223 363
Width: 1103
VWidth: 0
GlyphClass: 2
Flags: W
PickledData: "(dp1
S'com.typemytype.robofont.layerData'
p2
(dp3
s."
LayerCount: 2
Fore
SplineSet
302 0 m 1
 302 961 l 2
 302 1134 373 1249 559 1249 c 0
 671 1249 733 1187 733 1077 c 0
 733 952 560 836 560 684 c 0
 560 521 832 465 876 312 c 0
 881 294 884 276 884 259 c 0
 884 181 832 116 734 116 c 0
 657 116 548 156 490 187 c 1
 436 56 l 1
 493 22 617 -18 748 -18 c 0
 928 -18 1052 103 1052 268 c 0
 1052 284 1050 300 1048 317 c 0
 1015 548 718 588 718 699 c 0
 718 792 895 903 895 1076 c 0
 895 1273 787 1388 559 1388 c 0
 279 1388 149 1222 149 952 c 2
 149 0 l 1
 302 0 l 1
EndSplineSet
EndChar

StartChar: grave
Encoding: 96 96 364
Width: 585
VWidth: 0
GlyphClass: 2
Flags: W
PickledData: "(dp1
S'com.typemytype.robofont.layerData'
p2
(dp3
s."
LayerCount: 2
Fore
SplineSet
371 1138 m 1
 473 1138 l 1
 305 1491 l 1
 77 1491 l 1
 371 1138 l 1
EndSplineSet
EndChar

StartChar: greater
Encoding: 62 62 365
Width: 1102
VWidth: 0
GlyphClass: 2
Flags: W
PickledData: "(dp1
S'com.typemytype.robofont.layerData'
p2
(dp3
s."
LayerCount: 2
Fore
SplineSet
123 1092 m 1
 123 950 l 1
 825 599 l 1
 121 283 l 1
 121 138 l 1
 995 550 l 1
 995 638 l 1
 123 1092 l 1
EndSplineSet
EndChar

StartChar: greaterequal
Encoding: 8805 8805 366
Width: 1112
VWidth: 0
GlyphClass: 2
Flags: W
PickledData: "(dp1
S'com.typemytype.robofont.layerData'
p2
(dp3
s."
LayerCount: 2
Fore
SplineSet
121 7 m 1
 995 7 l 1
 995 128 l 1
 121 128 l 1
 121 7 l 1
148 1196 m 1
 148 1059 l 1
 838 693 l 1
 145 350 l 1
 145 213 l 1
 979 654 l 1
 979 733 l 1
 148 1196 l 1
EndSplineSet
EndChar

StartChar: guillemotleft
Encoding: 171 171 367
Width: 941
VWidth: 0
GlyphClass: 2
Flags: W
PickledData: "(dp1
S'com.typemytype.robofont.layerData'
p2
(dp3
s."
LayerCount: 2
Fore
SplineSet
592 511 m 1
 827 851 l 1
 711 883 l 1
 434 516 l 1
 709 136 l 1
 824 168 l 1
 592 511 l 1
495 851 m 1
 365 883 l 1
 98 516 l 1
 116 473 l 1
 362 136 l 1
 490 168 l 1
 246 511 l 1
 495 851 l 1
EndSplineSet
EndChar

StartChar: guillemotright
Encoding: 187 187 368
Width: 960
VWidth: 0
GlyphClass: 2
Flags: W
PickledData: "(dp1
S'com.typemytype.robofont.layerData'
p2
(dp3
s."
LayerCount: 2
Fore
SplineSet
592 883 m 1
 467 851 l 1
 708 511 l 1
 462 168 l 1
 589 136 l 1
 855 504 l 1
 592 883 l 1
233 883 m 1
 117 851 l 1
 351 511 l 1
 116 168 l 1
 232 136 l 1
 509 504 l 1
 233 883 l 1
EndSplineSet
EndChar

StartChar: guilsinglleft
Encoding: 8249 8249 369
Width: 560
VWidth: 0
GlyphClass: 2
Flags: W
PickledData: "(dp1
S'com.typemytype.robofont.layerData'
p2
(dp3
s."
LayerCount: 2
Fore
SplineSet
236 531 m 1
 447 894 l 1
 319 894 l 1
 100 531 l 1
 315 166 l 1
 441 166 l 1
 236 531 l 1
EndSplineSet
EndChar

StartChar: guilsinglright
Encoding: 8250 8250 370
Width: 566
VWidth: 0
GlyphClass: 2
Flags: W
PickledData: "(dp1
S'com.typemytype.robofont.layerData'
p2
(dp3
s."
LayerCount: 2
Fore
SplineSet
461 532 m 1
 247 894 l 1
 120 894 l 1
 325 532 l 1
 115 166 l 1
 242 166 l 1
 461 532 l 1
EndSplineSet
EndChar

StartChar: h
Encoding: 104 104 371
Width: 1166
VWidth: 0
GlyphClass: 2
Flags: W
PickledData: "(dp1
S'com.typemytype.robofont.layerData'
p2
(dp3
s."
LayerCount: 2
Fore
SplineSet
185 1395 m 1
 185 0 l 1
 360 0 l 1
 360 546 l 2
 360 752 421 889 637 889 c 0
 790 889 826 788 826 623 c 2
 826 0 l 1
 1001 0 l 1
 1001 612 l 2
 1001 880 897 1019 667 1019 c 0
 529 1019 418 963 360 864 c 1
 360 1409 l 1
 185 1395 l 1
EndSplineSet
EndChar

StartChar: hbar
Encoding: 295 295 372
Width: 1130
VWidth: 0
GlyphClass: 2
Flags: W
PickledData: "(dp1
S'com.typemytype.robofont.layerData'
p2
(dp3
s."
LayerCount: 2
Fore
SplineSet
509 1271 m 1
 20 1271 l 1
 20 1166 l 1
 509 1166 l 1
 509 1271 l 1
149 1395 m 1
 149 0 l 1
 324 0 l 1
 324 546 l 2
 324 752 385 889 601 889 c 0
 754 889 790 788 790 623 c 2
 790 0 l 1
 965 0 l 1
 965 612 l 2
 965 880 861 1019 631 1019 c 0
 493 1019 382 963 324 864 c 1
 324 1409 l 1
 149 1395 l 1
149 1395 m 1
 149 0 l 1
 324 0 l 1
 324 546 l 2
 324 752 385 889 601 889 c 0
 754 889 790 788 790 623 c 2
 790 0 l 1
 965 0 l 1
 965 612 l 2
 965 880 861 1019 631 1019 c 0
 493 1019 382 963 324 864 c 1
 324 1409 l 1
 149 1395 l 1
149 1395 m 1
 149 0 l 1
 324 0 l 1
 324 546 l 2
 324 752 385 889 601 889 c 0
 754 889 790 788 790 623 c 2
 790 0 l 1
 965 0 l 1
 965 612 l 2
 965 880 861 1019 631 1019 c 0
 493 1019 382 963 324 864 c 1
 324 1409 l 1
 149 1395 l 1
149 1395 m 1
 149 0 l 1
 324 0 l 1
 324 546 l 2
 324 752 385 889 601 889 c 0
 754 889 790 788 790 623 c 2
 790 0 l 1
 965 0 l 1
 965 612 l 2
 965 880 861 1019 631 1019 c 0
 493 1019 382 963 324 864 c 1
 324 1409 l 1
 149 1395 l 1
149 1395 m 1
 149 0 l 1
 324 0 l 1
 324 546 l 2
 324 752 385 889 601 889 c 0
 754 889 790 788 790 623 c 2
 790 0 l 1
 965 0 l 1
 965 612 l 2
 965 880 861 1019 631 1019 c 0
 493 1019 382 963 324 864 c 1
 324 1409 l 1
 149 1395 l 1
149 1395 m 1
 149 0 l 1
 324 0 l 1
 324 546 l 2
 324 752 385 889 601 889 c 0
 754 889 790 788 790 623 c 2
 790 0 l 1
 965 0 l 1
 965 612 l 2
 965 880 861 1019 631 1019 c 0
 493 1019 382 963 324 864 c 1
 324 1409 l 1
 149 1395 l 1
149 1395 m 1
 149 0 l 1
 324 0 l 1
 324 546 l 2
 324 752 385 889 601 889 c 0
 754 889 790 788 790 623 c 2
 790 0 l 1
 965 0 l 1
 965 612 l 2
 965 880 861 1019 631 1019 c 0
 493 1019 382 963 324 864 c 1
 324 1409 l 1
 149 1395 l 1
149 1395 m 1
 149 0 l 1
 324 0 l 1
 324 546 l 2
 324 752 385 889 601 889 c 0
 754 889 790 788 790 623 c 2
 790 0 l 1
 965 0 l 1
 965 612 l 2
 965 880 861 1019 631 1019 c 0
 493 1019 382 963 324 864 c 1
 324 1409 l 1
 149 1395 l 1
149 1395 m 1
 149 0 l 1
 324 0 l 1
 324 546 l 2
 324 752 385 889 601 889 c 0
 754 889 790 788 790 623 c 2
 790 0 l 1
 965 0 l 1
 965 612 l 2
 965 880 861 1019 631 1019 c 0
 493 1019 382 963 324 864 c 1
 324 1409 l 1
 149 1395 l 1
149 1395 m 1
 149 0 l 1
 324 0 l 1
 324 546 l 2
 324 752 385 889 601 889 c 0
 754 889 790 788 790 623 c 2
 790 0 l 1
 965 0 l 1
 965 612 l 2
 965 880 861 1019 631 1019 c 0
 493 1019 382 963 324 864 c 1
 324 1409 l 1
 149 1395 l 1
149 1395 m 1
 149 0 l 1
 324 0 l 1
 324 546 l 2
 324 752 385 889 601 889 c 0
 754 889 790 788 790 623 c 2
 790 0 l 1
 965 0 l 1
 965 612 l 2
 965 880 861 1019 631 1019 c 0
 493 1019 382 963 324 864 c 1
 324 1409 l 1
 149 1395 l 1
149 1395 m 1
 149 0 l 1
 324 0 l 1
 324 546 l 2
 324 752 385 889 601 889 c 0
 754 889 790 788 790 623 c 2
 790 0 l 1
 965 0 l 1
 965 612 l 2
 965 880 861 1019 631 1019 c 0
 493 1019 382 963 324 864 c 1
 324 1409 l 1
 149 1395 l 1
149 1395 m 1
 149 0 l 1
 324 0 l 1
 324 546 l 2
 324 752 385 889 601 889 c 0
 754 889 790 788 790 623 c 2
 790 0 l 1
 965 0 l 1
 965 612 l 2
 965 880 861 1019 631 1019 c 0
 493 1019 382 963 324 864 c 1
 324 1409 l 1
 149 1395 l 1
EndSplineSet
EndChar

StartChar: hungarumlaut
Encoding: 733 733 374
Width: 743
VWidth: 0
GlyphClass: 2
Flags: W
PickledData: "(dp1
S'com.typemytype.robofont.layerData'
p2
(dp3
s."
LayerCount: 2
Fore
SplineSet
329 1146 m 1
 421 1146 l 1
 649 1451 l 1
 512 1451 l 1
 329 1146 l 1
116 1146 m 1
 207 1146 l 1
 436 1451 l 1
 297 1451 l 1
 116 1146 l 1
EndSplineSet
EndChar

StartChar: hyphen
Encoding: 45 45 375
Width: 812
VWidth: 0
GlyphClass: 2
Flags: W
PickledData: "(dp1
S'com.typemytype.robofont.layerData'
p2
(dp3
s."
LayerCount: 2
Fore
SplineSet
127 452 m 1
 685 452 l 1
 685 586 l 1
 127 586 l 1
 127 452 l 1
EndSplineSet
EndChar

StartChar: i
Encoding: 105 105 376
Width: 524
VWidth: 0
GlyphClass: 2
Flags: W
PickledData: "(dp1
S'com.typemytype.robofont.layerData'
p2
(dp3
s."
LayerCount: 2
Fore
SplineSet
185 1181 m 1
 359 1181 l 1
 359 1361 l 1
 185 1361 l 1
 185 1181 l 1
185 0 m 1
 359 0 l 1
 359 998 l 1
 185 998 l 1
 185 0 l 1
EndSplineSet
EndChar

StartChar: ij
Encoding: 307 307 382
Width: 988
VWidth: 0
GlyphClass: 2
Flags: W
PickledData: "(dp1
S'com.typemytype.robofont.layerData'
p2
(dp3
s."
LayerCount: 2
Fore
SplineSet
542 -398 m 1
 590 -398 l 2
 838 -398 893 -312 893 -68 c 2
 893 998 l 1
 718 998 l 1
 719 -127 l 2
 719 -215 705 -257 570 -257 c 2
 522 -257 l 1
 542 -398 l 1
718 1181 m 1
 893 1181 l 1
 893 1361 l 1
 718 1361 l 1
 718 1181 l 1
178 1181 m 1
 352 1181 l 1
 352 1361 l 1
 178 1361 l 1
 178 1181 l 1
178 0 m 1
 352 0 l 1
 352 998 l 1
 178 998 l 1
 178 0 l 1
542 -398 m 1
 590 -398 l 2
 838 -398 893 -312 893 -68 c 2
 893 998 l 1
 718 998 l 1
 719 -127 l 2
 719 -215 705 -257 570 -257 c 2
 522 -257 l 1
 542 -398 l 1
718 1181 m 1
 893 1181 l 1
 893 1361 l 1
 718 1361 l 1
 718 1181 l 1
178 1181 m 1
 352 1181 l 1
 352 1361 l 1
 178 1361 l 1
 178 1181 l 1
178 0 m 1
 352 0 l 1
 352 998 l 1
 178 998 l 1
 178 0 l 1
EndSplineSet
EndChar

StartChar: infinity
Encoding: 8734 8734 384
Width: 1622
VWidth: 0
GlyphClass: 2
Flags: W
PickledData: "(dp1
S'com.typemytype.robofont.layerData'
p2
(dp3
s."
LayerCount: 2
Fore
SplineSet
1190 347 m 0
 1074 347 989 428 877 581 c 1
 958 701 1060 813 1186 813 c 0
 1310 813 1399 718 1399 605 c 0
 1399 461 1332 347 1190 347 c 0
434 347 m 0
 299 347 209 463 209 581 c 0
 209 706 292 813 427 813 c 0
 558 813 661 713 746 579 c 1
 660 453 555 347 434 347 c 0
432 231 m 0
 584 231 702 334 811 478 c 1
 935 313 1050 231 1188 231 c 0
 1369 231 1511 376 1511 584 c 0
 1511 782 1397 925 1190 925 c 0
 1031 925 916 822 811 678 c 1
 699 827 584 925 428 925 c 0
 249 925 106 781 106 600 c 0
 106 401 225 231 432 231 c 0
EndSplineSet
EndChar

StartChar: integral
Encoding: 8747 8747 385
Width: 672
VWidth: 0
GlyphClass: 2
Flags: W
PickledData: "(dp1
S'com.typemytype.robofont.layerData'
p2
(dp3
s."
LayerCount: 2
Fore
SplineSet
148 -390 m 0
 329 -390 384 -234 384 -23 c 2
 384 1255 l 2
 384 1393 407 1465 516 1465 c 0
 548 1465 582 1461 603 1451 c 1
 602 1577 l 1
 565 1588 538 1598 492 1598 c 0
 311 1598 253 1440 253 1229 c 2
 253 -46 l 2
 253 -184 231 -258 122 -258 c 0
 90 -258 58 -256 37 -246 c 1
 38 -372 l 1
 75 -383 102 -390 148 -390 c 0
EndSplineSet
EndChar

StartChar: iota
Encoding: 953 953 387
Width: 451
VWidth: 0
GlyphClass: 2
Flags: W
PickledData: "(dp1
S'com.typemytype.robofont.layerData'
p2
(dp3
s."
LayerCount: 2
Fore
SplineSet
223 484 m 0
 304 484 344 544 344 604 c 0
 344 664 304 724 223 724 c 0
 143 724 102 664 102 604 c 0
 102 544 143 484 223 484 c 0
EndSplineSet
EndChar

StartChar: iotadieresis
Encoding: 970 970 388
Width: 697
VWidth: 0
GlyphClass: 2
Flags: W
PickledData: "(dp1
S'com.typemytype.robofont.layerData'
p2
(dp3
s."
LayerCount: 2
Fore
SplineSet
590 1334 m 1
 450 1334 l 1
 450 1141 l 1
 590 1141 l 1
 590 1334 l 1
235 1334 m 1
 95 1334 l 1
 95 1141 l 1
 235 1141 l 1
 235 1334 l 1
394 484 m 0
 475 484 515 544 515 604 c 0
 515 664 475 724 394 724 c 0
 314 724 273 664 273 604 c 0
 273 544 314 484 394 484 c 0
EndSplineSet
EndChar

StartChar: iotadieresistonos
Encoding: 912 912 389
Width: 517
VWidth: 0
GlyphClass: 2
Flags: W
PickledData: "(dp1
S'com.typemytype.robofont.layerData'
p2
(dp3
s."
LayerCount: 2
Fore
SplineSet
279 484 m 0
 360 484 400 544 400 604 c 0
 400 664 360 724 279 724 c 0
 199 724 158 664 158 604 c 0
 158 544 199 484 279 484 c 0
230 1134 m 0
 311 1134 351 1194 351 1254 c 0
 351 1314 311 1374 230 1374 c 0
 150 1374 109 1314 109 1254 c 0
 109 1194 150 1134 230 1134 c 0
EndSplineSet
EndChar

StartChar: iotatonos
Encoding: 943 943 390
Width: 451
VWidth: 0
GlyphClass: 2
Flags: W
PickledData: "(dp1
S'com.typemytype.robofont.layerData'
p2
(dp3
s."
LayerCount: 2
Fore
SplineSet
223 484 m 0
 304 484 344 544 344 604 c 0
 344 664 304 724 223 724 c 0
 143 724 102 664 102 604 c 0
 102 544 143 484 223 484 c 0
EndSplineSet
EndChar

StartChar: j
Encoding: 106 106 392
Width: 622
VWidth: 0
GlyphClass: 2
Flags: W
PickledData: "(dp1
S'com.typemytype.robofont.layerData'
p2
(dp3
s."
LayerCount: 2
Fore
SplineSet
86 -398 m 1
 134 -398 l 2
 382 -398 437 -312 437 -68 c 2
 437 998 l 1
 262 998 l 1
 263 -127 l 2
 263 -215 249 -257 114 -257 c 2
 66 -257 l 1
 86 -398 l 1
262 1181 m 1
 437 1181 l 1
 437 1361 l 1
 262 1361 l 1
 262 1181 l 1
EndSplineSet
EndChar

StartChar: k
Encoding: 107 107 394
Width: 1091
VWidth: 0
GlyphClass: 2
Flags: W
PickledData: "(dp1
S'com.typemytype.robofont.layerData'
p2
(dp3
s."
LayerCount: 2
Fore
SplineSet
185 1395 m 1
 185 0 l 1
 360 0 l 1
 360 363 l 1
 471 459 l 1
 853 0 l 1
 1049 0 l 1
 596 535 l 1
 1042 998 l 1
 827 998 l 1
 360 515 l 1
 360 1409 l 1
 185 1395 l 1
EndSplineSet
EndChar

StartChar: kappa
Encoding: 954 954 395
Width: 1047
VWidth: 0
GlyphClass: 2
Flags: W
PickledData: "(dp1
S'com.typemytype.robofont.layerData'
p2
(dp3
s."
LayerCount: 2
Fore
SplineSet
130 0 m 1
 281 0 l 1
 281 373 l 1
 392 469 l 1
 757 0 l 1
 946 0 l 1
 502 555 l 1
 917 998 l 1
 724 998 l 1
 589 855 431 690 315 557 c 0
 303 544 292 532 281 520 c 1
 281 999 l 1
 130 999 l 1
 130 0 l 1
EndSplineSet
EndChar

StartChar: kgreenlandic
Encoding: 312 312 397
Width: 1047
VWidth: 0
GlyphClass: 2
Flags: W
PickledData: "(dp1
S'com.typemytype.robofont.layerData'
p2
(dp3
s."
LayerCount: 2
Fore
SplineSet
130 0 m 1
 281 0 l 1
 281 373 l 1
 392 469 l 1
 757 0 l 1
 946 0 l 1
 502 555 l 1
 917 998 l 1
 724 998 l 1
 589 855 431 690 315 557 c 0
 303 544 292 532 281 520 c 1
 281 999 l 1
 130 999 l 1
 130 0 l 1
EndSplineSet
EndChar

StartChar: l
Encoding: 108 108 398
Width: 642
VWidth: 0
GlyphClass: 2
Flags: W
PickledData: "(dp1
S'com.typemytype.robofont.layerData'
p2
(dp3
s."
LayerCount: 2
Fore
SplineSet
419 -18 m 0
 445 -18 481 -16 529 -9 c 1
 518 116 l 1
 454 116 l 2
 379 116 364 153 364 345 c 2
 364 1409 l 1
 189 1395 l 1
 189 305 l 2
 189 45 262 -18 419 -18 c 0
EndSplineSet
EndChar

StartChar: lambda
Encoding: 955 955 400
Width: 451
VWidth: 0
GlyphClass: 2
Flags: W
PickledData: "(dp1
S'com.typemytype.robofont.layerData'
p2
(dp3
s."
LayerCount: 2
Fore
SplineSet
223 484 m 0
 304 484 344 544 344 604 c 0
 344 664 304 724 223 724 c 0
 143 724 102 664 102 604 c 0
 102 544 143 484 223 484 c 0
EndSplineSet
EndChar

StartChar: less
Encoding: 60 60 404
Width: 1094
VWidth: 0
GlyphClass: 2
Flags: W
PickledData: "(dp1
S'com.typemytype.robofont.layerData'
p2
(dp3
s."
LayerCount: 2
Fore
SplineSet
976 944 m 1
 976 1087 l 1
 102 639 l 1
 102 551 l 1
 974 133 l 1
 974 277 l 1
 270 599 l 1
 976 944 l 1
EndSplineSet
EndChar

StartChar: lessequal
Encoding: 8804 8804 405
Width: 1114
VWidth: 0
GlyphClass: 2
Flags: W
PickledData: "(dp1
S'com.typemytype.robofont.layerData'
p2
(dp3
s."
LayerCount: 2
Fore
SplineSet
116 7 m 1
 995 7 l 1
 995 128 l 1
 116 128 l 1
 116 7 l 1
972 1057 m 1
 972 1194 l 1
 144 733 l 1
 144 652 l 1
 972 211 l 1
 972 349 l 1
 284 697 l 1
 972 1057 l 1
EndSplineSet
EndChar

StartChar: logicalnot
Encoding: 172 172 406
Width: 1128
VWidth: 0
GlyphClass: 2
Flags: W
PickledData: "(dp1
S'com.typemytype.robofont.layerData'
p2
(dp3
s."
LayerCount: 2
Fore
SplineSet
1008 751 m 1
 106 751 l 1
 106 620 l 1
 885 620 l 1
 885 237 l 1
 1008 237 l 1
 1008 751 l 1
EndSplineSet
EndChar

StartChar: lozenge
Encoding: 9674 9674 407
Width: 1088
VWidth: 0
GlyphClass: 2
Flags: W
PickledData: "(dp1
S'com.typemytype.robofont.layerData'
p2
(dp3
s."
LayerCount: 2
Fore
SplineSet
536 96 m 1
 428 293 327 499 221 699 c 1
 329 898 438 1098 547 1296 c 1
 650 1095 757 896 862 697 c 1
 754 497 644 296 536 96 c 1
982 699 m 1
 595 1441 l 1
 494 1441 l 1
 101 697 l 1
 488 -44 l 1
 587 -44 l 1
 982 699 l 1
EndSplineSet
EndChar

StartChar: lslash
Encoding: 322 322 408
Width: 740
VWidth: 0
GlyphClass: 2
Flags: W
PickledData: "(dp1
S'com.typemytype.robofont.layerData'
p2
(dp3
s."
LayerCount: 2
Fore
SplineSet
480 -19 m 0
 497 -19 596 -12 642 -7 c 1
 628 116 l 1
 583 112 527 107 502 107 c 0
 372 107 369 175 369 392 c 2
 369 640 l 1
 529 763 l 1
 529 896 l 1
 369 772 l 1
 369 1374 l 1
 216 1356 l 1
 216 653 l 1
 114 574 l 1
 114 442 l 1
 216 521 l 1
 216 426 l 2
 216 97 237 -19 480 -19 c 0
EndSplineSet
EndChar

StartChar: m
Encoding: 109 109 409
Width: 1749
VWidth: 0
GlyphClass: 2
Flags: W
PickledData: "(dp1
S'com.typemytype.robofont.layerData'
p2
(dp3
s."
LayerCount: 2
Fore
SplineSet
356 525 m 2
 356 738 413 889 620 889 c 0
 758 889 803 787 803 563 c 2
 803 0 l 1
 972 0 l 1
 972 535 l 2
 972 751 1042 889 1229 889 c 0
 1396 889 1415 734 1415 520 c 2
 1415 0 l 1
 1584 0 l 1
 1584 642 l 2
 1584 886 1466 1019 1254 1019 c 0
 1119 1019 1002 960 933 840 c 1
 906 918 826 1019 643 1019 c 0
 500 1019 400 939 348 855 c 1
 330 998 l 1
 185 998 l 1
 185 936 187 0 187 0 c 1
 356 0 l 1
 356 525 l 2
EndSplineSet
EndChar

StartChar: macron
Encoding: 175 175 410
Width: 966
VWidth: 0
GlyphClass: 2
Flags: W
PickledData: "(dp1
S'com.typemytype.robofont.layerData'
p2
(dp3
s."
LayerCount: 2
Fore
SplineSet
181 1352 m 1
 789 1352 l 1
 789 1479 l 1
 181 1479 l 1
 181 1352 l 1
EndSplineSet
EndChar

StartChar: middot
Encoding: 65546 -1 411
Width: 372
VWidth: 0
GlyphClass: 2
Flags: W
PickledData: "(dp1
S'com.typemytype.robofont.layerData'
p2
(dp3
s."
LayerCount: 2
Fore
SplineSet
107 511 m 1
 260 511 l 1
 260 691 l 1
 107 691 l 1
 107 511 l 1
EndSplineSet
EndChar

StartChar: minus
Encoding: 8722 8722 412
Width: 1124
VWidth: 0
GlyphClass: 2
Flags: W
PickledData: "(dp1
S'com.typemytype.robofont.layerData'
p2
(dp3
s."
LayerCount: 2
Fore
SplineSet
104 486 m 1
 1015 486 l 1
 1015 621 l 1
 104 621 l 1
 104 486 l 1
EndSplineSet
EndChar

StartChar: mu
Encoding: 956 956 413
Width: 451
VWidth: 0
GlyphClass: 2
Flags: W
PickledData: "(dp1
S'com.typemytype.robofont.layerData'
p2
(dp3
s."
LayerCount: 2
Fore
SplineSet
223 484 m 0
 304 484 344 544 344 604 c 0
 344 664 304 724 223 724 c 0
 143 724 102 664 102 604 c 0
 102 544 143 484 223 484 c 0
EndSplineSet
EndChar

StartChar: multiply
Encoding: 215 215 414
Width: 920
VWidth: 0
GlyphClass: 2
Flags: W
PickledData: "(dp1
S'com.typemytype.robofont.layerData'
p2
(dp3
s."
LayerCount: 2
Fore
SplineSet
373 550 m 1
 114 253 l 1
 212 165 l 1
 460 450 l 1
 707 165 l 1
 805 253 l 1
 546 550 l 1
 805 848 l 1
 709 935 l 1
 460 649 l 1
 210 935 l 1
 114 848 l 1
 373 550 l 1
EndSplineSet
EndChar

StartChar: n
Encoding: 110 110 415
Width: 1189
VWidth: 0
GlyphClass: 2
Flags: W
PickledData: "(dp1
S'com.typemytype.robofont.layerData'
p2
(dp3
s."
LayerCount: 2
Fore
SplineSet
185 0 m 1
 360 0 l 1
 360 546 l 2
 360 752 429 889 645 889 c 0
 798 889 849 788 849 623 c 2
 849 0 l 1
 1024 0 l 1
 1024 612 l 2
 1024 880 909 1019 679 1019 c 0
 536 1019 425 963 353 855 c 1
 334 998 l 1
 185 998 l 1
 185 0 l 1
EndSplineSet
EndChar

StartChar: nine
Encoding: 57 57 419
Width: 1156
VWidth: 0
GlyphClass: 2
Flags: W
PickledData: "(dp1
S'com.typemytype.robofont.layerData'
p2
(dp3
s."
LayerCount: 2
Fore
SplineSet
581 672 m 0
 401 672 299 783 299 947 c 0
 299 1102 404 1229 587 1229 c 0
 770 1229 856 1107 856 952 c 0
 856 798 779 672 581 672 c 0
472 0 m 1
 472 0 744 338 831 453 c 1
 968 639 1024 757 1024 934 c 0
 1024 1176 866 1367 581 1367 c 0
 309 1367 131 1183 131 944 c 0
 131 698 324 537 549 537 c 0
 620 537 693 561 749 591 c 1
 276 0 l 1
 472 0 l 1
EndSplineSet
EndChar

StartChar: notequal
Encoding: 8800 8800 420
Width: 1116
VWidth: 0
GlyphClass: 2
Flags: W
PickledData: "(dp1
S'com.typemytype.robofont.layerData'
p2
(dp3
s."
LayerCount: 2
Fore
SplineSet
116 436 m 1
 123 320 l 1
 360 320 l 1
 252 62 l 1
 355 44 l 1
 487 320 l 1
 998 320 l 1
 992 436 l 1
 541 436 l 1
 683 713 l 1
 998 713 l 1
 990 833 l 1
 737 833 l 1
 844 1084 l 1
 739 1098 l 1
 611 833 l 1
 115 833 l 1
 123 713 l 1
 557 713 l 1
 419 436 l 1
 116 436 l 1
EndSplineSet
EndChar

StartChar: nu
Encoding: 957 957 422
Width: 451
VWidth: 0
GlyphClass: 2
Flags: W
PickledData: "(dp1
S'com.typemytype.robofont.layerData'
p2
(dp3
s."
LayerCount: 2
Fore
SplineSet
223 484 m 0
 304 484 344 544 344 604 c 0
 344 664 304 724 223 724 c 0
 143 724 102 664 102 604 c 0
 102 544 143 484 223 484 c 0
EndSplineSet
EndChar

StartChar: numbersign
Encoding: 35 35 423
Width: 1079
VWidth: 0
GlyphClass: 2
Flags: W
PickledData: "(dp1
S'com.typemytype.robofont.layerData'
p2
(dp3
s."
LayerCount: 2
Fore
SplineSet
411 488 m 1
 484 847 l 1
 698 847 l 1
 626 488 l 1
 411 488 l 1
286 488 m 1
 119 488 l 1
 110 373 l 1
 266 373 l 1
 199 -21 l 1
 317 -21 l 1
 389 373 l 1
 603 373 l 1
 527 -21 l 1
 664 -21 l 1
 743 373 l 1
 884 373 l 1
 893 488 l 1
 759 488 l 1
 820 847 l 1
 954 847 l 1
 966 960 l 1
 841 960 l 1
 901 1330 l 1
 784 1330 l 1
 720 960 l 1
 507 960 l 1
 579 1330 l 1
 440 1330 l 1
 364 960 l 1
 188 960 l 1
 180 846 l 1
 341 846 l 1
 286 488 l 1
EndSplineSet
EndChar

StartChar: o
Encoding: 111 111 424
Width: 1176
VWidth: 0
GlyphClass: 2
Flags: W
PickledData: "(dp1
S'com.typemytype.robofont.layerData'
p2
(dp3
s."
LayerCount: 2
Fore
SplineSet
588 112 m 0
 381 112 296 279 296 497 c 0
 296 719 382 886 588 886 c 0
 794 886 879 719 879 497 c 0
 879 279 795 112 588 112 c 0
588 -21 m 0
 873 -21 1054 200 1054 499 c 0
 1054 804 883 1019 588 1019 c 0
 293 1019 122 804 122 499 c 0
 122 200 303 -21 588 -21 c 0
EndSplineSet
EndChar

StartChar: oe
Encoding: 339 339 429
Width: 1821
VWidth: 0
GlyphClass: 2
Flags: W
PickledData: "(dp1
S'com.typemytype.robofont.layerData'
p2
(dp3
s."
LayerCount: 2
Fore
SplineSet
1035 577 m 1
 1052 774 1161 899 1312 899 c 0
 1458 899 1552 794 1556 589 c 1
 1556 577 l 1
 1035 577 l 1
571 103 m 0
 353 103 267 294 267 495 c 0
 267 699 354 897 569 897 c 0
 794 897 873 710 873 498 c 0
 873 294 787 103 571 103 c 0
569 -23 m 0
 746 -23 872 64 945 192 c 1
 1021 56 1154 -23 1331 -23 c 0
 1491 -23 1607 27 1689 97 c 1
 1642 208 l 1
 1571 160 1478 108 1336 108 c 0
 1160 108 1029 247 1029 472 c 1
 1702 472 l 1
 1702 489 1704 526 1704 541 c 0
 1704 836 1569 1023 1321 1023 c 1
 1164 1018 1024 938 949 809 c 1
 879 938 754 1023 571 1023 c 0
 269 1023 109 784 109 498 c 0
 109 211 267 -23 569 -23 c 0
EndSplineSet
EndChar

StartChar: ogonek
Encoding: 731 731 430
Width: 536
VWidth: 0
GlyphClass: 2
Flags: W
PickledData: "(dp1
S'com.typemytype.robofont.layerData'
p2
(dp3
s."
LayerCount: 2
Fore
SplineSet
283 -381 m 0
 332 -381 391 -367 426 -352 c 1
 426 -246 l 1
 380 -265 350 -276 301 -276 c 0
 264 -276 221 -243 221 -195 c 0
 221 -133 290 -65 385 5 c 1
 281 5 l 1
 194 -46 107 -122 107 -221 c 0
 107 -325 185 -381 283 -381 c 0
EndSplineSet
EndChar

StartChar: ohorn
Encoding: 417 417 432
Width: 1138
VWidth: 0
GlyphClass: 2
Flags: W
PickledData: "(dp1
S'com.typemytype.robofont.layerData'
p2
(dp3
s."
LayerCount: 2
Fore
SplineSet
1180 705 m 0
 1272 705 1318 786 1318 882 c 0
 1318 927 1308 974 1289 1019 c 1
 1183 1019 l 1
 1197 982 1210 930 1210 885 c 0
 1210 835 1194 794 1141 794 c 0
 1126 794 1110 796 1096 796 c 1
 1096 710 l 1
 1124 707 1154 705 1180 705 c 0
569 112 m 0
 362 112 277 279 277 497 c 0
 277 719 363 886 569 886 c 0
 775 886 860 719 860 497 c 0
 860 279 776 112 569 112 c 0
569 -21 m 0
 854 -21 1035 200 1035 499 c 0
 1035 804 864 1019 569 1019 c 0
 274 1019 103 804 103 499 c 0
 103 200 284 -21 569 -21 c 0
1180 705 m 0
 1272 705 1318 786 1318 882 c 0
 1318 927 1308 974 1289 1019 c 1
 1183 1019 l 1
 1197 982 1210 930 1210 885 c 0
 1210 835 1194 794 1141 794 c 0
 1126 794 1110 796 1096 796 c 1
 1096 710 l 1
 1124 707 1154 705 1180 705 c 0
569 112 m 0
 362 112 277 279 277 497 c 0
 277 719 363 886 569 886 c 0
 775 886 860 719 860 497 c 0
 860 279 776 112 569 112 c 0
569 -21 m 0
 854 -21 1035 200 1035 499 c 0
 1035 804 864 1019 569 1019 c 0
 274 1019 103 804 103 499 c 0
 103 200 284 -21 569 -21 c 0
EndSplineSet
EndChar

StartChar: omega
Encoding: 969 969 435
Width: 451
VWidth: 0
GlyphClass: 2
Flags: W
PickledData: "(dp1
S'com.typemytype.robofont.layerData'
p2
(dp3
s."
LayerCount: 2
Fore
SplineSet
223 484 m 0
 304 484 344 544 344 604 c 0
 344 664 304 724 223 724 c 0
 143 724 102 664 102 604 c 0
 102 544 143 484 223 484 c 0
EndSplineSet
EndChar

StartChar: omegatonos
Encoding: 974 974 436
Width: 451
VWidth: 0
GlyphClass: 2
Flags: W
PickledData: "(dp1
S'com.typemytype.robofont.layerData'
p2
(dp3
s."
LayerCount: 2
Fore
SplineSet
223 484 m 0
 304 484 344 544 344 604 c 0
 344 664 304 724 223 724 c 0
 143 724 102 664 102 604 c 0
 102 544 143 484 223 484 c 0
EndSplineSet
EndChar

StartChar: omicron
Encoding: 959 959 437
Width: 1152
VWidth: 0
GlyphClass: 2
Flags: W
PickledData: "(dp1
S'com.typemytype.robofont.layerData'
p2
(dp3
s."
LayerCount: 2
Fore
SplineSet
575 886 m 0
 781 886 866 719 866 497 c 0
 866 279 782 112 575 112 c 0
 368 112 284 279 284 497 c 0
 284 719 369 886 575 886 c 0
575 -21 m 0
 860 -21 1041 200 1041 499 c 0
 1041 804 870 1019 575 1019 c 0
 280 1019 109 804 109 499 c 0
 109 200 290 -21 575 -21 c 0
EndSplineSet
EndChar

StartChar: omicrontonos
Encoding: 972 972 438
Width: 451
VWidth: 0
GlyphClass: 2
Flags: W
PickledData: "(dp1
S'com.typemytype.robofont.layerData'
p2
(dp3
s."
LayerCount: 2
Fore
SplineSet
223 484 m 0
 304 484 344 544 344 604 c 0
 344 664 304 724 223 724 c 0
 143 724 102 664 102 604 c 0
 102 544 143 484 223 484 c 0
EndSplineSet
EndChar

StartChar: one
Encoding: 49 49 439
Width: 975
VWidth: 0
GlyphClass: 2
Flags: W
PickledData: "(dp1
S'com.typemytype.robofont.layerData'
p2
(dp3
s."
LayerCount: 2
Fore
SplineSet
870 0 m 1
 870 140 l 1
 610 140 l 1
 610 1361 l 1
 465 1361 l 1
 393 1310 253 1248 173 1242 c 1
 173 1100 l 1
 268 1106 377 1146 449 1193 c 1
 449 140 l 1
 144 140 l 1
 144 0 l 1
 870 0 l 1
EndSplineSet
EndChar

StartChar: onehalf
Encoding: 189 189 440
Width: 1494
VWidth: 0
GlyphClass: 2
Flags: W
PickledData: "(dp1
S'com.typemytype.robofont.layerData'
p2
(dp3
s."
LayerCount: 2
Fore
SplineSet
233 0 m 1
 355 0 l 1
 1193 1408 l 1
 1070 1408 l 1
 233 0 l 1
1363 -27 m 1
 1363 63 l 1
 1005 63 l 1
 1203 244 1374 395 1374 572 c 0
 1374 721 1259 790 1136 790 c 0
 1027 790 911 735 868 636 c 1
 938 577 l 1
 992 657 1067 692 1132 692 c 0
 1197 692 1257 643 1257 561 c 0
 1257 447 1084 282 860 57 c 1
 860 -27 l 1
 1363 -27 l 1
133 679 m 1
 133 592 l 1
 458 592 l 1
 458 679 l 1
 345 679 l 1
 345 1400 l 1
 257 1400 l 1
 221 1364 177 1335 121 1307 c 1
 121 1214 l 1
 161 1235 205 1259 240 1282 c 1
 240 679 l 1
 133 679 l 1
EndSplineSet
EndChar

StartChar: onequarter
Encoding: 188 188 441
Width: 1506
VWidth: 0
GlyphClass: 2
Flags: W
PickledData: "(dp1
S'com.typemytype.robofont.layerData'
p2
(dp3
s."
LayerCount: 2
Fore
SplineSet
1254 652 m 1
 1254 326 l 1
 1030 326 l 1
 1254 652 l 1
313 0 m 1
 435 0 l 1
 1273 1408 l 1
 1150 1408 l 1
 313 0 l 1
1245 818 m 1
 900 308 l 1
 900 218 l 1
 1254 218 l 1
 1254 36 l 1
 1352 36 l 1
 1352 218 l 1
 1449 218 l 1
 1440 326 l 1
 1354 326 l 1
 1354 818 l 1
 1245 818 l 1
133 679 m 1
 133 592 l 1
 458 592 l 1
 458 679 l 1
 345 679 l 1
 345 1400 l 1
 257 1400 l 1
 221 1364 177 1335 121 1307 c 1
 121 1214 l 1
 161 1235 205 1259 240 1282 c 1
 240 679 l 1
 133 679 l 1
EndSplineSet
EndChar

StartChar: ordfeminine
Encoding: 170 170 442
Width: 751
VWidth: 0
GlyphClass: 2
Flags: W
PickledData: "(dp1
S'com.typemytype.robofont.layerData'
p2
(dp3
s."
LayerCount: 2
Fore
SplineSet
345 853 m 0
 279 853 234 881 234 954 c 0
 234 1080 390 1075 503 1087 c 1
 503 1063 l 1
 498 953 453 853 345 853 c 0
131 578 m 1
 627 578 l 1
 627 674 l 1
 131 674 l 1
 131 578 l 1
328 752 m 0
 408 752 467 788 503 843 c 1
 506 771 l 1
 613 771 l 1
 608 854 608 882 608 894 c 2
 610 1210 l 1
 610 1380 508 1447 390 1447 c 0
 289 1447 202 1420 134 1331 c 1
 189 1260 l 1
 255 1335 319 1340 385 1340 c 0
 474 1340 500 1295 503 1189 c 1
 503 1173 l 1
 287 1159 126 1131 126 956 c 0
 126 831 212 752 328 752 c 0
EndSplineSet
EndChar

StartChar: ordmasculine
Encoding: 186 186 443
Width: 788
VWidth: 0
GlyphClass: 2
Flags: W
PickledData: "(dp1
S'com.typemytype.robofont.layerData'
p2
(dp3
s."
LayerCount: 2
Fore
SplineSet
396 752 m 0
 580 752 683 905 683 1097 c 0
 683 1292 580 1447 394 1447 c 0
 209 1447 103 1294 103 1101 c 0
 103 904 203 752 396 752 c 0
396 856 m 0
 277 856 217 962 217 1098 c 0
 217 1229 280 1340 392 1340 c 0
 508 1340 571 1230 571 1095 c 0
 571 967 510 856 396 856 c 0
EndSplineSet
EndChar

StartChar: oslash
Encoding: 248 248 444
Width: 1158
VWidth: 0
GlyphClass: 2
Flags: W
PickledData: "(dp1
S'com.typemytype.robofont.layerData'
p2
(dp3
s."
LayerCount: 2
Fore
SplineSet
582 103 m 0
 536 103 495 111 460 126 c 1
 762 838 l 1
 849 766 884 637 884 498 c 0
 884 294 798 103 582 103 c 0
396 166 m 1
 308 239 267 365 267 495 c 0
 267 699 365 897 580 897 c 0
 625 897 663 890 697 876 c 1
 396 166 l 1
299 -250 m 1
 409 6 l 1
 460 -13 517 -23 580 -23 c 0
 879 -23 1042 223 1042 500 c 0
 1042 701 966 878 816 965 c 1
 923 1216 l 1
 853 1244 l 1
 748 996 l 1
 699 1013 643 1023 582 1023 c 0
 280 1023 109 784 109 498 c 0
 109 299 191 124 342 37 c 1
 235 -216 l 1
 299 -250 l 1
EndSplineSet
EndChar

StartChar: p
Encoding: 112 112 447
Width: 1239
VWidth: 0
GlyphClass: 2
Flags: W
PickledData: "(dp1
S'com.typemytype.robofont.layerData'
p2
(dp3
s."
LayerCount: 2
Fore
SplineSet
655 107 m 0
 468 107 360 257 360 516 c 0
 360 746 450 890 656 890 c 0
 850 890 942 734 942 500 c 0
 942 261 846 107 655 107 c 0
185 998 m 1
 185 -433 l 1
 360 -423 l 1
 360 -55 l 2
 360 7 359 88 355 154 c 1
 411 48 547 -21 679 -21 c 0
 949 -21 1117 196 1117 494 c 0
 1117 800 967 1019 688 1019 c 0
 551 1019 417 956 360 835 c 1
 343 998 l 1
 185 998 l 1
EndSplineSet
EndChar

StartChar: paragraph
Encoding: 182 182 448
Width: 1043
VWidth: 0
GlyphClass: 2
Flags: W
PickledData: "(dp1
S'com.typemytype.robofont.layerData'
p2
(dp3
s."
LayerCount: 2
Fore
SplineSet
557 -144 m 1
 557 1301 l 1
 756 1301 l 1
 756 -144 l 1
 861 -144 l 1
 861 1301 l 1
 929 1301 l 1
 929 1421 l 1
 505 1421 l 2
 211 1421 97 1263 97 1103 c 0
 97 940 241 775 443 771 c 1
 443 -144 l 1
 557 -144 l 1
EndSplineSet
EndChar

StartChar: parenleft
Encoding: 40 40 449
Width: 595
VWidth: 0
GlyphClass: 2
Flags: W
PickledData: "(dp1
S'com.typemytype.robofont.layerData'
p2
(dp3
s."
LayerCount: 2
Fore
SplineSet
508 -191 m 1
 360 37 273 330 273 604 c 0
 273 892 355 1170 508 1408 c 1
 367 1408 l 1
 210 1180 118 906 118 600 c 0
 118 302 215 21 369 -191 c 1
 508 -191 l 1
EndSplineSet
EndChar

StartChar: parenright
Encoding: 41 41 450
Width: 598
VWidth: 0
GlyphClass: 2
Flags: W
PickledData: "(dp1
S'com.typemytype.robofont.layerData'
p2
(dp3
s."
LayerCount: 2
Fore
SplineSet
228 -191 m 1
 381 21 479 301 479 600 c 0
 479 904 385 1179 229 1408 c 1
 88 1408 l 1
 241 1170 324 892 324 604 c 0
 324 329 236 36 89 -191 c 1
 228 -191 l 1
EndSplineSet
EndChar

StartChar: partialdiff
Encoding: 8706 8706 451
Width: 1105
VWidth: 0
GlyphClass: 2
Flags: W
PickledData: "(dp1
S'com.typemytype.robofont.layerData'
p2
(dp3
s."
LayerCount: 2
Fore
SplineSet
477 108 m 0
 338 108 249 228 249 410 c 0
 249 648 397 851 586 851 c 0
 717 851 802 752 834 642 c 1
 805 349 674 108 477 108 c 0
476 -25 m 0
 835 -25 985 412 985 834 c 0
 985 1293 837 1503 566 1503 c 0
 454 1503 350 1465 274 1413 c 1
 286 1279 l 1
 359 1330 451 1371 544 1371 c 0
 741 1371 847 1188 847 892 c 0
 847 867 846 837 846 820 c 1
 784 923 688 980 563 980 c 0
 300 980 115 733 115 411 c 0
 115 165 225 -25 476 -25 c 0
EndSplineSet
EndChar

StartChar: percent
Encoding: 37 37 452
Width: 1657
VWidth: 0
GlyphClass: 2
Flags: W
PickledData: "(dp1
S'com.typemytype.robofont.layerData'
p2
(dp3
s."
LayerCount: 2
Fore
SplineSet
1272 -14 m 0
 1480 -14 1593 139 1593 336 c 0
 1593 537 1483 686 1272 686 c 0
 1065 686 952 534 952 336 c 0
 952 139 1062 -14 1272 -14 c 0
1272 89 m 0
 1137 89 1067 203 1067 336 c 0
 1067 464 1136 582 1272 582 c 0
 1407 582 1478 469 1478 336 c 0
 1478 208 1408 89 1272 89 c 0
335 -4 m 1
 458 -4 l 1
 1206 1330 l 1
 1058 1330 l 1
 335 -4 l 1
352 662 m 0
 529 662 643 808 643 1005 c 0
 643 1206 530 1355 352 1355 c 0
 175 1355 64 1203 64 1005 c 0
 64 808 174 662 352 662 c 0
352 768 m 0
 238 768 179 871 179 1005 c 0
 179 1133 236 1254 352 1254 c 0
 465 1254 526 1138 526 1005 c 0
 526 878 468 768 352 768 c 0
EndSplineSet
EndChar

StartChar: period
Encoding: 46 46 453
Width: 478
VWidth: 0
GlyphClass: 2
Flags: W
PickledData: "(dp1
S'com.typemytype.robofont.layerData'
p2
(dp3
s."
LayerCount: 2
Fore
SplineSet
239 -11 m 0
 320 -11 360 49 360 109 c 0
 360 169 320 229 239 229 c 0
 158 229 118 169 118 109 c 0
 118 49 159 -11 239 -11 c 0
EndSplineSet
EndChar

StartChar: periodcentered
Encoding: 183 183 454
Width: 372
VWidth: 0
GlyphClass: 2
Flags: W
PickledData: "(dp1
S'com.typemytype.robofont.layerData'
p2
(dp3
s."
LayerCount: 2
Fore
SplineSet
107 511 m 1
 260 511 l 1
 260 691 l 1
 107 691 l 1
 107 511 l 1
EndSplineSet
EndChar

StartChar: perthousand
Encoding: 8240 8240 455
Width: 2129
VWidth: 0
GlyphClass: 2
Flags: W
PickledData: "(dp1
S'com.typemytype.robofont.layerData'
p2
(dp3
s."
LayerCount: 2
Fore
SplineSet
1717 -27 m 0
 1918 -27 2018 123 2018 320 c 0
 2018 535 1922 669 1722 669 c 0
 1519 669 1421 520 1421 322 c 0
 1421 113 1519 -27 1717 -27 c 0
1722 85 m 0
 1597 85 1536 188 1536 322 c 0
 1536 448 1596 555 1720 555 c 0
 1840 555 1904 452 1904 322 c 0
 1904 195 1843 85 1722 85 c 0
1015 -27 m 0
 1216 -27 1315 123 1315 320 c 0
 1315 531 1221 669 1017 669 c 0
 813 669 717 520 717 322 c 0
 717 113 815 -27 1015 -27 c 0
1017 85 m 0
 896 85 836 188 836 322 c 0
 836 448 895 555 1016 555 c 0
 1141 555 1198 455 1198 322 c 0
 1198 197 1138 85 1017 85 c 0
246 -20 m 1
 369 -20 l 1
 1168 1408 l 1
 1025 1408 l 1
 246 -20 l 1
378 724 m 0
 550 724 649 873 649 1070 c 0
 649 1283 556 1419 379 1419 c 0
 204 1419 108 1273 108 1074 c 0
 108 865 205 724 378 724 c 0
381 836 m 0
 275 836 226 940 226 1074 c 0
 226 1200 275 1309 378 1309 c 0
 483 1309 532 1206 532 1072 c 0
 532 946 482 836 381 836 c 0
EndSplineSet
EndChar

StartChar: phi
Encoding: 966 966 456
Width: 451
VWidth: 0
GlyphClass: 2
Flags: W
PickledData: "(dp1
S'com.typemytype.robofont.layerData'
p2
(dp3
s."
LayerCount: 2
Fore
SplineSet
223 484 m 0
 304 484 344 544 344 604 c 0
 344 664 304 724 223 724 c 0
 143 724 102 664 102 604 c 0
 102 544 143 484 223 484 c 0
EndSplineSet
EndChar

StartChar: pi
Encoding: 960 960 457
Width: 1253
VWidth: 0
GlyphClass: 2
Flags: W
PickledData: "(dp1
S'com.typemytype.robofont.layerData'
p2
(dp3
s."
LayerCount: 2
Fore
SplineSet
1014 -7 m 0
 1046 -7 1080 -2 1121 5 c 1
 1121 157 l 1
 1095 150 1069 144 1052 144 c 0
 974 144 972 226 972 284 c 2
 972 888 l 1
 1138 888 l 1
 1138 1019 l 1
 386 1019 l 2
 243 1019 158 1009 104 958 c 1
 118 829 l 1
 177 868 243 885 340 888 c 1
 333 603 309 172 229 0 c 1
 364 0 l 1
 433 131 462 515 477 888 c 1
 846 888 l 1
 846 274 l 2
 846 72 887 -7 1014 -7 c 0
EndSplineSet
EndChar

StartChar: plus
Encoding: 43 43 458
Width: 1052
VWidth: 0
GlyphClass: 2
Flags: W
PickledData: "(dp1
S'com.typemytype.robofont.layerData'
p2
(dp3
s."
LayerCount: 2
Fore
SplineSet
465 653 m 1
 103 653 l 1
 103 530 l 1
 464 530 l 1
 464 139 l 1
 589 139 l 1
 589 530 l 1
 945 530 l 1
 945 653 l 1
 590 653 l 1
 590 1039 l 1
 465 1039 l 1
 465 653 l 1
EndSplineSet
EndChar

StartChar: plusminus
Encoding: 177 177 459
Width: 1126
VWidth: 0
GlyphClass: 2
Flags: W
PickledData: "(dp1
S'com.typemytype.robofont.layerData'
p2
(dp3
s."
LayerCount: 2
Fore
SplineSet
122 0 m 1
 1005 0 l 1
 1005 130 l 1
 122 130 l 1
 122 0 l 1
499 719 m 1
 122 719 l 1
 122 589 l 1
 500 589 l 1
 500 212 l 1
 624 212 l 1
 624 589 l 1
 1003 589 l 1
 1003 719 l 1
 622 719 l 1
 622 1097 l 1
 499 1097 l 1
 499 719 l 1
EndSplineSet
EndChar

StartChar: product
Encoding: 8719 8719 460
Width: 1335
VWidth: 0
GlyphClass: 2
Flags: W
PickledData: "(dp1
S'com.typemytype.robofont.layerData'
p2
(dp3
s."
LayerCount: 2
Fore
SplineSet
1039 0 m 1
 1200 0 l 1
 1200 1361 l 1
 136 1361 l 1
 136 0 l 1
 298 0 l 1
 298 1221 l 1
 1039 1221 l 1
 1039 0 l 1
EndSplineSet
EndChar

StartChar: psi
Encoding: 968 968 461
Width: 451
VWidth: 0
GlyphClass: 2
Flags: W
PickledData: "(dp1
S'com.typemytype.robofont.layerData'
p2
(dp3
s."
LayerCount: 2
Fore
SplineSet
223 484 m 0
 304 484 344 544 344 604 c 0
 344 664 304 724 223 724 c 0
 143 724 102 664 102 604 c 0
 102 544 143 484 223 484 c 0
EndSplineSet
EndChar

StartChar: q
Encoding: 113 113 462
Width: 1238
VWidth: 0
GlyphClass: 2
Flags: W
PickledData: "(dp1
S'com.typemytype.robofont.layerData'
p2
(dp3
s."
LayerCount: 2
Fore
SplineSet
587 107 m 0
 396 107 296 261 296 500 c 0
 296 734 393 890 587 890 c 0
 793 890 879 746 879 516 c 0
 879 257 802 107 587 107 c 0
1053 998 m 1
 896 998 l 1
 879 835 l 1
 824 953 697 1019 560 1019 c 0
 281 1019 122 800 122 494 c 0
 122 196 299 -21 559 -21 c 0
 691 -21 817 43 883 136 c 1
 879 70 879 7 879 -55 c 2
 879 -433 l 1
 1053 -423 l 1
 1053 998 l 1
EndSplineSet
EndChar

